<?xml version="1.0" standalone="no"?>
<!DOCTYPE svg PUBLIC "-//W3C//DTD SVG 1.1//EN" "http://www.w3.org/Graphics/SVG/1.1/DTD/svg11.dtd" >
<svg xmlns="http://www.w3.org/2000/svg" xmlns:xlink="http://www.w3.org/1999/xlink" version="1.1">
<metadata>
Created by FontForge 20170731 at Wed Sep 20 01:00:59 2017
 By Aleksey,,,
Copyright 2016 Google Inc. All Rights Reserved.
</metadata>
<defs>
<font id="NotoSansThai-SemiBold" horiz-adv-x="0" >
  <font-face 
    font-family="Noto Sans Thai SemBd"
    font-weight="600"
    font-stretch="normal"
    units-per-em="1000"
    panose-1="2 11 7 2 4 5 4 2 2 4"
    ascent="800"
    descent="-200"
    bbox="-719 -442 889 1026"
    underline-thickness="50"
    underline-position="-175"
    unicode-range="U+000D-25CC"
  />
<missing-glyph horiz-adv-x="364" 
d="M33 0v666h265v-666h-265zM66 33h199v600h-199v-600z" />
    <glyph glyph-name="ru_lakkhangyao-thai" unicode="&#xe24;&#xe45;" horiz-adv-x="956" 
d="M415 -208v551q0 60 -32 87t-85 27q-52 0 -80 -21.5t-29 -53.5l98 -46l-10 -58q-37 0 -58.5 -19t-21.5 -65v-71q0 -41 40 -41q21 0 36 6l14 -80q-19 -10 -41 -14t-45 -4q-56 0 -92.5 27.5t-36.5 91.5v75q0 60 26 89t71 42l1 4l-111 40v29q0 46 27.5 85t80.5 63t128 24
q73 0 119.5 -23.5t71.5 -66.5h3q22 42 69.5 66t115.5 24q104 0 156 -53.5t52 -145.5v-569h-127v553q0 60 -29.5 86t-76.5 26q-48 0 -77.5 -26.5t-29.5 -87.5v-551h-127z" />
    <glyph glyph-name="lu_lakkhangyao-thai" unicode="&#xe26;&#xe45;" horiz-adv-x="964" 
d="M423 -208v551q0 60 -32.5 87t-84.5 27t-80 -21.5t-29 -53.5l97 -45l-9 -59q-32 0 -49.5 -20.5t-17.5 -65.5v-89q0 -64 -32.5 -88.5t-81.5 -24.5t-83 19l12 75q15 -5 29 -5q31 0 31 37v80q0 54 21.5 81t62.5 38l1 4l-111 40v29q0 46 28 85t81.5 63t129.5 24
q70 0 117.5 -23.5t70.5 -66.5h3q22 42 69.5 66t114.5 24q103 0 155.5 -53.5t52.5 -145.5v-569h-127v553q0 60 -29.5 86t-76.5 26t-76.5 -26.5t-29.5 -87.5v-551h-127z" />
    <glyph glyph-name=".notdef" horiz-adv-x="364" 
d="M33 0v666h265v-666h-265zM66 33h199v600h-199v-600z" />
    <glyph glyph-name=".null" 
 />
    <glyph glyph-name="nonmarkingreturn" horiz-adv-x="333" 
 />
    <glyph glyph-name="NULL" 
 />
    <glyph glyph-name="NULL" 
 />
    <glyph glyph-name="CR" unicode="&#xd;" horiz-adv-x="260" 
 />
    <glyph glyph-name="space" unicode=" " horiz-adv-x="260" 
 />
    <glyph glyph-name="hyphen" unicode="-" horiz-adv-x="322" 
d="M34 215v106h254v-106h-254z" />
    <glyph glyph-name="uni00A0" unicode="&#xa0;" horiz-adv-x="260" 
 />
    <glyph glyph-name="uni02BC" unicode="&#x2bc;" horiz-adv-x="201" 
d="M182 714l7 -11q-13 -53 -35.5 -116.5t-45.5 -117.5h-95q13 58 26 125.5t20 119.5h123z" />
    <glyph glyph-name="uni02D7" unicode="&#x2d7;" horiz-adv-x="218" 
d="M206 246h-194v58h194v-58z" />
    <glyph glyph-name="tildecomb" unicode="&#x303;" 
d="M-120 749q-6 -71 -36.5 -107t-76.5 -36q-27 0 -52.5 13.5t-49.5 27t-46 13.5q-33 0 -43 -55h-66q6 71 36 107t78 36q26 0 51 -13.5t49 -27t46 -13.5q32 0 44 55h66z" />
    <glyph glyph-name="uni0331" unicode="&#x331;" 
d="M-120 -76v-91h-307v91h307z" />
    <glyph glyph-name="uni0E01" unicode="&#xe01;" horiz-adv-x="615" 
d="M69 0v176q0 63 26 94.5t71 44.5l1 4l-108 40v29q0 46 28 85t82.5 63t131.5 24q70 0 124 -22t85 -67t31 -114v-357h-127v348q0 56 -32 82.5t-84 26.5t-80 -21.5t-29 -53.5l97 -46l-10 -59q-37 -1 -58.5 -25t-21.5 -70v-182h-127z" />
    <glyph glyph-name="uni0E02" unicode="&#xe02;" horiz-adv-x="575" 
d="M287 -12q-105 0 -160 48t-55 143v48q0 43 12 71t28 50t27.5 39t11.5 39q0 19 -9.5 27t-23.5 8q-19 0 -47 -13l-23 83q24 13 54.5 18.5t53.5 5.5q62 0 88 -30.5t26 -79.5q0 -33 -10.5 -57t-25.5 -48t-25.5 -45t-10.5 -59v-47q0 -56 25.5 -78t64.5 -22q87 0 87 90v369h126
v-373q0 -91 -54.5 -139t-159.5 -48z" />
    <glyph glyph-name="uni0E03" unicode="&#xe03;" horiz-adv-x="581" 
d="M290 -12q-109 0 -163 49.5t-54 143.5v44q0 52 19 84.5t48 65.5q12 13 23 27.5t13 28.5l-3 1q-11 -6 -23 -10t-26 -4q-37 0 -60 26t-23 74v30h96q0 -28 6.5 -41t23.5 -13q9 0 19.5 3.5t19.5 11.5l18 39h68v-59q0 -31 -3 -52t-12 -40t-26 -42q-14 -19 -25.5 -34t-18.5 -35
t-7 -52v-44q0 -57 25.5 -79t64.5 -22q91 0 91 90v369h126v-373q0 -91 -55.5 -139t-161.5 -48z" />
    <glyph glyph-name="uni0E04" unicode="&#xe04;" horiz-adv-x="634" 
d="M74 0v334q0 110 58 168t186 58q127 0 184.5 -58t57.5 -168v-334h-127v336q0 58 -28.5 89.5t-88.5 31.5q-59 0 -87.5 -31.5t-28.5 -89.5v-96l3 -1q19 39 48 51.5t80 12.5h26v-98h-26q-55 0 -83 -17t-38 -44.5t-10 -61.5v-82h-126z" />
    <glyph glyph-name="uni0E05" unicode="&#xe05;" horiz-adv-x="644" 
d="M74 0v421q0 71 37.5 105t101.5 34q40 0 68.5 -14t37.5 -45h5q10 31 38.5 45t68.5 14q64 0 101.5 -34t37.5 -105v-421h-126v396q0 34 -13.5 47.5t-33.5 13.5q-44 0 -48 -54h-57q-4 54 -48 54q-20 0 -32.5 -13.5t-12.5 -47.5v-156l3 -1q20 39 49.5 51.5t83.5 12.5h28v-98
h-28q-57 0 -86 -17t-39 -44.5t-10 -61.5v-82h-126z" />
    <glyph glyph-name="uni0E06" unicode="&#xe06;" horiz-adv-x="624" 
d="M367 -10q-69 0 -114.5 26t-62.5 70h-7l-12 -86h-97v220q0 52 17 87t49 68q16 19 26 31t12 25l-3 1q-10 -6 -22 -10t-26 -4q-37 0 -60.5 26t-23.5 74v30h96q0 -54 31 -54q9 0 19.5 3.5t20.5 11.5l17 39h71v-59q0 -28 -3.5 -48.5t-13 -40t-27.5 -45.5q-15 -21 -27 -36.5
t-19 -34t-7 -48.5v-8q0 -59 32.5 -94t91.5 -35q47 0 72 26.5t25 85.5v337h127v-360q0 -98 -47 -148t-135 -50z" />
    <glyph glyph-name="uni0E07" unicode="&#xe07;" horiz-adv-x="558" 
d="M167 0l-164 548h128l131 -444h9q19 0 36 10t30 26q23 30 34.5 73t11.5 86q0 73 -30 113t-83 40q-21 0 -36 -6l-25 99q22 6 41.5 8t33.5 2q52 0 91 -14.5t67 -42.5q70 -70 70 -199q0 -79 -25 -140t-61 -96q-30 -29 -74 -46t-118 -17h-67z" />
    <glyph glyph-name="uni0E08" unicode="&#xe08;" horiz-adv-x="549" 
d="M127 0v235h-64v84h180v-221h9q57 0 86.5 42.5t29.5 134.5q0 100 -38.5 141.5t-119.5 41.5q-50 0 -93 -14t-78 -36v109q31 18 81 30.5t112 12.5q142 0 203.5 -72t61.5 -211q0 -133 -58.5 -205t-200.5 -72h-111z" />
    <glyph glyph-name="uni0E09" unicode="&#xe09;" horiz-adv-x="616" 
d="M254 -10q-84 0 -130.5 42.5t-46.5 136.5v144h123v-114q0 -100 93 -100q57 0 89.5 36.5t32.5 101.5v83q0 80 -38.5 109t-106.5 29q-51 0 -97 -14t-84 -36v109q31 17 86 30t120 13q131 0 189 -60.5t58 -175.5v-324h-99l-12 81h-6q-18 -39 -61 -65t-110 -26z" />
    <glyph glyph-name="uni0E0A" unicode="&#xe0a;" horiz-adv-x="581" 
d="M292 -12q-106 0 -162 48.5t-56 142.5v47q0 44 11 72t27 50t27.5 39t11.5 39q0 19 -9.5 27t-23.5 8q-19 0 -47 -13l-23 83q24 13 54.5 18.5t53.5 5.5q62 0 88 -30.5t26 -79.5q0 -33 -10.5 -57t-25.5 -48t-24.5 -45t-9.5 -59v-46q0 -57 26 -79t66 -22q89 0 89 90v113
q0 33 -14.5 51t-49.5 18h-5v71h6q34 0 50 18t20 44.5t4 53.5h127q0 -58 -15 -97t-57 -54v-4q37 -11 48.5 -39t11.5 -61v-118q0 -91 -54.5 -139t-160.5 -48z" />
    <glyph glyph-name="uni0E0B" unicode="&#xe0b;" horiz-adv-x="585" 
d="M293 -12q-108 0 -162.5 49.5t-54.5 143.5v44q0 52 17.5 84.5t46.5 65.5q11 13 22.5 27.5t13.5 28.5l-3 1q-11 -6 -23 -10t-26 -4q-37 0 -60 26t-23 74v30h96q0 -54 30 -54q9 0 20 3.5t20 11.5l17 39h65v-59q0 -31 -2.5 -52t-10.5 -40t-25 -42q-13 -19 -24 -34t-17.5 -33
t-6.5 -48v-50q0 -58 25 -79.5t65 -21.5q93 0 93 90v113q0 33 -14.5 51t-46.5 18h-4v71h5q34 0 49 18t19 44.5t4 53.5h125q0 -58 -15 -96t-57 -54v-4q35 -10 48 -37.5t13 -69.5v-112q0 -91 -55.5 -139t-163.5 -48z" />
    <glyph glyph-name="uni0E0C" unicode="&#xe0c;" horiz-adv-x="919" 
d="M201 -10q-56 0 -92.5 27.5t-36.5 91.5v77q0 60 26 88t71 41l1 4l-111 40v29q0 48 28 87t80.5 62t127.5 23q67 0 119.5 -21t82.5 -64.5t30 -110.5v-121q0 -65 30.5 -104.5t78.5 -39.5q37 0 59.5 23.5t22.5 75.5v350h127v-373q0 -95 -42.5 -140t-123.5 -45q-59 0 -101 26
t-60 70h-6l-12 -86h-99v351q0 60 -30.5 83.5t-77.5 23.5t-74.5 -19t-29.5 -56l98 -46l-10 -59q-37 0 -58.5 -19t-21.5 -65v-71q0 -41 40 -41q21 0 36 6l14 -80q-19 -10 -41 -14t-45 -4z" />
    <glyph glyph-name="uni0E0D" unicode="&#xe0d;" horiz-adv-x="926" 
d="M597 -188q-43 0 -87 8.5t-81 25.5v112q28 -18 69.5 -30t85.5 -12q62 0 99.5 29.5t37.5 101.5v28h-6q-19 -29 -56 -49.5t-93 -20.5q-74 0 -120.5 41t-46.5 135v173q0 59 -31.5 81.5t-75.5 22.5t-72.5 -19t-30.5 -56l98 -46l-10 -59q-37 0 -58.5 -19t-21.5 -65v-71
q0 -41 40 -41q21 0 36 6l14 -80q-19 -10 -41 -14t-45 -4q-56 0 -92.5 27.5t-36.5 91.5v77q0 60 26 88t71 41l1 4l-111 40v29q0 48 28 87t80.5 62t125.5 23q67 0 119 -21t82 -64t30 -111v-152q0 -52 23.5 -75.5t59.5 -23.5q49 0 79.5 39.5t30.5 104.5v291h127v-487
q0 -126 -63 -187.5t-184 -61.5z" />
    <glyph glyph-name="uni0E0E" unicode="&#xe0e;" horiz-adv-x="624" 
d="M96 -208v17q0 73 42 109.5t119 36.5q51 0 94 -14.5t72 -35.5v443q0 56 -32.5 82.5t-84.5 26.5t-80 -21.5t-29 -53.5l97 -45l-9 -59q-32 0 -49.5 -20.5t-17.5 -65.5v-86q0 -63 -32.5 -87.5t-81.5 -24.5q-25 0 -45.5 5t-37.5 13l12 76q15 -5 29 -5q31 0 31 37v76
q0 54 21.5 81t62.5 38l1 4l-111 40v29q0 46 27.5 85t81.5 63t132 24q71 0 125.5 -22t85.5 -67t31 -114v-565h-107q-15 18 -40.5 32.5t-55 22.5t-57.5 8q-38 0 -55 -15.5t-17 -37.5v-10h-122z" />
    <glyph glyph-name="uni0E0F" unicode="&#xe0f;" horiz-adv-x="624" 
d="M67 -208v31q0 63 36.5 94t85.5 31q43 0 70 -17t44 -45l60 52l60 -43v453q0 56 -32.5 82.5t-84.5 26.5t-80 -21.5t-29 -53.5l97 -45l-9 -59q-32 0 -49.5 -20.5t-17.5 -65.5v-86q0 -63 -32.5 -87.5t-81.5 -24.5q-25 0 -45.5 5t-37.5 13l12 76q15 -5 29 -5q31 0 31 37v76
q0 54 21.5 81t62.5 38l1 4l-111 40v29q0 46 27.5 85t81.5 63t132 24q71 0 125.5 -22t85.5 -67t31 -114v-565h-109l-71 54l-54 -54h-31q-11 23 -27.5 40.5t-41.5 17.5t-34 -17t-9 -34v-7h-106z" />
    <glyph glyph-name="uni0E10" unicode="&#xe10;" horiz-adv-x="563" 
d="M127 0v235h-64v84h180v-221h9q56 0 86 42.5t30 134.5q0 100 -38 141.5t-120 41.5q-51 0 -93.5 -14t-78.5 -36v109q32 18 82 30.5t113 12.5q45 0 81.5 -8.5t61.5 -27.5q19 10 31 24.5t12 35.5h115q0 -41 -23.5 -74t-69.5 -51q56 -57 56 -186q0 -131 -59.5 -202t-199.5 -71
h-111zM41 -208v29q0 63 33.5 93.5t80.5 30.5q41 0 65.5 -17t42.5 -45l54 54l67 -49v72h107v-168h-112l-61 53l-48 -53h-24q-10 23 -26.5 40.5t-39.5 17.5q-24 0 -32 -17t-8 -34v-7h-99z" />
    <glyph glyph-name="uni0E11" unicode="&#xe11;" horiz-adv-x="641" 
d="M89 0v212q0 53 7.5 87.5t37.5 69.5q26 29 33 39t9 23l-3 1q-11 -6 -23 -10t-26 -4q-37 0 -60 26t-23 74v30h94q0 -30 7 -42t24 -12q8 0 17 3t17 12l17 39h63v-74h4q27 44 64 64t83 20q70 0 103 -38t33 -100v-420h-127v375q0 77 -57 77q-29 0 -55.5 -20t-60.5 -65
q-19 -25 -30 -45.5t-16 -46t-5 -64.5v-211h-127z" />
    <glyph glyph-name="uni0E12" unicode="&#xe12;" horiz-adv-x="927" 
d="M272 -10q-84 0 -131 36.5t-66 102t-19 152.5q0 149 42 213t119 64q34 0 59.5 -13t38.5 -46h4q12 34 41 46.5t63 12.5q61 0 95.5 -36t34.5 -107v-172q0 -65 30 -104.5t79 -39.5q36 0 59 23.5t23 75.5v350h127v-373q0 -95 -43 -140t-120 -45q-64 0 -105 27.5t-58 68.5h-7
l-12 -86h-99v397q0 34 -11 46t-29 12q-19 0 -30 -12t-14 -40h-57q-4 31 -15.5 41.5t-27.5 10.5q-29 0 -44.5 -37t-15.5 -135q0 -95 21.5 -144.5t88.5 -49.5q25 0 45 6l12 -92q-30 -13 -78 -13z" />
    <glyph glyph-name="uni0E13" unicode="&#xe13;" horiz-adv-x="926" 
d="M201 -10q-56 0 -92.5 27.5t-36.5 91.5v77q0 60 26 88t71 41l1 4l-111 40v29q0 48 28 87t80.5 62t125.5 23q67 0 119 -21t82 -64t30 -111v-166q0 -52 23 -75.5t60 -23.5q49 0 79.5 39.5t30.5 104.5v305h127v-548h-100l-12 86h-7q-18 -44 -59.5 -70t-99.5 -26
q-80 0 -123.5 43t-43.5 138v183q0 59 -31.5 81.5t-75.5 22.5t-72.5 -19t-30.5 -56l98 -46l-10 -59q-37 0 -58.5 -19t-21.5 -65v-71q0 -41 40 -41q21 0 36 6l14 -80q-19 -10 -41 -14t-45 -4z" />
    <glyph glyph-name="uni0E14" unicode="&#xe14;" horiz-adv-x="627" 
d="M267 -10q-81 0 -128 36t-66.5 99t-19.5 143q0 115 33 178.5t91.5 88.5t135.5 25q129 0 184.5 -54t55.5 -146v-360h-127v350q0 52 -25.5 79.5t-86.5 27.5q-40 0 -69.5 -15.5t-46.5 -56t-17 -116.5q0 -77 23.5 -126.5t84.5 -49.5q25 0 45 6l12 -96q-16 -7 -37.5 -10
t-41.5 -3z" />
    <glyph glyph-name="uni0E15" unicode="&#xe15;" horiz-adv-x="647" 
d="M277 -10q-87 0 -135 37t-67 103t-19 153q0 145 42.5 210t124.5 65q35 0 61 -13t40 -46h4q12 34 42 46.5t66 12.5q137 0 137 -143v-415h-127v397q0 34 -13 46t-33 12q-22 0 -33 -12t-14 -40h-58q-4 31 -17.5 41.5t-30.5 10.5q-31 0 -47 -39.5t-16 -133.5q0 -92 22 -142.5
t90 -50.5q28 0 46 6l13 -92q-30 -13 -78 -13z" />
    <glyph glyph-name="uni0E16" unicode="&#xe16;" horiz-adv-x="616" 
d="M201 -10q-56 0 -92.5 27.5t-36.5 91.5v75q0 60 26 89t71 42l1 4l-111 40v29q0 46 28 85t82.5 63t131.5 24q71 0 125 -22t85 -67t31 -114v-357h-127v348q0 56 -32 82.5t-85 26.5q-52 0 -80 -21.5t-29 -53.5l98 -46l-10 -58q-37 -1 -58.5 -16.5t-21.5 -60.5v-78
q0 -41 40 -41q21 0 36 6l14 -80q-19 -10 -41 -14t-45 -4z" />
    <glyph glyph-name="uni0E17" unicode="&#xe17;" horiz-adv-x="631" 
d="M80 0v548h92l18 -86h7q17 43 60 69.5t109 26.5q93 0 142 -49t49 -151v-358h-127v337q0 58 -25.5 85t-74.5 27q-59 0 -91 -44.5t-32 -121.5v-283h-127z" />
    <glyph glyph-name="uni0E18" unicode="&#xe18;" horiz-adv-x="553" 
d="M281 -12q-62 0 -115.5 11.5t-93.5 25.5v221h111v-150q15 -6 40 -10.5t54 -4.5q30 0 55.5 7t41 25t15.5 51q0 34 -18.5 52t-54.5 28.5t-87 24.5q-57 16 -96 33t-59 43.5t-20 69.5q0 76 58.5 110.5t167.5 34.5q69 0 117.5 -11t73.5 -22v-101q-28 13 -83 25.5t-116 12.5
q-40 0 -65.5 -9t-25.5 -32q0 -27 38.5 -38.5t103.5 -29.5q55 -17 97.5 -38t66.5 -56t24 -94q0 -53 -22 -93t-72.5 -63t-135.5 -23z" />
    <glyph glyph-name="uni0E19" unicode="&#xe19;" horiz-adv-x="634" 
d="M262 -10q-91 0 -139.5 50.5t-48.5 152.5v355h127v-337q0 -58 25 -85t74 -27q59 0 91.5 42t32.5 124v283h127v-548h-99l-11 83h-8q-17 -41 -59.5 -67t-111.5 -26z" />
    <glyph glyph-name="uni0E1A" unicode="&#xe1a;" horiz-adv-x="623" 
d="M311 -12q-126 0 -181.5 58t-55.5 168v334h127v-340q0 -117 110 -117q111 0 111 117v340h127v-334q0 -110 -56.5 -168t-181.5 -58z" />
    <glyph glyph-name="uni0E1B" unicode="&#xe1b;" horiz-adv-x="624" 
d="M311 -12q-126 0 -181.5 58t-55.5 168v334h127v-340q0 -117 110 -117q111 0 111 117v537h127v-531q0 -110 -56.5 -168t-181.5 -58z" />
    <glyph glyph-name="uni0E1C" unicode="&#xe1c;" horiz-adv-x="669" 
d="M79 0v435q0 48 17.5 74.5t46.5 37.5t66 11q22 0 42.5 -4.5t33.5 -11.5l-16 -86q-20 5 -32 5q-22 0 -30 -11t-8 -31v-116q0 -27 -1.5 -61.5t-5.5 -84.5h5q19 46 35 74.5t30 52.5l43 76h56l43 -76q22 -38 35.5 -65t29.5 -62h5q-4 50 -5.5 84.5t-1.5 61.5v245h120v-548h-119
l-133 235h-4l-133 -235h-119z" />
    <glyph glyph-name="uni0E1D" unicode="&#xe1d;" horiz-adv-x="671" 
d="M79 0v435q0 48 17.5 74.5t46.5 37.5t66 11q22 0 42.5 -4.5t33.5 -11.5l-16 -86q-20 5 -32 5q-22 0 -30 -11t-8 -31v-116q0 -27 -1.5 -61.5t-5.5 -84.5h5q19 46 35 74.5t30 52.5l43 76h56l43 -76q22 -38 35.5 -65t29.5 -62h5q-4 50 -5.5 84.5t-1.5 61.5v442h120v-745h-119
l-133 235h-4l-133 -235h-119z" />
    <glyph glyph-name="uni0E1E" unicode="&#xe1e;" horiz-adv-x="715" 
d="M131 0l-96 548h125l32 -210q3 -26 7.5 -69t10.5 -101h3q13 58 24 101t19 72l59 207h84l59 -207q8 -29 19 -72t25 -101h3q5 58 9 101t9 69l33 210h124l-96 -548h-124l-74 251q-10 34 -15.5 64.5t-10.5 68.5h-4q-6 -38 -12 -68t-17 -65l-74 -251h-122z" />
    <glyph glyph-name="uni0E1F" unicode="&#xe1f;" horiz-adv-x="704" 
d="M129 0l-94 548h125l29 -210q1 -11 4.5 -38t7 -62t6.5 -70h4q10 44 20.5 87.5t22.5 85.5l59 207h84l59 -207q11 -42 21.5 -85.5t21.5 -87.5h3q5 56 9.5 100t6.5 70l51 407h123l-110 -745h-125l-74 251q-9 32 -14.5 63.5t-11.5 69.5h-4q-6 -38 -12 -68t-16 -65l-75 -251
h-121z" />
    <glyph glyph-name="uni0E20" unicode="&#xe20;" horiz-adv-x="624" 
d="M104 -10q-49 0 -83 19l12 75q15 -5 29 -5q31 0 31 37v80q0 54 21.5 81t62.5 38l1 4l-111 40v29q0 46 27.5 85t81.5 63t132 24q71 0 125.5 -22t85.5 -67t31 -114v-357h-127v348q0 56 -32.5 82.5t-84.5 26.5t-80 -21.5t-29 -53.5l97 -45l-9 -59q-32 0 -49.5 -20.5
t-17.5 -65.5v-89q0 -64 -32.5 -88.5t-81.5 -24.5z" />
    <glyph glyph-name="uni0E21" unicode="&#xe21;" horiz-adv-x="634" 
d="M375 -10q-69 0 -113.5 26t-61.5 70h-7l-12 -86h-98v548h127v-283q0 -82 32.5 -124t92.5 -42q48 0 73 27t25 85v337h127v-360q0 -98 -48 -148t-137 -50z" />
    <glyph glyph-name="uni0E22" unicode="&#xe22;" horiz-adv-x="611" 
d="M298 -11q-86 0 -138.5 21t-75.5 59.5t-23 90.5q0 44 13.5 71.5t34.5 41t43 18.5v6q-22 7 -43 21t-35 38t-14 61q0 36 16.5 67.5t54.5 51.5t101 20q28 0 55.5 -4t43.5 -12l-20 -89q-10 3 -25 6t-30 3q-36 0 -52.5 -16.5t-16.5 -43.5q0 -28 14.5 -43t37.5 -20.5t48 -5.5h21
v-82h-21q-49 0 -73 -17.5t-24 -57.5q0 -22 9.5 -42t33 -32.5t67.5 -12.5q63 0 86.5 26.5t23.5 69.5v365h127v-360q0 -104 -57.5 -151.5t-181.5 -47.5z" />
    <glyph glyph-name="uni0E23" unicode="&#xe23;" horiz-adv-x="507" 
d="M249 -12q-59 0 -115 12.5t-98 33.5l36 101q31 -15 77 -30t97 -15q45 0 71 14.5t26 43.5t-29.5 46.5t-86.5 36.5t-97 41t-61 54t-21 80q0 74 57.5 114t163.5 40q53 0 97 -9t69 -23v-102q-26 12 -72 23.5t-91 11.5q-51 0 -74 -14.5t-23 -37.5q0 -27 31 -43t98 -38
q50 -18 87.5 -39.5t58 -53t20.5 -79.5q0 -44 -20.5 -82.5t-69 -62t-131.5 -23.5z" />
    <glyph glyph-name="uni0E24" unicode="&#xe24;" horiz-adv-x="616" 
d="M201 -10q-56 0 -92.5 27.5t-36.5 91.5v75q0 60 26 89t71 42l1 4l-111 40v29q0 46 28 85t82.5 63t131.5 24q71 0 125 -22t85 -67t31 -114v-565h-127v556q0 56 -32 82.5t-85 26.5q-52 0 -80 -21.5t-29 -53.5l98 -46l-10 -58q-37 -1 -58.5 -16.5t-21.5 -60.5v-78
q0 -41 40 -41q21 0 36 6l14 -80q-19 -10 -41 -14t-45 -4z" />
    <glyph glyph-name="uni0E25" unicode="&#xe25;" horiz-adv-x="588" 
d="M223 -10q-87 0 -133.5 41t-46.5 115q0 82 58.5 128.5t187.5 55.5l101 7v22q0 55 -27.5 78.5t-87.5 23.5q-51 0 -99 -14.5t-86 -37.5v109q28 14 80 28t119 14q69 0 119.5 -19.5t78 -64t27.5 -118.5v-358h-124v242l-86 -7q-76 -7 -105 -27.5t-29 -57.5q0 -35 22.5 -52.5
t61.5 -17.5q14 0 27 2.5t23 5.5l14 -83q-20 -7 -44.5 -11t-50.5 -4z" />
    <glyph glyph-name="uni0E26" unicode="&#xe26;" horiz-adv-x="624" 
d="M104 -10q-49 0 -83 19l12 75q15 -5 29 -5q31 0 31 37v80q0 54 21.5 81t62.5 38l1 4l-111 40v29q0 46 27.5 85t81.5 63t132 24q71 0 125.5 -22t85.5 -67t31 -114v-565h-127v556q0 56 -32.5 82.5t-84.5 26.5t-80 -21.5t-29 -53.5l97 -45l-9 -59q-32 0 -49.5 -20.5
t-17.5 -65.5v-89q0 -64 -32.5 -88.5t-81.5 -24.5z" />
    <glyph glyph-name="uni0E27" unicode="&#xe27;" horiz-adv-x="506" 
d="M207 -12q-93 0 -170 42l35 93q22 -13 52 -22.5t63 -9.5q62 0 98.5 47t36.5 139q0 88 -37 134t-113 46q-33 0 -67 -8.5t-58 -22.5v105q61 29 145 29q137 0 198 -76t61 -207q0 -139 -62.5 -214t-181.5 -75z" />
    <glyph glyph-name="uni0E28" unicode="&#xe28;" horiz-adv-x="647" 
d="M74 0v334q0 110 58 168t186 58q41 0 75.5 -7.5t58.5 -25.5q17 9 27.5 23.5t10.5 33.5h115q0 -38 -20.5 -69.5t-60.5 -50.5q19 -22 27.5 -55.5t8.5 -74.5v-334h-126v336q0 58 -28.5 89.5t-87.5 31.5q-61 0 -89 -31.5t-28 -89.5v-96l3 -1q20 39 48.5 51.5t78.5 12.5h28v-98
h-28q-53 0 -81.5 -17t-38.5 -44.5t-10 -61.5v-82h-127z" />
    <glyph glyph-name="uni0E29" unicode="&#xe29;" horiz-adv-x="662" 
d="M320 -12q-133 0 -189.5 59t-56.5 170v331h127v-337q0 -61 28 -91t92 -30q62 0 89.5 29t27.5 92v10h-56q-46 0 -71.5 14.5t-36.5 37t-11 46.5q0 17 5 35.5t13 30.5l83 -16q-6 -12 -6 -29q0 -14 8 -23.5t24 -9.5h48v241h126v-241h61v-86h-61v-4q0 -111 -56.5 -170
t-187.5 -59z" />
    <glyph glyph-name="uni0E2A" unicode="&#xe2a;" horiz-adv-x="591" 
d="M223 -10q-87 0 -133.5 41t-46.5 115q0 82 58.5 128.5t187.5 55.5l101 7v22q0 55 -27.5 78.5t-87.5 23.5q-51 0 -99 -14.5t-86 -37.5v109q28 14 80 28t119 14q38 0 69.5 -6.5t54.5 -22.5q14 10 22 23t8 30h115q0 -36 -18.5 -66t-54.5 -50q15 -19 22 -47t7 -63v-358h-124
v242l-86 -7q-76 -7 -105 -27.5t-29 -57.5q0 -35 22.5 -52.5t61.5 -17.5q14 0 27 2.5t23 5.5l14 -83q-20 -7 -44.5 -11t-50.5 -4z" />
    <glyph glyph-name="uni0E2B" unicode="&#xe2b;" horiz-adv-x="609" 
d="M83 0v548h126v-217h3l192 217h142v-4l-151 -162q75 -9 113.5 -58.5t38.5 -122.5v-201h-127v186q0 98 -107 108l-104 -112v-182h-126z" />
    <glyph glyph-name="uni0E2C" unicode="&#xe2c;" horiz-adv-x="694" 
d="M117 0l-82 548h126l28 -237q3 -27 7 -69.5t5 -97.5h3q14 50 25.5 84t24.5 69l53 147h78l53 -147q12 -33 24 -68t25 -85h5q1 42 4.5 86t9.5 80l17 98q10 62 -14 88.5t-83 26.5h-56v86h80q70 0 95 27.5t25 72.5v5h123v-5q0 -56 -25 -97.5t-84 -51.5v-4q29 -12 43.5 -34.5
t18.5 -49.5t0 -52l-69 -420h-130l-60 182q-13 38 -22 70.5t-18 81.5h-4q-9 -51 -18 -84.5t-21 -68.5l-62 -181h-125z" />
    <glyph glyph-name="uni0E2D" unicode="&#xe2d;" horiz-adv-x="586" 
d="M283 -12q-117 0 -173.5 58t-56.5 177q0 20 1.5 46.5t3.5 49.5h229v-86h-109v-16q0 -73 26 -103t78 -30q38 0 65 16t41.5 55.5t14.5 110.5q0 97 -33.5 144t-119.5 47q-46 0 -92.5 -13.5t-80.5 -32.5v109q31 16 84.5 28t109.5 12q94 0 151.5 -35.5t84 -100.5t26.5 -153
q0 -135 -58 -209t-192 -74z" />
    <glyph glyph-name="uni0E2E" unicode="&#xe2e;" horiz-adv-x="582" 
d="M282 -12q-229 0 -229 235q0 20 1.5 46.5t3.5 49.5h229v-86h-109v-16q0 -73 26 -103t78 -30q37 0 64 16t42 55t15 109q0 100 -34.5 146.5t-117.5 46.5q-48 0 -93.5 -13t-81.5 -33v109q32 16 85 28t109 12q39 0 72.5 -8t60.5 -26q18 10 28.5 24t10.5 34h115
q0 -39 -21 -70.5t-62 -50.5q31 -31 45 -81.5t14 -115.5q0 -130 -58 -204t-193 -74z" />
    <glyph glyph-name="uni0E2F" unicode="&#xe2f;" horiz-adv-x="534" 
d="M323 0v255q-42 -40 -122 -40q-52 0 -94 19.5t-67 59.5t-25 100q0 76 42.5 120t118.5 44q14 0 32.5 -2t38.5 -10l-11 -84q-11 3 -19.5 4t-13.5 1q-28 0 -47.5 -17.5t-19.5 -55.5t23.5 -59.5t67.5 -21.5q49 0 72.5 25.5t23.5 81.5v128h127v-548h-127z" />
    <glyph glyph-name="uni0E30" unicode="&#xe30;" horiz-adv-x="350" 
d="M160 331q-67 0 -93.5 29t-26.5 66q0 36 18 67l96 -13q-5 -15 -5 -32q0 -14 7.5 -21.5t26.5 -7.5h125v-88h-148zM160 51q-67 0 -93.5 29t-26.5 66q0 36 18 67l96 -13q-5 -15 -5 -32q0 -14 7.5 -21.5t26.5 -7.5h125v-88h-148z" />
    <glyph glyph-name="uni0E31" unicode="&#xe31;" 
d="M-222 628q-68 0 -94 28t-26 63q0 16 4.5 34.5t13.5 33.5l96 -14q-5 -12 -5 -29q0 -14 8.5 -22t27.5 -8h230v-86h-255z" />
    <glyph glyph-name="uni0E32" unicode="&#xe32;" horiz-adv-x="424" 
d="M223 0v372q0 45 -21 65.5t-68 20.5q-34 0 -63 -9.5t-55 -23.5v105q21 10 60.5 20t91.5 10q54 0 95 -15.5t64 -52t23 -98.5v-394h-127z" />
    <glyph glyph-name="uni0E33" unicode="&#xe33;" horiz-adv-x="424" 
d="M223 0v372q0 45 -21 65.5t-68 20.5q-34 0 -63 -9.5t-55 -23.5v105q21 10 60.5 20t91.5 10q54 0 95 -15.5t64 -52t23 -98.5v-394h-127zM-173 605q-55 0 -87 25t-32 71t32 71t87 25t87.5 -25t32.5 -71t-32.5 -71t-87.5 -25zM-173 659q23 0 35 11.5t12 30.5t-12 30.5
t-35 11.5q-22 0 -34 -11.5t-12 -30.5t12 -30.5t34 -11.5z" />
    <glyph glyph-name="uni0E34" unicode="&#xe34;" 
d="M-528 628v54l90 38h355v-92h-445z" />
    <glyph glyph-name="uni0E35" unicode="&#xe35;" 
d="M-528 628v54l90 38h244v74h112v-113h-1v-53h-445z" />
    <glyph glyph-name="uni0E36" unicode="&#xe36;" 
d="M-528 628v54l90 38h177v2q0 37 25.5 61t71.5 24q47 0 73.5 -25.5t26.5 -64.5q0 -38 -24 -63.5t-73 -25.5h-367zM-163 677q20 0 31 11.5t11 27.5q0 17 -11.5 28.5t-31.5 11.5t-31 -11t-11 -28t10.5 -28.5t32.5 -11.5z" />
    <glyph glyph-name="uni0E37" unicode="&#xe37;" 
d="M-528 628v54l91 38h118v74h87v-74h64v74h86v-166h-446z" />
    <glyph glyph-name="uni0E38" unicode="&#xe38;" 
d="M-193 -261v95q0 25 -22 25q-5 0 -10 -1.5t-10 -2.5l-7 68q14 5 36 9t42 4q44 0 62.5 -18.5t18.5 -50.5v-128h-110z" />
    <glyph glyph-name="uni0E39" unicode="&#xe39;" 
d="M-228 -265q-74 0 -109.5 24.5t-35.5 66.5v17q0 17 -9 20.5t-24 -0.5l-6 65q14 4 32.5 6t30.5 2q41 0 59 -16t18 -45v-27q0 -18 9 -29t32 -11q25 0 34 11t9 29v85h106v-97q0 -50 -35.5 -75.5t-110.5 -25.5z" />
    <glyph glyph-name="uni0E3A" unicode="&#xe3a;" 
d="M-146 -203q-36 0 -56 18.5t-20 53.5t20 53.5t56 18.5q35 0 55 -18.5t20 -53.5t-20 -53.5t-55 -18.5z" />
    <glyph glyph-name="uni0E3F" unicode="&#xe3f;" horiz-adv-x="582" 
d="M72 36v642h172v82h67v-83q102 -6 151.5 -44.5t49.5 -113.5q0 -57 -32.5 -95t-90.5 -47v-5q60 -10 100.5 -45t40.5 -108q0 -87 -60 -135t-159 -48v-95h-67v95h-172zM172 417h72v164h-72v-164zM402 502q0 69 -91 78v-162q51 4 71 26.5t20 57.5zM172 134h72v188h-72v-188z
M418 231q0 36 -24 61.5t-83 28.5v-187q59 3 83 29.5t24 67.5z" />
    <glyph glyph-name="uni0E40" unicode="&#xe40;" horiz-adv-x="324" 
d="M217 -10q-58 0 -93 27.5t-35 91.5v439h127v-423q0 -40 38 -40q16 0 35 7l14 -84q-19 -10 -41 -14t-45 -4z" />
    <glyph glyph-name="uni0E41" unicode="&#xe41;" horiz-adv-x="614" 
d="M217 -10q-58 0 -93 27.5t-35 91.5v439h127v-423q0 -40 38 -40q16 0 35 7l14 -84q-19 -10 -41 -14t-45 -4zM507 -10q-58 0 -93 27.5t-35 91.5v439h127v-423q0 -40 38 -40q16 0 35 7l14 -84q-19 -10 -41 -14t-45 -4z" />
    <glyph glyph-name="uni0E42" unicode="&#xe42;" horiz-adv-x="334" 
d="M234 -10q-58 0 -93 27.5t-35 91.5v514q0 60 -24.5 86t-68.5 26v52l91 42h260v-94h-181l-1 -4q24 -15 37.5 -45.5t13.5 -79.5v-481q0 -40 38 -40q16 0 35 7l14 -84q-20 -10 -41.5 -14t-44.5 -4z" />
    <glyph glyph-name="uni0E43" unicode="&#xe43;" horiz-adv-x="320" 
d="M213 -10q-58 0 -93 27.5t-35 91.5v378q0 27 4 44t14.5 33t30.5 40q22 26 35 44t13 41q0 53 -70 53q-28 0 -51 -8t-40 -18v98q13 8 47.5 17.5t81.5 9.5q74 0 118 -31.5t44 -96.5q0 -40 -15.5 -70t-33.5 -53q-17 -22 -28.5 -36.5t-17 -30t-5.5 -39.5v-359q0 -40 37 -40
q10 0 19.5 2t17.5 5l13 -84q-19 -10 -41 -14t-45 -4z" />
    <glyph glyph-name="uni0E44" unicode="&#xe44;" horiz-adv-x="331" 
d="M235 -10q-58 0 -93 27.5t-35 91.5v497q0 56 15.5 83t35.5 42l-1 4h-162l26 94h305v-94q-38 0 -65 -24t-27 -88v-498q0 -40 38 -40q16 0 35 7l14 -84q-19 -10 -41 -14t-45 -4z" />
    <glyph glyph-name="uni0E45" unicode="&#xe45;" horiz-adv-x="424" 
d="M223 -207v579q0 45 -21 65.5t-68 20.5q-34 0 -63 -9.5t-55 -23.5v105q21 10 60.5 20t91.5 10q54 0 95 -15.5t64 -52t23 -98.5v-601h-127z" />
    <glyph glyph-name="uni0E46" unicode="&#xe46;" horiz-adv-x="621" 
d="M421 -208v623q0 51 -40 51t-40 -51v-36h-72v36q0 51 -41 51q-22 0 -32.5 -19t-10.5 -65q0 -50 13 -69t39 -19q19 0 34 7l23 -84q-16 -9 -36 -15.5t-46 -6.5q-70 0 -107.5 47t-37.5 138q0 98 38.5 139t101.5 41q36 0 63.5 -12.5t40.5 -39.5h3q13 27 40.5 39.5t65.5 12.5
q35 0 64 -12t46 -42t17 -84v-630h-126z" />
    <glyph glyph-name="uni0E47" unicode="&#xe47;" 
d="M-198 617q-60 0 -83 45l-50 -42q-61 0 -97.5 30t-36.5 86q0 59 36.5 88t83.5 29h244v-68h-223q-21 0 -35.5 -13t-14.5 -39q0 -19 9.5 -31.5t29.5 -12.5l50 45h20q3 -20 14 -34t30 -14q17 0 25.5 10t8.5 27v14h87v-18q0 -52 -26.5 -77t-71.5 -25z" />
    <glyph glyph-name="uni0E48" unicode="&#xe48;" 
d="M-206 628v221h119v-221h-119z" />
    <glyph glyph-name="uni0E49" unicode="&#xe49;" 
d="M-376 628v47q16 4 34.5 11t32 19.5t13.5 30.5q0 30 -29 30q-9 0 -18.5 -3.5t-16.5 -6.5l-20 62q20 16 47.5 22t46.5 6q43 0 67 -22t24 -60q0 -28 -17 -50h156v-86h-320z" />
    <glyph glyph-name="uni0E4A" unicode="&#xe4a;" 
d="M-331 623q-52 0 -80.5 29.5t-28.5 78.5q0 51 29 80t79 33l60 -37l55 37q63 -4 88 -30t25 -61q0 -25 -12 -44h81v-81h-195v56q13 5 23 15.5t10 29.5q0 20 -10.5 29.5t-20.5 10.5l-41 -24h-5l-41 24q-10 -1 -19 -10t-9 -29q0 -42 36 -42q5 0 10 0.5t11 2.5l10 -57
q-8 -5 -23 -8t-32 -3z" />
    <glyph glyph-name="uni0E4B" unicode="&#xe4b;" 
d="M-249 628v71h-73v78h73v72h103v-72h72v-78h-72v-71h-103z" />
    <glyph glyph-name="uni0E4C" unicode="&#xe4c;" 
d="M-260 604q-8 13 -13 33t-5 40q0 38 23.5 66t90.5 28h142v-89h-103q-19 0 -30 -7t-11 -24q0 -15 8 -31z" />
    <glyph glyph-name="uni0E4D" unicode="&#xe4d;" 
d="M-173 605q-55 0 -87 25t-32 71t32 71t87 25t87.5 -25t32.5 -71t-32.5 -71t-87.5 -25zM-173 659q23 0 35 11.5t12 30.5t-12 30.5t-35 11.5q-22 0 -34 -11.5t-12 -30.5t12 -30.5t34 -11.5z" />
    <glyph glyph-name="uni0E4E" unicode="&#xe4e;" 
d="M-267 604q-6 10 -10.5 24.5t-4.5 29.5q0 37 24 55t58 18q18 0 31 -5q-2 8 -2 17q0 34 26 50t59 16q13 0 29.5 -2.5t29.5 -8.5v-61q-8 3 -17.5 4.5t-17.5 1.5q-42 0 -42 -35q0 -5 1.5 -12t5.5 -13l-34 -23q-8 7 -17.5 8.5t-14.5 1.5q-17 0 -25 -8.5t-8 -20.5q0 -6 2 -11.5
t5 -12.5z" />
    <glyph glyph-name="uni0E4F" unicode="&#xe4f;" horiz-adv-x="626" 
d="M313 -12q-130 0 -191.5 64.5t-61.5 175.5q0 116 61.5 177.5t191.5 61.5t192 -61.5t62 -177.5q0 -111 -62 -175.5t-192 -64.5zM312 67q77 0 115.5 42t38.5 119q0 82 -38.5 121t-115.5 39q-78 0 -115.5 -39t-37.5 -121q0 -77 37.5 -119t115.5 -42zM312 123q-50 0 -73.5 29
t-23.5 76q0 51 23.5 77.5t73.5 26.5t73.5 -26.5t23.5 -77.5q0 -47 -23.5 -76t-73.5 -29z" />
    <glyph glyph-name="uni0E50" unicode="&#xe50;" horiz-adv-x="568" 
d="M284 -12q-113 0 -173 64.5t-60 175.5q0 116 60 177.5t173 61.5t173 -61.5t60 -177.5q0 -111 -60 -175.5t-173 -64.5zM284 86q109 0 109 142q0 74 -28 107.5t-81 33.5q-54 0 -81.5 -33.5t-27.5 -107.5q0 -142 109 -142z" />
    <glyph glyph-name="uni0E51" unicode="&#xe51;" horiz-adv-x="538" 
d="M261 -12q-23 0 -45 3.5t-38 8.5v88q19 -8 55 -8q67 0 98.5 39t31.5 118q0 75 -27 104.5t-80 29.5q-46 0 -70.5 -19.5t-24.5 -59.5q0 -32 15 -49t39 -17q12 0 24 5l19 -82q-12 -11 -33 -16.5t-43 -5.5q-64 0 -100 43.5t-36 117.5q0 177 209 177q124 0 178 -61t54 -168
q0 -72 -23 -128t-72.5 -88t-130.5 -32z" />
    <glyph glyph-name="uni0E52" unicode="&#xe52;" horiz-adv-x="632" 
d="M322 -12q-140 0 -203.5 61t-63.5 167v368h121v-359q0 -61 32.5 -100.5t115.5 -39.5q55 0 85 18t41.5 50.5t11.5 74.5v109q0 44 -25 44q-16 0 -21.5 -12.5t-6.5 -33.5h-44q-1 22 -7 34t-22 12q-26 0 -26 -56q0 -25 7 -40.5t27 -15.5q5 0 12.5 1.5t14.5 5.5l20 -69
q-26 -17 -59 -17q-58 0 -88 38t-30 103q0 61 25 96t75 35q26 0 46.5 -10.5t30.5 -35.5h3q10 24 31 35t49 11q41 0 72 -25t31 -89v-131q0 -71 -24.5 -122.5t-80.5 -79t-150 -27.5z" />
    <glyph glyph-name="uni0E53" unicode="&#xe53;" horiz-adv-x="563" 
d="M257 315q-3 31 -13 41t-22 10q-48 0 -48 -128q0 -77 16 -116t54 -39q6 0 14 1t16 5l15 -87q-14 -4 -36.5 -8t-44.5 -4q-57 0 -91.5 31.5t-50 87t-15.5 127.5q0 118 36 173.5t106 55.5q28 0 51.5 -11t38.5 -42h4q10 31 37.5 42t59.5 11q58 0 89 -32.5t31 -101.5v-331h-121
v317q0 31 -11 40t-24 9q-16 0 -25.5 -10.5t-12.5 -40.5h-53z" />
    <glyph glyph-name="uni0E54" unicode="&#xe54;" horiz-adv-x="538" 
d="M257 0q-104 0 -155 54t-51 169q0 64 18.5 118t60.5 86.5t114 32.5h38q50 0 66 17t16 59v48h113v-70q0 -71 -35 -109t-114 -38h-39q-64 0 -89.5 -39t-25.5 -108q0 -68 23 -97.5t74 -29.5h37q-21 29 -21 79q0 119 115 119q42 0 68 -15l-21 -70q-5 2 -11 2.5t-10 0.5
q-38 0 -38 -54q0 -64 61 -64h37v-91h-231z" />
    <glyph glyph-name="uni0E55" unicode="&#xe55;" horiz-adv-x="549" 
d="M262 0q-110 0 -160.5 55t-50.5 170q0 91 32 147.5t95 73.5q-14 10 -23 26.5t-9 38.5q0 37 27 61t74 24q49 0 74.5 -24.5t25.5 -61.5q0 -17 -5.5 -30.5t-13.5 -23.5q40 5 51 25t11 68v35h100v-70q0 -71 -37.5 -109t-116.5 -38h-41q-68 0 -94.5 -39t-26.5 -108
q0 -68 23.5 -97.5t76.5 -29.5h38q-21 31 -21 79q0 118 115 118q43 0 69 -14l-21 -71q-5 2 -11.5 3t-10.5 1q-18 0 -28 -14.5t-10 -39.5q0 -64 61 -64h37v-91h-230zM248 468q18 0 28 11t10 27q0 14 -10 25t-28 11q-19 0 -28 -11t-9 -25q0 -16 9 -27t28 -11z" />
    <glyph glyph-name="uni0E56" unicode="&#xe56;" horiz-adv-x="524" 
d="M254 -12q-60 0 -108 20t-79 67l80 65q20 -26 43 -41.5t58 -15.5q55 0 78 37t23 108q0 76 -23.5 109t-70.5 33q-35 0 -58 -17t-24 -50h-88l-64 281h107l37 -162q19 22 48 32.5t66 10.5q101 0 147.5 -64.5t46.5 -172.5q0 -115 -53.5 -177.5t-165.5 -62.5z" />
    <glyph glyph-name="uni0E57" unicode="&#xe57;" horiz-adv-x="739" 
d="M251 315q-3 29 -11 40t-21 11q-26 0 -35.5 -31t-9.5 -93q0 -82 16 -120.5t53 -38.5q7 0 15 1t16 5l15 -87q-14 -4 -34.5 -8t-41.5 -4q-60 0 -95.5 30.5t-51 87t-15.5 132.5q0 124 36 174.5t102 50.5q29 0 50.5 -11t35.5 -42h3q13 32 40.5 42.5t55.5 10.5q50 0 78.5 -26.5
t28.5 -84.5v-263q38 0 58.5 21.5t20.5 83.5v388h118v-381q0 -60 -18.5 -99.5t-49.5 -62t-68 -32t-74 -9.5h-101v320q0 26 -8.5 36t-22.5 10q-18 0 -25.5 -11.5t-10.5 -39.5h-49z" />
    <glyph glyph-name="uni0E58" unicode="&#xe58;" horiz-adv-x="566" 
d="M382 -12q-42 0 -70 17.5t-38 54.5l-55 -68q-78 0 -123 56t-45 171q0 67 18.5 121.5t62.5 87t122 32.5h40q47 0 61.5 16t14.5 58v50h118v-70q0 -71 -35 -109t-114 -38h-63q-58 0 -83 -38t-25 -103q0 -64 18.5 -91t38.5 -31l45 56h43q0 -38 12.5 -54t36.5 -16q52 0 52 61
q0 29 -12 45.5t-22 25.5l70 65q38 -23 54.5 -59.5t16.5 -83.5q0 -74 -37.5 -115t-101.5 -41z" />
    <glyph glyph-name="uni0E59" unicode="&#xe59;" horiz-adv-x="532" 
d="M211 -10q-88 0 -124 67t-36 181q0 123 38.5 175t116.5 52q63 0 92 -42q8 19 24.5 30.5t40.5 11.5h6q20 0 28.5 10.5t8.5 34.5v74h109v-88q0 -52 -22 -81.5t-67 -29.5h-15q-29 0 -40 -17t3 -53l120 -315h-116l-119 335q-7 19 -14 28t-22 9q-14 0 -25 -11t-17.5 -40
t-6.5 -83q0 -76 16 -115.5t54 -39.5q6 0 14 1t16 5l15 -87q-14 -5 -36 -8.5t-42 -3.5z" />
    <glyph glyph-name="uni0E5A" unicode="&#xe5a;" horiz-adv-x="804" 
d="M323 0v258q-21 -22 -52 -32.5t-69 -10.5q-53 0 -95.5 19.5t-67 59.5t-24.5 100q0 76 42.5 120t118.5 44q14 0 32.5 -2t38.5 -10l-11 -84q-11 3 -19.5 4t-12.5 1q-28 0 -48 -17.5t-20 -55.5t23 -59.5t70 -21.5q94 0 94 102v133h127v-224q19 -8 42 -8q46 0 73.5 28.5
t27.5 82.5v121h127v-548h-127v266q-19 -22 -45.5 -33t-55.5 -11q-22 0 -42 6v-228h-127z" />
    <glyph glyph-name="uni0E5B" unicode="&#xe5b;" horiz-adv-x="893" 
d="M243 70q-95 0 -144 51t-49 141q0 70 36 117t118 47q69 0 104.5 -31t35.5 -87q0 -25 -6.5 -46.5t-16.5 -38.5l-79 30q4 7 7.5 18t3.5 22q0 23 -12.5 34t-32.5 11q-26 0 -36.5 -22t-10.5 -50q0 -57 27 -80.5t71 -23.5q73 0 103 51.5t27 133.5h79l46 -120l28 111h65l36 -99
l27 85h57l6 -17q7 -23 14 -42t20 -30t40 -11q11 0 18.5 2t12.5 4v-81q-9 -5 -19.5 -8.5t-26.5 -3.5q-70 0 -103 82l-19 -87h-55l-37 112l-29 -122h-66l-35 106q-9 -35 -31 -71.5t-63.5 -61.5t-110.5 -25z" />
    <glyph glyph-name="uni200B" unicode="&#x200b;" 
 />
    <glyph glyph-name="uni200C" unicode="&#x200c;" 
d="M-21 -133v761h42v-761h-42z" />
    <glyph glyph-name="uni200D" unicode="&#x200d;" 
d="M-21 -133v668l-62 -62l-26 27l82 82l-82 81l26 27l83 -83l83 83l26 -27l-82 -81l82 -82l-26 -27l-62 62v-668h-42z" />
    <glyph glyph-name="uni2010" unicode="&#x2010;" horiz-adv-x="322" 
d="M34 215v106h254v-106h-254z" />
    <glyph glyph-name="uni25CC" unicode="&#x25cc;" horiz-adv-x="594" 
d="M297 488q-11 0 -18.5 8t-7.5 18t7.5 18t18.5 8t18.5 -8t7.5 -18t-7.5 -18t-18.5 -8zM213 470q-11 0 -18.5 8t-7.5 18t7.5 18t18.5 8t18.5 -8t7.5 -18t-7.5 -18t-18.5 -8zM381 470q-11 0 -18.5 8t-7.5 18t7.5 18t18.5 8t18.5 -8t7.5 -18t-7.5 -18t-18.5 -8zM455 423
q-11 0 -18.5 7.5t-7.5 18.5t7.5 18.5t18.5 7.5t18.5 -7.5t7.5 -18.5t-7.5 -18.5t-18.5 -7.5zM139 423q-11 0 -18.5 7.5t-7.5 18.5t7.5 18.5t18.5 7.5t18.5 -7.5t7.5 -18.5t-7.5 -18.5t-18.5 -7.5zM92 349q-10 0 -18 7.5t-8 18.5t8 18.5t18 7.5t18 -7.5t8 -18.5t-8 -18.5
t-18 -7.5zM502 349q-10 0 -18 7.5t-8 18.5t8 18.5t18 7.5t18 -7.5t8 -18.5t-8 -18.5t-18 -7.5zM74 265q-10 0 -18 7.5t-8 18.5t8 18.5t18 7.5t18 -7.5t8 -18.5t-8 -18.5t-18 -7.5zM520 265q-10 0 -18 7.5t-8 18.5t8 18.5t18 7.5t18 -7.5t8 -18.5t-8 -18.5t-18 -7.5zM92 181
q-10 0 -18 7.5t-8 18.5t8 18.5t18 7.5t18 -7.5t8 -18.5t-8 -18.5t-18 -7.5zM502 181q-10 0 -18 7.5t-8 18.5t8 18.5t18 7.5t18 -7.5t8 -18.5t-8 -18.5t-18 -7.5zM139 107q-11 0 -18.5 7.5t-7.5 18.5t7.5 18.5t18.5 7.5t18.5 -7.5t7.5 -18.5t-7.5 -18.5t-18.5 -7.5zM455 107
q-11 0 -18.5 7.5t-7.5 18.5t7.5 18.5t18.5 7.5t18.5 -7.5t7.5 -18.5t-7.5 -18.5t-18.5 -7.5zM213 60q-11 0 -18.5 8t-7.5 18t7.5 18t18.5 8t18.5 -8t7.5 -18t-7.5 -18t-18.5 -8zM381 60q-11 0 -18.5 8t-7.5 18t7.5 18t18.5 8t18.5 -8t7.5 -18t-7.5 -18t-18.5 -8zM297 42
q-11 0 -18.5 8t-7.5 18t7.5 18t18.5 8t18.5 -8t7.5 -18t-7.5 -18t-18.5 -8z" />
    <glyph glyph-name="saraUu-thai.small" horiz-adv-x="600" 
d="M94 0v714h411v-714h-411zM145 51h309v612h-309v-612z" />
    <glyph glyph-name="uni0E24.aalt" horiz-adv-x="616" 
d="M201 -10q-56 0 -92.5 27.5t-36.5 91.5v75q0 60 26 89t71 42l1 4l-111 40v29q0 46 28 85t82.5 63t131.5 24q71 0 125 -22t85 -67t31 -114v-531h-127v522q0 56 -32 82.5t-85 26.5q-52 0 -80 -21.5t-29 -53.5l98 -46l-10 -58q-37 -1 -58.5 -16.5t-21.5 -60.5v-78
q0 -41 40 -41q21 0 36 6l14 -80q-19 -10 -41 -14t-45 -4z" />
    <glyph glyph-name="uni0E26.aalt" horiz-adv-x="624" 
d="M104 -10q-49 0 -83 19l12 75q15 -5 29 -5q31 0 31 37v80q0 54 21.5 81t62.5 38l1 4l-111 40v29q0 46 27.5 85t81.5 63t132 24q71 0 125.5 -22t85.5 -67t31 -114v-531h-127v522q0 56 -32.5 82.5t-84.5 26.5t-80 -21.5t-29 -53.5l97 -45l-9 -59q-32 0 -49.5 -20.5
t-17.5 -65.5v-89q0 -64 -32.5 -88.5t-81.5 -24.5z" />
    <glyph glyph-name="doChada-thai.short" horiz-adv-x="624" 
d="M96 -175v17q0 68 42 103.5t119 35.5q51 0 94 -14.5t72 -36.5v418q0 56 -32.5 82.5t-84.5 26.5t-80 -21.5t-29 -53.5l97 -45l-9 -59q-32 0 -49.5 -20.5t-17.5 -65.5v-86q0 -63 -32.5 -87.5t-81.5 -24.5q-25 0 -45.5 5t-37.5 13l12 76q15 -5 29 -5q31 0 31 37v76
q0 54 21.5 81t62.5 38l1 4l-111 40v29q0 46 27.5 85t81.5 63t132 24q71 0 125.5 -22t85.5 -67t31 -114v-532h-107q-23 28 -67.5 46t-85.5 18q-38 0 -55 -15.5t-17 -38.5v-10h-122z" />
    <glyph glyph-name="toPatak-thai.short" horiz-adv-x="624" 
d="M67 -175v31q0 64 36.5 90.5t85.5 26.5q43 0 70 -16.5t44 -45.5l60 53l60 -44v428q0 56 -32.5 82.5t-84.5 26.5t-80 -21.5t-29 -53.5l97 -45l-9 -59q-32 0 -49.5 -20.5t-17.5 -65.5v-86q0 -63 -32.5 -87.5t-81.5 -24.5q-25 0 -45.5 5t-37.5 13l12 76q15 -5 29 -5
q31 0 31 37v76q0 54 21.5 81t62.5 38l1 4l-111 40v29q0 46 27.5 85t81.5 63t132 24q71 0 125.5 -22t85.5 -67t31 -114v-532h-109l-71 54l-54 -54h-31q-11 23 -27.5 40.5t-41.5 17.5t-34 -16.5t-9 -33.5v-8h-106z" />
    <glyph glyph-name="yoYing-thai.less" horiz-adv-x="904" 
d="M611 -12q-113 0 -166 52t-53 163v151q0 59 -30 81.5t-73 22.5q-45 0 -71.5 -19t-28.5 -56l98 -46l-10 -59q-37 0 -58.5 -19t-21.5 -65v-71q0 -41 40 -41q21 0 36 6l14 -80q-19 -10 -41 -14t-45 -4q-56 0 -92.5 27.5t-36.5 91.5v77q0 60 26 88t71 41l1 4l-111 40v29
q0 48 27.5 87t78.5 62t124 23q64 0 115.5 -20t82 -63t30.5 -111v-171q0 -56 25 -80t68 -24t68 24t25 80v353h127v-345q0 -111 -53 -163t-166 -52z" />
    <glyph glyph-name="thoThan-thai.less" horiz-adv-x="563" 
d="M127 0v235h-64v84h180v-221h9q56 0 86 42.5t30 134.5q0 100 -38 141.5t-120 41.5q-51 0 -93.5 -14t-78.5 -36v109q32 18 82 30.5t113 12.5q45 0 81.5 -8.5t61.5 -27.5q19 10 31 24.5t12 35.5h115q0 -41 -23.5 -74t-69.5 -51q56 -57 56 -186q0 -131 -59.5 -202t-199.5 -71
h-111z" />
    <glyph glyph-name="loChula-thai.short" horiz-adv-x="686" 
d="M103 0l-68 548h130l24 -233q5 -46 7 -91t3 -100h4q8 33 21 71.5t32 90.5l42 114h81l45 -113q12 -31 27 -75t29 -94h5q4 56 9 95t11 79l10 65q6 41 -6.5 62.5t-54.5 21.5h-55v82h85q39 0 50 15.5t14 45.5h123q0 -43 -22 -74.5t-75 -38.5v-4q40 -13 51.5 -44.5t5.5 -68.5
l-57 -354h-133l-60 168q-12 34 -21.5 66t-17.5 67h-4q-8 -35 -17.5 -67t-21.5 -66l-62 -168h-134z" />
    <glyph glyph-name="macronbelowcomb.alt" 
d="M-120 -76v-91h-599v91h599z" />
    <glyph glyph-name="uni0E31.aalt" 
d="M-412 628q-68 0 -94.5 28t-26.5 63t18 68l96 -14q-2 -5 -3 -13.5t-1 -15.5q0 -14 8.5 -22t27.5 -8h135v-86h-160z" />
    <glyph glyph-name="glyph99" 
d="M-195 849v177h113v-177h-113z" />
    <glyph glyph-name="glyph100" 
d="M-389 628v221h119v-221h-119z" />
    <glyph glyph-name="glyph102" 
d="M-264 849v39q12 3 26.5 8.5t25.5 15.5t11 25q0 24 -23 24q-16 0 -31 -10l-18 54q18 13 43.5 17t41.5 4q34 0 56.5 -14.5t22.5 -48.5q0 -8 -2 -17.5t-7 -18.5h121v-78h-267z" />
    <glyph glyph-name="glyph103" 
d="M-518 628v47q15 4 33 11t31 19.5t13 30.5q0 30 -29 30q-9 0 -18.5 -3.5t-16.5 -6.5l-20 62q21 16 48 22t47 6q43 0 67 -21.5t24 -61.5q0 -13 -4 -25.5t-14 -23.5h105v-86h-266z" />
    <glyph glyph-name="glyph105" 
d="M-226 845q-46 0 -68 26.5t-22 62.5q0 38 25 65t78 27l48 -35l44 35q42 0 71.5 -16.5t29.5 -52.5q0 -24 -10 -39h72v-69h-171v49q13 2 22 11.5t9 23.5q0 13 -7.5 21.5t-18.5 10.5l-39 -26h-5l-40 26q-12 -1 -19.5 -10t-7.5 -22q0 -31 31 -31q10 0 18 3l7 -50
q-15 -10 -47 -10z" />
    <glyph glyph-name="glyph106" 
d="M-487 623q-49 0 -76 29.5t-27 78.5q0 52 27 80.5t73 32.5l50 -37l47 37q56 -4 80.5 -29t24.5 -62q0 -25 -11 -46h59v-79h-165v56q14 5 23.5 15.5t9.5 29.5q0 20 -10 30.5t-21 12.5l-34 -25h-5l-33 25q-11 -2 -21 -13t-10 -29q0 -16 9 -29t28 -13q5 0 10.5 0.5t12.5 2.5
l9 -57q-7 -5 -21 -8t-29 -3z" />
    <glyph glyph-name="glyph108" 
d="M-192 849v51h-61v75h61v51h103v-51h63v-75h-63v-51h-103z" />
    <glyph glyph-name="glyph110" 
d="M-228 824q-10 15 -15 35.5t-5 39.5q0 24 11.5 45.5t40.5 35t82 13.5h116v-81h-98q-47 0 -47 -35q0 -16 8 -34z" />
    <glyph glyph-name="glyph111" 
d="M-478 604q-8 13 -13 33t-5 40q0 38 25.5 66t92.5 28h126v-89h-90q-20 0 -31 -7t-11 -24q0 -15 8 -31z" />
    <glyph glyph-name="uni0E47.aalt" 
d="M-343 617q-53 0 -78 45l-37 -42q-58 0 -91.5 30t-33.5 86q0 59 33.5 88t77.5 29h219v-68h-200q-19 0 -32.5 -13t-13.5 -39q0 -19 9.5 -31.5t28.5 -12.5l38 45h22q2 -48 37 -48q14 0 23 10t9 27v14h80v-18q0 -52 -25 -77t-66 -25z" />
    <glyph glyph-name="uni0E34.aalt" 
d="M-614 628v54l78 38h284v-92h-362z" />
    <glyph glyph-name="uni0E35.aalt" 
d="M-614 628v50l78 38h176v76h108v-164h-362z" />
    <glyph glyph-name="uni0E36.aalt" 
d="M-614 628v50l78 38h113v6q0 38 25.5 62.5t70.5 24.5q46 0 72 -26t26 -66q0 -38 -24.5 -63.5t-71.5 -25.5h-289zM-327 677q20 0 30.5 11.5t10.5 29.5t-11 29.5t-31 11.5t-31 -11.5t-11 -29.5q0 -17 10.5 -29t32.5 -12z" />
    <glyph glyph-name="uni0E37.aalt" 
d="M-614 628v50l78 38h74v76h78v-76h54v76h77v-76h1v-88h-362z" />
    <glyph glyph-name="nikhahit_maiEk-thai" 
d="M-173 605q-55 0 -87 25t-32 71t32 71t87 25t87.5 -25t32.5 -71t-32.5 -71t-87.5 -25zM-173 659q23 0 35 11.5t12 30.5t-12 30.5t-35 11.5q-22 0 -34 -11.5t-12 -30.5t12 -30.5t34 -11.5zM-225 849v177h113v-177h-113z" />
    <glyph glyph-name="nikhahit_maiTho-thai" 
d="M-173 605q-55 0 -87 25t-32 71t32 71t87 25t87.5 -25t32.5 -71t-32.5 -71t-87.5 -25zM-173 659q23 0 35 11.5t12 30.5t-12 30.5t-35 11.5q-22 0 -34 -11.5t-12 -30.5t12 -30.5t34 -11.5zM-294 849v39q12 3 26.5 8.5t25.5 15.5t11 25q0 24 -23 24q-16 0 -31 -10l-18 54
q18 13 43.5 17t41.5 4q34 0 56.5 -14.5t22.5 -48.5q0 -8 -2 -17.5t-7 -18.5h121v-78h-267z" />
    <glyph glyph-name="nikhahit_maiTri-thai" 
d="M-173 605q-55 0 -87 25t-32 71t32 71t87 25t87.5 -25t32.5 -71t-32.5 -71t-87.5 -25zM-173 659q23 0 35 11.5t12 30.5t-12 30.5t-35 11.5q-22 0 -34 -11.5t-12 -30.5t12 -30.5t34 -11.5zM-256 845q-46 0 -68 26.5t-22 62.5q0 38 25 65t78 27l48 -35l44 35
q42 0 71.5 -16.5t29.5 -52.5q0 -24 -10 -39h72v-69h-171v49q13 2 22 11.5t9 23.5q0 13 -7.5 21.5t-18.5 10.5l-39 -26h-5l-40 26q-12 -1 -19.5 -10t-7.5 -22q0 -31 31 -31q10 0 18 3l7 -50q-15 -10 -47 -10z" />
    <glyph glyph-name="nikhahit_maiChattawa-thai" 
d="M-173 605q-55 0 -87 25t-32 71t32 71t87 25t87.5 -25t32.5 -71t-32.5 -71t-87.5 -25zM-173 659q23 0 35 11.5t12 30.5t-12 30.5t-35 11.5q-22 0 -34 -11.5t-12 -30.5t12 -30.5t34 -11.5zM-222 849v51h-61v75h61v51h103v-51h63v-75h-63v-51h-103z" />
    <glyph glyph-name="uni0E3A.aalt" 
d="M-141 -374q-36 0 -56 18.5t-20 53.5t20 53.5t56 18.5q35 0 55 -18.5t20 -53.5t-20 -53.5t-55 -18.5z" />
    <glyph glyph-name="uni0E38.aalt" 
d="M-183 -431v95q0 25 -22 25q-5 0 -10 -1.5t-10 -2.5l-7 68q14 5 36 9t42 4q44 0 62.5 -18.5t18.5 -50.5v-128h-110z" />
    <glyph glyph-name="uni0E39.aalt" 
d="M-220 -442q-74 0 -109.5 24.5t-35.5 66.5v17q0 17 -9 20.5t-24 -0.5l-6 65q14 4 32.5 6t30.5 2q41 0 59 -16t18 -45v-27q0 -18 9 -29t32 -11q25 0 34 11t9 29v85h106v-97q0 -50 -35.5 -75.5t-110.5 -25.5z" />
    <glyph glyph-name="maiChattawa-thai.narrow" 
d="M-430 628v71h-72v78h72v72h103v-72h72v-78h-72v-71h-103z" />
    <glyph glyph-name="nikhahit-thai.narrow" 
d="M-371 605q-55 0 -87 25t-32 71t32 71t87 25t87.5 -25t32.5 -71t-32.5 -71t-87.5 -25zM-371 659q23 0 35 11.5t12 30.5t-12 30.5t-35 11.5q-22 0 -34 -11.5t-12 -30.5t12 -30.5t34 -11.5z" />
    <glyph glyph-name="nikhahit_maiEk-thai.narrow" 
d="M-333 605q-55 0 -87 25t-32 71t32 71t87 25t87.5 -25t32.5 -71t-32.5 -71t-87.5 -25zM-333 659q23 0 35 11.5t12 30.5t-12 30.5t-35 11.5q-22 0 -34 -11.5t-12 -30.5t12 -30.5t34 -11.5zM-385 849v177h113v-177h-113z" />
    <glyph glyph-name="nikhahit_maiTho-thai.narrow" 
d="M-332 605q-55 0 -87 25t-32 71t32 71t87 25t87.5 -25t32.5 -71t-32.5 -71t-87.5 -25zM-332 659q23 0 35 11.5t12 30.5t-12 30.5t-35 11.5q-22 0 -34 -11.5t-12 -30.5t12 -30.5t34 -11.5zM-453 849v39q12 3 26.5 8.5t25.5 15.5t11 25q0 24 -23 24q-16 0 -31 -10l-18 54
q18 13 43.5 17t41.5 4q34 0 56.5 -14.5t22.5 -48.5q0 -8 -2 -17.5t-7 -18.5h121v-78h-267z" />
    <glyph glyph-name="nikhahit_maiTri-thai.narrow" 
d="M-333 605q-55 0 -87 25t-32 71t32 71t87 25t87.5 -25t32.5 -71t-32.5 -71t-87.5 -25zM-333 659q23 0 35 11.5t12 30.5t-12 30.5t-35 11.5q-22 0 -34 -11.5t-12 -30.5t12 -30.5t34 -11.5zM-416 845q-46 0 -68 26.5t-22 62.5q0 38 25 65t78 27l48 -35l44 35
q42 0 71.5 -16.5t29.5 -52.5q0 -24 -10 -39h72v-69h-171v49q13 2 22 11.5t9 23.5q0 13 -7.5 21.5t-18.5 10.5l-39 -26h-5l-40 26q-12 -1 -19.5 -10t-7.5 -22q0 -31 31 -31q10 0 18 3l7 -50q-15 -10 -47 -10z" />
    <glyph glyph-name="nikhahit_maiChattawa-thai.narrow" 
d="M-332 605q-55 0 -87 25t-32 71t32 71t87 25t87.5 -25t32.5 -71t-32.5 -71t-87.5 -25zM-332 659q23 0 35 11.5t12 30.5t-12 30.5t-35 11.5q-22 0 -34 -11.5t-12 -30.5t12 -30.5t34 -11.5zM-381 849v51h-61v75h61v51h103v-51h63v-75h-63v-51h-103z" />
    </font>
</defs>
</svg>
