<svg width="40" height="40" viewBox="0 0 40 40" fill="none" xmlns="http://www.w3.org/2000/svg">
<g clip-path="url(#clip0_13299_128951)">
<path d="M40 34.96C39.8919 35.016 39.7651 35.0794 39.601 35.1651L38.8963 35.0085C38.8106 34.8706 38.7211 34.6841 38.5869 34.5424C38.4713 34.4231 38.3072 34.3523 38.2401 34.1845C38.1805 34.0391 38.0127 34.0055 37.9269 34.0391C37.6995 34.136 37.3751 34.0465 37.2483 34.3709C37.2185 34.453 37.1029 34.494 37.0283 34.5574C36.9724 34.6058 36.9016 34.6468 36.8755 34.7065C36.8233 34.8146 36.8531 34.96 36.7077 35.0197C36.5884 35.0682 36.6145 35.2285 36.4877 35.2993C36.4355 35.3254 36.4131 35.359 36.4019 35.3888C36.4019 35.4224 36.4131 35.4634 36.4392 35.5044C36.525 35.6498 36.5884 35.7952 36.6257 35.9705C36.689 36.2613 36.9463 36.4627 37.1887 36.6118C37.3304 36.7013 37.3826 36.8131 37.4534 36.9325C37.4459 36.9325 37.4385 36.9362 37.431 36.9399C37.4385 36.9511 37.4422 36.9586 37.4497 36.9697C37.2073 37.0219 37.0022 37.1524 36.8233 37.3575C36.7412 37.2307 36.648 37.1077 36.5809 36.9735C36.5138 36.8467 36.4169 36.7982 36.2826 36.7796C36.2379 36.7684 36.1782 36.7498 36.1596 36.7162C36.0626 36.5447 35.9321 36.4105 35.7644 36.2986C35.5891 36.1756 35.7159 35.9108 35.5481 35.7729L35.5556 35.7393L35.8091 34.5909C35.7345 34.4604 35.6562 34.3374 35.5705 34.1957C35.5742 34.1882 35.5817 34.1845 35.5854 34.177C35.5817 34.1696 35.5779 34.1659 35.5742 34.1584C35.7122 33.9981 35.8016 33.8042 35.9843 33.67C36.1111 33.5767 36.1745 33.5245 36.1894 33.4649C36.1894 33.4015 36.1409 33.3195 36.0589 33.1741L35.0149 32.9429C34.9814 32.9615 34.9142 32.9988 34.8509 33.0324C34.7837 33.0659 34.7353 33.1144 34.7204 33.1703C34.7204 33.189 34.7204 33.2076 34.7315 33.23C34.7763 33.3269 34.8061 33.409 34.7987 33.5059C34.7987 33.5395 34.7987 33.5767 34.7837 33.614C34.7315 33.8154 34.6682 34.0167 34.6346 34.2218C34.6271 34.2777 34.6197 34.3336 34.616 34.3933C34.616 34.4045 34.616 34.4157 34.6122 34.4306C34.601 34.6245 34.3811 34.6804 34.34 34.8333C34.34 34.8519 34.34 34.8706 34.34 34.8892C34.3475 34.9302 34.3475 34.96 34.34 34.9936C34.3326 35.1875 34.0828 35.2434 34.0679 35.4261C33.9262 35.5268 33.8404 35.6424 33.8106 35.7691C33.7957 35.8885 33.8218 36.0152 33.9038 36.1569C33.9001 36.1644 33.8963 36.1718 33.8926 36.183C33.8926 36.1867 33.8926 36.1905 33.9001 36.1942C33.8889 36.2128 33.8814 36.2278 33.8777 36.2427C33.8777 36.3545 33.9933 36.4477 33.9784 36.5708C33.9635 36.7162 34.0455 36.8579 34.2058 36.9064C34.3512 36.9511 34.3699 37.0853 34.4333 37.186C34.4407 37.2009 34.437 37.2195 34.4333 37.2419C34.4407 37.2867 34.3997 37.3612 34.3773 37.4321L33.9001 37.3277C33.9001 37.3277 33.8479 37.2904 33.8218 37.2494C33.5869 36.8877 33.3594 36.526 33.1245 36.1644C32.7629 35.9481 32.6473 35.5454 32.3975 35.236C32.3975 35.2248 32.4012 35.2136 32.4049 35.2024C32.4049 35.2024 32.4049 35.2024 32.4049 35.1987C32.431 35.0831 32.4683 34.9712 32.4758 34.8594C32.4758 34.7475 32.4236 34.6357 32.4049 34.5238C32.3714 34.3635 32.2782 34.2852 32.1775 34.3523C31.9799 34.4902 31.7151 34.5574 31.6965 34.878C31.6928 34.9712 31.5287 34.9973 31.4989 35.0943C31.4989 35.1017 31.4989 35.1092 31.4989 35.1166C31.5138 35.2099 31.5623 35.2956 31.5921 35.3851C31.5921 35.3963 31.5921 35.4075 31.5884 35.4224C31.5958 35.441 31.5772 35.4709 31.5735 35.4932C31.566 35.5156 31.5623 35.538 31.5585 35.5603C31.5548 35.6349 31.5846 35.6946 31.7002 35.743C31.8195 35.799 31.8904 35.9668 31.9873 36.0898C32.1365 36.1383 32.3378 36.1532 32.4422 36.2613C32.5317 36.3545 32.651 36.3769 32.7293 36.4701C32.8076 36.5671 32.8374 36.6379 32.83 36.7087C32.8337 36.7796 32.8002 36.8467 32.7181 36.9362C32.3602 37.3389 32.2558 37.3836 31.7711 37.5514C31.5287 37.6334 31.3087 37.6036 31.167 37.4395C31.0254 37.2718 30.8352 37.3463 30.7569 37.2792C30.4996 37.1823 30.5369 36.8765 30.2871 36.8504C30.2685 36.8467 30.2461 36.8243 30.2349 36.8057C30.22 36.787 30.2013 36.7572 30.2088 36.7386C30.2125 36.7274 30.2088 36.7199 30.2163 36.7087C30.2163 36.7087 30.2163 36.705 30.2163 36.7013C30.2237 36.6826 30.2237 36.664 30.2274 36.6491C30.2274 36.4738 30.0261 36.3732 30.0186 36.2017C30.0186 36.1569 30.0373 36.0973 30.0186 36.06C29.9441 35.9332 29.8881 35.8027 29.7017 35.7729C29.5153 35.743 29.2804 35.7803 29.1834 35.5417C29.0045 35.4783 28.8516 35.3702 28.695 35.2621C28.4042 35.0644 28.3967 34.7811 28.3855 34.5089C28.3855 34.4492 28.3855 34.3896 28.4004 34.3336C28.4228 34.1733 28.475 34.013 28.516 33.8601C28.3594 33.7818 28.1805 34.0316 28.0761 33.793C28.0015 33.6215 27.8002 33.7072 27.6958 33.5991C27.5951 33.4947 27.5802 33.3083 27.4198 33.2598C27.2819 33.2188 27.2744 33.148 27.2893 33.0585C27.2931 33.0025 27.3117 32.9392 27.3229 32.8683C27.3229 32.8459 27.3229 32.8236 27.3229 32.8012C27.2782 32.7527 27.17 32.6446 27.1029 32.5775C27.1029 32.5663 27.1029 32.5551 27.1066 32.5402C27.1178 32.4694 27.129 32.4023 27.1327 32.3389C27.1514 32.1301 27.1365 31.9697 27.088 31.8616L27.0955 31.8318C27.0955 31.8318 27.0955 31.8281 27.0955 31.8243L27.3788 30.5305C27.2558 30.2807 27.0246 30.1577 26.8158 29.9973C26.7002 29.9078 26.6219 29.7885 26.4616 29.7773C26.4579 29.837 26.4243 29.8967 26.4243 29.96C26.4243 29.9824 26.4355 30.0048 26.4504 30.0309C26.4877 30.0831 26.5063 30.1651 26.5063 30.2322C26.5063 30.2397 26.5063 30.2471 26.5063 30.2509C26.5063 30.3702 26.4504 30.482 26.4616 30.6088C26.4691 30.6461 26.4765 30.6871 26.5026 30.7319C26.5175 30.758 26.5213 30.7841 26.525 30.8139C26.5436 30.9146 26.5063 31.0376 26.5175 31.1532C26.525 31.1979 26.5436 31.2427 26.5846 31.2837C26.5846 31.2874 26.5846 31.2949 26.5846 31.2986C26.5846 31.2986 26.5846 31.3061 26.5921 31.3061C26.5735 31.3471 26.5623 31.3881 26.5623 31.4291C26.566 31.5447 26.6219 31.6565 26.6257 31.7684C26.6257 31.7833 26.6257 31.7982 26.6294 31.8131C26.6294 31.8206 26.6294 31.8243 26.6294 31.8318C26.648 31.9175 26.7002 31.9996 26.7114 32.0891C26.7263 32.1487 26.7226 32.2121 26.6853 32.2829C26.6741 32.3016 26.6704 32.3165 26.6704 32.3351C26.6779 32.4172 26.7599 32.4917 26.7673 32.5812C26.7748 32.6148 26.7711 32.6483 26.7524 32.6856C26.8829 32.8087 26.7934 33.01 26.909 33.1442C26.9239 33.1629 26.9389 33.1927 26.9351 33.2113C26.9351 33.2113 26.9351 33.2113 26.9351 33.2151C26.9351 33.2225 26.9389 33.2263 26.9351 33.2337C26.9016 33.4239 26.8606 33.6178 26.8233 33.8079C26.8867 33.875 26.9128 33.9421 26.9128 34.013C26.9239 34.136 26.8606 34.2665 26.8345 34.3896C26.7524 34.8109 26.648 35.2285 26.5585 35.6461C26.525 35.7952 26.4952 35.9407 26.4616 36.0898C26.4318 36.2315 26.4094 36.362 26.264 36.4701C26.167 36.5447 26.2155 36.7945 26.1223 36.8728C25.8538 37.0891 25.8799 37.4023 25.8016 37.6782C25.7532 37.8497 25.7644 38.051 25.6749 38.1852C25.5854 38.3232 25.4437 38.4276 25.4362 38.614C25.2013 38.7371 25.2088 38.9757 25.1529 39.2031C24.9142 39.3038 24.7353 39.5536 24.4519 39.5723C24.3363 39.5797 24.2804 39.6692 24.1834 39.6729C24.0865 39.6729 23.9896 39.6319 23.8926 39.6133C23.7472 39.755 23.516 39.7699 23.4265 39.9787C23.4265 39.9787 23.4228 39.9787 23.4191 39.9787C23.4191 39.9787 23.4228 39.9787 23.4265 39.9787C23.3557 40.2956 23.2849 40.6163 23.2177 40.9332C23.214 40.9556 23.2066 40.9779 23.2028 40.9966H40.0075V34.9563L40 34.96ZM30.3207 39.7102C30.2983 39.7438 30.2349 39.7736 30.1976 39.7662C30.1044 39.7475 29.9702 39.7401 29.9217 39.6767C29.8061 39.5163 29.6421 39.4119 29.4892 39.315C29.3251 39.2181 29.0977 39.2292 28.9075 39.1659C28.8218 39.1398 28.7584 39.0503 28.654 38.9608L27.3676 38.6774C27.1999 38.7408 27.088 38.8638 27.0134 39.0242C26.7673 39.0801 26.9128 39.3896 26.6965 39.494C26.5324 39.576 26.6107 39.8146 26.5063 39.9824C26.3572 40.0794 26.1894 40.1875 26.0179 40.2956C25.9135 40.359 25.8016 40.4187 25.6935 40.482C25.4996 40.3404 25.3169 40.5417 25.1268 40.5119C24.959 40.4858 24.7912 40.3814 24.6346 40.5417C24.437 40.482 24.3177 40.6349 24.1685 40.7095C24.1312 40.7319 24.0753 40.7393 24.0306 40.7281C24.0194 40.7281 24.0082 40.7169 23.9933 40.7132C23.9784 40.7058 23.9672 40.6983 23.956 40.6908C23.9374 40.6759 23.9224 40.661 23.9187 40.6461C23.8889 40.4597 23.9746 40.2621 24.135 40.2248C24.5004 40.1465 24.8471 39.9339 25.2461 40.0607C25.302 40.0756 25.3915 40.0495 25.4474 40.0122C25.5817 39.9228 25.6898 40.057 25.8538 40.0085C25.865 39.9936 25.9098 39.9339 25.9321 39.8706C26.0067 39.6953 25.9433 39.4492 26.1372 39.3336C26.3087 39.233 26.1857 38.9869 26.3908 38.9049C26.5362 38.8489 26.5063 38.6886 26.525 38.5767C26.5511 38.4313 26.6629 38.3829 26.7412 38.2971C26.8009 38.2337 26.7636 38.0808 26.8233 38.0175C26.909 37.9317 26.9948 37.8683 27.0507 37.7415C27.0843 37.6632 27.211 37.626 27.3005 37.57C27.6175 37.6409 27.9418 37.6968 28.2588 37.7863C28.4489 37.8385 28.6652 37.8012 28.8218 37.9578C29.0194 38.1629 29.3065 38.2747 29.4444 38.5357C29.5414 38.7147 29.7651 38.7557 29.8434 38.9533C29.8807 39.0428 29.9366 39.1211 30 39.1882C30.0671 39.2553 30.1454 39.315 30.2274 39.3709C30.2573 39.3896 30.2796 39.4194 30.2983 39.453C30.3207 39.4865 30.3356 39.5275 30.3505 39.5648C30.3654 39.6058 30.3505 39.6692 30.3244 39.7065L30.3207 39.7102ZM30.5854 39.9302C30.5481 39.9414 30.5108 39.9563 30.4735 39.9563C30.4623 39.9563 30.4474 39.919 30.4325 39.8967H30.4362C30.4735 39.8855 30.5108 39.8743 30.5444 39.8631C30.563 39.8892 30.5742 39.9078 30.5854 39.9302C30.5854 39.9302 30.5854 39.9302 30.5817 39.9302H30.5854Z" fill="#E87722"/>
<path d="M39.2953 33.5987C39.355 33.8336 39.6122 33.8858 39.7353 34.0685C39.7726 34.1207 39.8956 34.1207 39.9963 34.1356V33.2147C39.8583 33.1662 39.7092 33.1364 39.6532 32.976C39.6383 32.9387 39.519 32.9425 39.4407 32.9238C39.4407 32.935 39.437 32.9462 39.4333 32.9611L39.2916 33.595L39.2953 33.5987Z" fill="#E87722"/>
<path d="M19.698 39.0426C19.6905 39.0203 19.6756 38.9979 19.657 38.9755C19.6346 38.9494 19.6234 38.9233 19.6234 38.8972C19.601 38.8189 19.6607 38.7443 19.657 38.666C19.6607 38.6399 19.6756 38.6176 19.6719 38.5952C19.6719 38.584 19.6644 38.5728 19.657 38.5616C19.657 38.5616 19.6495 38.5542 19.6458 38.5542C19.3885 38.543 19.2655 38.2671 19.0157 38.2298C18.9187 38.2149 18.7733 38.1888 18.7547 38.1291C18.7547 38.1291 18.7547 38.1291 18.7547 38.1217C18.7547 38.1179 18.7435 38.1142 18.7435 38.1105C18.736 38.0844 18.7248 38.0657 18.7099 38.0471C18.6055 37.9352 18.4079 37.9874 18.3184 37.8681C18.2998 37.8495 18.2811 37.8271 18.2737 37.7936C18.2662 37.7712 18.255 37.76 18.2438 37.7488C18.1842 37.7115 18.0947 37.7302 18.0313 37.7003C18.0313 37.6966 18.0313 37.6892 18.0276 37.6854C18.0276 37.6854 18.0201 37.6854 18.0164 37.6854C18.0164 37.6929 18.0201 37.7003 18.0201 37.7041C17.8337 37.6556 17.61 37.6742 17.5242 37.4393L17.1066 37.3461C17.006 37.2119 16.9389 37.0404 16.8195 36.9845C16.6629 36.9136 16.6182 36.7794 16.5399 36.6638C16.5399 36.6638 16.5399 36.6563 16.5399 36.6526C16.5399 36.6526 16.5399 36.6452 16.5324 36.6452C16.5511 36.6041 16.5511 36.5631 16.5474 36.5258C16.5287 36.4364 16.4691 36.3469 16.4616 36.2499C16.4541 36.1977 16.4616 36.1418 16.4914 36.0784C16.5996 35.8734 16.5474 35.5863 16.7972 35.4408C16.8568 35.1687 16.909 34.8965 16.9761 34.628C16.9911 34.5534 17.0544 34.505 17.1439 34.546C17.1588 34.3782 17.2856 34.2179 17.1514 34.0501C17.129 34.0203 17.1216 33.9569 17.1327 33.9121C17.17 33.7108 17.2297 33.5206 17.2558 33.323C17.2819 33.1105 17.4161 32.9166 17.308 32.678C17.211 32.4692 17.3639 32.2492 17.39 32.0329C17.2222 31.8614 17.3154 31.6787 17.3527 31.4997L17.226 31.4736V31.4475L17.2185 31.4774C17.0544 31.4662 16.9239 31.5519 16.8643 31.6862C16.7636 31.9062 16.5921 31.9397 16.3833 31.9397C16.2565 32.0777 16.2789 32.2641 16.2304 32.4282C16.1857 32.5736 16.167 32.7227 16.1484 32.7973C15.9769 33.0173 15.8277 33.1701 15.7233 33.3528C15.6674 33.4461 15.6301 33.6027 15.6637 33.6884C15.6861 33.7257 15.6972 33.763 15.7047 33.7965C15.7345 33.9121 15.6972 34.0203 15.7122 34.1284C15.7196 34.1955 15.7308 34.2663 15.7457 34.3335C15.7606 34.3968 15.7793 34.4565 15.8091 34.505C15.8277 34.5348 15.8389 34.5684 15.8464 34.5982C15.9135 34.7809 15.8091 34.9412 15.7979 35.1127C15.5369 35.2209 15.5779 35.4781 15.5183 35.6832C15.4735 35.8361 15.1566 36.2648 15.0037 36.2499C14.7017 36.2164 14.6719 36.4774 14.5451 36.6153C14.4929 36.6713 14.4817 36.7533 14.4966 36.8316C14.5302 36.9546 14.6309 37.0777 14.7502 37.115C14.9068 37.1672 15.1119 37.1336 15.1902 37.3424C15.1976 37.361 15.2274 37.3722 15.2498 37.3797C15.3468 37.3946 15.4437 37.4132 15.5369 37.4095C15.604 37.4095 15.6674 37.3424 15.7383 37.3387C15.8389 37.3387 15.9359 37.3909 16.0365 37.3983C16.1037 37.4058 16.1708 37.3722 16.2379 37.3536C16.2603 37.3461 16.2826 37.3275 16.3013 37.3163C16.3274 37.3163 16.3497 37.3238 16.3758 37.3275C16.5474 37.3648 16.7189 37.4021 16.909 37.4468C16.9538 37.5251 17.0022 37.6109 17.0582 37.7153C17.0582 37.7153 17.0544 37.7153 17.0507 37.7153C17.0582 37.7264 17.0582 37.7339 17.0656 37.7414C16.827 37.7749 16.6107 37.9203 16.3386 37.8197C16.1037 37.7339 15.8538 37.7041 15.6152 37.6519C15.5034 37.7973 15.3878 37.9203 15.3057 38.0583C15.2237 38.2037 15.261 38.3789 15.0969 38.5169C14.9851 38.6101 14.9776 38.8264 14.9217 38.9904C14.6048 39.1918 14.2878 39.3931 13.9672 39.5982C13.8516 39.5721 13.7323 39.546 13.6279 39.5236C13.6242 39.5124 13.6279 39.505 13.6204 39.4975C13.557 39.3484 13.6503 39.2402 13.6503 39.1247C13.8255 39.0725 14.0045 39.0799 14.135 38.9531C14.176 38.9084 14.1909 38.8264 14.176 38.7667C14.1648 38.7481 14.1536 38.7369 14.1312 38.7294C14.0194 38.6996 13.9485 38.6549 13.9485 38.5728C13.9411 38.5393 13.9411 38.4983 13.9597 38.4461C13.9821 38.3827 13.9858 38.3267 13.9746 38.2783C13.9597 38.2298 13.9299 38.1813 13.8926 38.1366C13.8628 38.0993 13.8292 38.062 13.7957 38.0322C13.5048 37.7824 13.434 37.719 13.3669 37.5102C13.3445 37.4468 13.3221 37.3685 13.296 37.2641C13.2625 37.1522 13.1954 37.0516 13.1432 36.9472C12.8337 36.8801 12.5019 36.8763 12.2558 36.7309C11.9836 36.5669 11.7673 36.2984 11.4877 36.1157C11.4131 36.0635 11.3647 35.9628 11.3087 35.8845C11.3013 35.8733 11.2975 35.8584 11.2938 35.8435C11.2714 35.7913 11.2975 35.7167 11.2901 35.6571C11.2789 35.6273 11.2491 35.6012 11.1894 35.5825C11.1111 35.5639 11.0477 35.4632 10.9806 35.4035C10.9135 35.4856 10.8501 35.5937 10.7606 35.6608C10.66 35.7317 10.6674 35.8323 10.645 35.9218C10.6264 36.0076 10.5817 36.0635 10.5034 36.056C10.2573 36.0374 10.123 36.2238 9.94407 36.3245C10.0149 36.4364 10.0783 36.537 10.1417 36.634C10.1417 36.6377 10.1417 36.6414 10.1417 36.6452C10.1417 36.6526 10.1491 36.6563 10.1529 36.6638C10.1156 36.8279 10.0783 36.9956 10.0447 37.1522C9.90306 37.1933 9.70545 37.1 9.70172 37.3499C9.70172 37.3722 9.61596 37.417 9.58613 37.4095C9.41835 37.3536 9.32886 37.4841 9.20209 37.5661C9.2692 37.5922 9.34005 37.6109 9.36987 37.6556C9.478 37.7936 9.57122 37.9427 9.66816 38.0807C9.66816 38.0844 9.66816 38.0881 9.66816 38.0918C9.67189 38.0956 9.67562 38.103 9.67935 38.1105C9.62342 38.42 9.5563 38.5393 9.40716 38.763C9.36242 38.8264 9.34377 38.9047 9.26175 38.8972C8.97838 38.8748 8.83296 39.1284 8.58688 39.2141C8.38553 39.1806 8.17301 39.1247 7.94556 39.0799V39.0538C7.94556 39.0538 7.94184 39.0538 7.93811 39.0538L8.04996 38.5505C8.13199 38.4722 8.23639 38.4013 8.39672 38.3678C8.57569 38.3342 8.73975 38.2074 8.91126 38.1179C8.89635 38.0918 8.88516 38.0657 8.87025 38.062C8.52722 37.9874 8.18419 37.9091 7.81134 37.8271C7.74422 37.6742 7.66965 37.5176 7.56152 37.2902V37.2827C7.56152 37.2827 7.55779 37.2678 7.55407 37.2604L7.67711 36.6936C7.88591 36.5892 8.15436 36.4513 8.35571 36.3506L8.43401 35.9889C8.23639 35.8622 8.10589 35.631 7.82998 35.6422C7.75541 35.5229 7.63609 35.4036 7.59135 35.2842C7.57271 35.247 7.56152 35.2059 7.56152 35.1687C7.56152 35.1351 7.55779 35.1053 7.54661 35.0754C7.52424 35.0083 7.49441 34.9487 7.47949 34.8816C7.46831 34.8405 7.46085 34.8033 7.46458 34.7585C7.48695 34.5982 7.33781 34.4565 7.41238 34.2663C7.41984 34.244 7.41984 34.2179 7.41238 34.1918C7.39747 34.1433 7.37509 34.0911 7.36391 34.0426C7.35272 34.0053 7.34154 33.9681 7.34899 33.9345C7.41984 33.5355 7.51678 33.144 7.60254 32.7488C7.60627 32.7264 7.61745 32.6929 7.63609 32.6892C7.88218 32.6295 7.76659 32.3312 7.95302 32.2231C8.06115 32.1597 8.10962 32.0441 8.09844 31.9397C8.09098 31.9136 8.08725 31.8912 8.07234 31.8689C8.05742 31.8428 8.04996 31.8167 8.04251 31.7906C8.00895 31.6936 8.02014 31.5892 7.99031 31.496C7.97539 31.4587 7.95302 31.4252 7.91201 31.3953V31.3804C7.91201 31.3804 7.90828 31.373 7.90455 31.3692L8.04996 30.7018C7.90082 30.6385 7.77405 30.7018 7.63236 30.754C7.51305 30.7988 7.37137 30.6907 7.20731 30.7801C7.05444 30.8659 6.83072 30.8212 6.66667 30.8995C6.4877 30.9852 6.29754 30.9927 6.11857 31.0523C5.9396 31.1157 5.74944 31.2052 5.55556 31.0896C5.40269 31.3208 5.17151 31.0784 5.00373 31.1865C4.80612 31.3133 4.61969 31.1754 4.42953 31.1455C4.31395 31.1306 4.23937 31.2052 4.15362 31.2089C3.96719 31.2201 3.78449 31.1903 3.59433 31.2648C3.49739 31.2984 3.34452 31.2387 3.22893 31.1865C3.06488 31.112 2.95302 31.2723 2.81134 31.2537C2.66219 31.235 2.50187 31.2201 2.36764 31.1567C2.18121 31.071 2.03952 31.2201 1.87547 31.2052C1.7487 31.194 1.59583 31.0933 1.5138 31.1418C1.37957 31.2164 1.23415 31.1977 1.10365 31.2537C1.05891 31.2723 1.01417 31.3245 0.973155 31.317C0.801642 31.2909 0.630128 31.2164 0.454885 31.2126C0.302014 31.2126 0.160329 31.3059 -0.0111847 31.2611V41.0113H19.6831C19.6682 40.8211 19.6495 40.6273 19.7166 40.4334C19.7576 40.3178 19.6607 40.1612 19.6682 40.0232C19.6756 39.8778 19.7241 39.7361 19.7539 39.5907C19.7054 39.5497 19.6793 39.5012 19.6756 39.449C19.6458 39.3223 19.7166 39.1769 19.6831 39.0501L19.698 39.0426Z" fill="#E87722"/>
<path d="M7.99776 31.4774C8.03505 31.5668 8.02386 31.675 8.04996 31.7719C8.05742 31.798 8.06488 31.8241 8.07979 31.8502C8.09471 31.8726 8.09844 31.8987 8.10589 31.9211C8.13199 32.0329 8.09098 32.1634 7.97166 32.2343C7.78524 32.3387 7.90455 32.6407 7.65474 32.7003C7.64355 32.7041 7.62864 32.7413 7.62118 32.76C7.53542 33.1552 7.43475 33.5504 7.36764 33.9457C7.36391 33.9718 7.36764 33.9979 7.3751 34.0277C7.38628 34.0762 7.40865 34.1284 7.42357 34.1768C7.43475 34.2141 7.44221 34.2514 7.43102 34.2812C7.36018 34.4677 7.50559 34.6094 7.48322 34.7734C7.47949 34.807 7.48322 34.8368 7.48695 34.8704C7.50187 34.9375 7.53169 34.9971 7.55407 35.0642C7.56525 35.1015 7.57644 35.1425 7.57644 35.1873C7.57644 35.2171 7.58762 35.2469 7.59881 35.2768C7.64355 35.3961 7.76287 35.5154 7.83744 35.6347C8.11335 35.6235 8.24012 35.8547 8.44146 35.9815C8.44519 35.9815 8.44892 35.9889 8.45638 35.9889L8.37062 36.3692C8.16555 36.4699 7.89709 36.6079 7.69202 36.7123L7.56898 37.2715V37.279C7.67711 37.5065 7.75168 37.6668 7.81879 37.8159C8.18792 37.8979 8.53468 37.9725 8.8777 38.0508C8.89262 38.0508 8.9038 38.0769 8.91872 38.1067C8.92245 38.1142 8.92618 38.1217 8.93363 38.1328C8.75839 38.2186 8.59433 38.3491 8.41536 38.3827C8.25876 38.4125 8.15436 38.4871 8.06861 38.5654L7.96421 39.0426V39.0687C8.18792 39.1097 8.40045 39.1694 8.60179 39.2029C8.84788 39.1172 8.99329 38.8674 9.27666 38.886C9.35869 38.8935 9.38106 38.8152 9.42207 38.7518C9.57495 38.5281 9.63833 38.405 9.69426 38.0993C9.69053 38.0956 9.6868 38.0881 9.68307 38.0806C9.58986 37.9464 9.50037 37.801 9.39598 37.6742C9.35496 37.622 9.27293 37.6108 9.19463 37.5736C9.20209 37.5698 9.20955 37.5624 9.217 37.5586C9.3475 37.4766 9.43326 37.3461 9.60105 37.402C9.63087 37.4095 9.71663 37.3648 9.71663 37.3424C9.71663 37.0926 9.91797 37.1858 10.0597 37.1448C10.0932 36.9882 10.1305 36.8204 10.1678 36.6563C10.1678 36.6489 10.1603 36.6451 10.1566 36.6377C10.0932 36.537 10.0298 36.4364 9.95526 36.3208C9.95526 36.3208 9.95899 36.3208 9.96272 36.317C10.1417 36.2164 10.2759 36.0337 10.522 36.0486C10.6003 36.056 10.645 36.0001 10.6637 35.9144C10.6823 35.8249 10.6786 35.7242 10.7793 35.6534C10.8688 35.5862 10.9321 35.4781 10.9993 35.3961C11.0701 35.4557 11.1298 35.5564 11.2081 35.5751C11.2677 35.59 11.2938 35.6161 11.3087 35.6496C11.3311 35.7056 11.3087 35.7764 11.3125 35.8361C11.3125 35.851 11.3199 35.8659 11.3274 35.8771C11.3833 35.9591 11.4318 36.0598 11.5063 36.1082C11.7823 36.2909 11.9985 36.5594 12.2744 36.7234C12.5205 36.8689 12.8524 36.8689 13.1618 36.9397C13.214 37.0441 13.2811 37.1448 13.3147 37.2566C13.3147 37.2566 13.3147 37.2604 13.3147 37.2641C13.3408 37.3648 13.3632 37.4393 13.3818 37.5027C13.4489 37.7115 13.516 37.7749 13.8106 38.0247C13.8441 38.0545 13.8777 38.0918 13.9075 38.1291C13.9448 38.1739 13.9709 38.2223 13.9896 38.2708C14.0082 38.3305 14.0119 38.3938 13.9821 38.4684C13.9672 38.5057 13.9597 38.5393 13.9597 38.5654C13.9597 38.6511 14.0306 38.6921 14.1424 38.722C14.1611 38.7257 14.176 38.7406 14.1872 38.7592C14.2207 38.8189 14.2058 38.9233 14.1573 38.9755C14.0231 39.1023 13.8479 39.0911 13.6726 39.147C13.6726 39.2551 13.5943 39.3558 13.6391 39.49C13.6391 39.5012 13.6391 39.5087 13.6465 39.5161C13.7509 39.5385 13.8702 39.5646 13.9858 39.5907C14.3065 39.3856 14.6234 39.1843 14.9403 38.983C14.9963 38.8189 15.0075 38.6026 15.1156 38.5094C15.2796 38.3715 15.2424 38.1925 15.3244 38.0508C15.4027 37.9091 15.522 37.7898 15.6339 37.6444C15.8725 37.6966 16.1223 37.7264 16.3572 37.8122C16.6294 37.9129 16.8456 37.7674 17.0843 37.7339C17.0768 37.7227 17.0731 37.7152 17.0694 37.7078C17.0209 37.622 16.9761 37.5363 16.9351 37.4692C16.7487 37.4281 16.5735 37.3909 16.4019 37.3498C16.3758 37.3461 16.3535 37.3424 16.3274 37.3387C16.305 37.3536 16.2864 37.3722 16.264 37.3759C16.2006 37.3946 16.1298 37.4244 16.0626 37.4207C15.962 37.4132 15.865 37.3648 15.7644 37.361C15.6972 37.361 15.6339 37.4281 15.563 37.4319C15.4698 37.4393 15.3691 37.417 15.2759 37.402C15.2535 37.402 15.2237 37.3834 15.2163 37.3648C15.138 37.1522 14.9329 37.1895 14.7763 37.1373C14.6458 37.0926 14.5377 36.9584 14.5116 36.8241C14.4966 36.7421 14.5116 36.6638 14.56 36.6079C14.6868 36.4699 14.7166 36.2089 15.0186 36.2425C15.1715 36.2574 15.4884 35.8286 15.5332 35.6757C15.5928 35.4707 15.5518 35.2134 15.8128 35.1053C15.8277 34.9337 15.9321 34.7771 15.8613 34.5907C15.8538 34.5683 15.8464 34.5497 15.8315 34.5273C15.7979 34.4714 15.7755 34.4006 15.7606 34.3297C15.7457 34.2626 15.7345 34.1918 15.7271 34.1246C15.7122 34.0128 15.7494 33.9084 15.7196 33.7928C15.7122 33.763 15.7047 33.7331 15.6823 33.6996C15.6823 33.6959 15.6823 33.6884 15.6786 33.6809C15.645 33.5952 15.6823 33.4386 15.7383 33.3454C15.8427 33.1627 15.9918 33.0098 16.1633 32.7898C16.1782 32.7152 16.2006 32.5661 16.2453 32.4207C16.2938 32.2566 16.2714 32.0702 16.3982 31.9322C16.6107 31.9322 16.7785 31.8987 16.8792 31.6787C16.9389 31.5445 17.0656 31.4587 17.2334 31.4662L17.2409 31.4401L17.3304 31.0299C17.3565 30.9106 17.4459 30.7466 17.3975 30.6757C17.2968 30.5229 17.3714 30.3364 17.2521 30.2022C17.17 30.109 17.2595 30.0158 17.2595 29.9226L17.0395 29.8741C16.9426 29.8517 16.8382 29.848 16.7487 29.8032C16.689 29.7771 16.6741 29.6504 16.6145 29.6355C16.5101 29.6056 16.4467 29.5497 16.387 29.4639C16.3535 29.4117 16.2342 29.4117 16.2081 29.3595C16.0701 29.065 15.7532 28.9196 15.6003 28.6325C15.4735 28.4013 15.2013 28.2894 15.0858 28.0284C14.9851 27.801 14.821 27.5997 14.6868 27.3909C14.5377 27.1597 14.3811 26.9285 14.2431 26.6899C14.1573 26.5333 14.0529 26.4102 13.8889 26.3394C13.9262 26.1418 13.7808 26.071 13.6577 25.9628C13.5496 25.8659 13.4899 25.713 13.4079 25.5862C13.3147 25.4408 13.2215 25.2917 13.1245 25.1425C13.0425 25.0158 12.9605 24.889 12.8822 24.7585C12.789 24.6131 12.6958 24.4639 12.5988 24.3148L12.3565 23.9308C12.2595 23.7816 12.1551 23.6362 12.0731 23.4833C12.0246 23.3864 12.0321 23.2 11.9687 23.1739C11.8233 23.1142 11.7972 23.0583 11.8009 22.9054C11.8009 22.8346 11.6443 22.7525 11.5548 22.6817C11.4243 22.5736 11.4914 22.402 11.4243 22.279C11.3386 22.1261 11.1782 21.9919 11.1559 21.8316C11.1335 21.6862 11.0813 21.5631 11.044 21.4252C10.9881 21.1977 10.9993 20.9479 10.8277 20.754C10.7532 20.6683 10.7457 20.5676 10.7942 20.4781C10.8799 20.3178 10.6711 20.2171 10.7233 20.0642C10.7644 19.9487 10.8277 19.7846 10.7793 19.7063C10.6823 19.5572 10.7084 19.4304 10.7457 19.285C10.5891 19.0575 10.7494 18.7667 10.604 18.5318C10.7308 18.2969 10.44 18.0583 10.604 17.8234C10.4959 17.6966 10.481 17.5586 10.5406 17.4095C10.5183 17.4058 10.4735 17.402 10.4773 17.3946C10.4773 17.3946 10.4773 17.3909 10.4773 17.3871C10.4698 17.1709 10.2722 16.9807 10.3766 16.7421H10.3691H10.3803V16.7346L10.4922 16.2313C10.3915 16.1418 10.3952 16.0374 10.4101 15.933C10.4101 15.9032 10.4176 15.8733 10.4213 15.8435C10.4251 15.81 10.4288 15.7801 10.4251 15.7466C10.4251 15.6906 10.2834 15.6384 10.1752 15.5639C10.1752 15.5601 10.1752 15.5527 10.1752 15.549C10.2274 15.3141 10.2834 15.0792 10.3393 14.8368C10.3952 14.5982 10.4474 14.3558 10.4847 14.1097C10.4847 14.106 10.4847 14.1023 10.4847 14.0985C10.5145 13.9121 10.5966 13.7257 10.6413 13.5355C10.6861 13.3491 10.6972 13.1589 10.5891 12.9576C10.5891 12.9539 10.5891 12.9464 10.5891 12.9427C10.6488 12.6742 10.701 12.3983 10.7681 12.1299C10.7942 12.0143 10.9732 12.0068 10.9806 11.8577C10.9806 11.8092 10.9918 11.7607 11.003 11.7123C11.0142 11.6601 11.0291 11.6079 11.0477 11.5594C11.0589 11.5221 11.1148 11.4736 11.1521 11.4736C11.4952 11.4923 11.6629 11.2537 11.8494 11.0225C11.909 10.9479 12.0134 10.9106 12.1327 10.8361L12.2968 10.0941C12.4534 9.98967 12.569 10.0941 12.6958 10.0941C12.8374 10.0009 12.9829 9.90391 13.1432 9.79951L13.2252 9.43411C13.3482 9.3148 13.4377 9.23277 13.4899 9.1843C13.7733 9.24023 13.7808 9.45649 13.9001 9.58326C14.2394 9.65783 14.5824 9.73986 14.9292 9.8107C15.138 9.84798 15.3579 9.99713 15.5667 9.79951C15.7644 9.91883 15.9433 9.78833 16.1298 9.77341C16.2155 9.76596 16.2789 9.75477 16.2901 9.66528C16.3013 9.5758 16.3572 9.50869 16.428 9.53106C16.5772 9.57207 16.7077 9.4975 16.7562 9.41174C16.9463 9.08736 17.2968 8.99042 17.5653 8.7667C17.61 8.61756 17.6137 8.4274 17.8151 8.36029L17.912 7.92032C18.0649 7.77863 18.1879 7.95388 18.2998 7.91286C18.3967 8.08065 18.2923 8.1925 18.2998 8.31182C18.3669 8.41622 18.434 8.52434 18.5272 8.66603C18.5272 8.66976 18.5272 8.67722 18.5272 8.68094C18.5272 8.69213 18.5198 8.70332 18.5198 8.7145C18.5048 8.77416 18.4862 8.84127 18.475 8.91584C18.4601 9.06126 18.572 9.06499 18.6689 9.08363C18.7174 9.4975 19.0082 9.78833 19.2095 10.1239C19.2953 10.2656 19.3363 10.4557 19.5302 10.5191C19.7427 10.59 19.5787 10.8249 19.7204 10.9554C19.8397 11.0635 19.9515 11.194 20.0634 11.3096C20.1827 11.4326 20.3095 11.4625 20.4474 11.496C20.5481 11.5184 20.6339 11.5445 20.6861 11.6489C20.7532 11.7868 20.9098 11.7235 21.0142 11.7831C21.1931 11.9807 21.2416 12.2902 21.5324 12.3871C21.6779 12.622 21.8195 12.8569 21.9575 13.0806L22.2558 13.1478C22.4981 13.4125 22.5764 13.7891 22.912 13.9606C22.9717 13.9867 23.0313 14.0836 23.0276 14.147C23.0201 14.3036 23.0611 14.4453 23.1693 14.5497C23.2774 14.6541 23.1767 14.8032 23.2625 14.8853C23.3781 15.0046 23.2625 15.1761 23.3818 15.2954C23.4638 15.3812 23.3184 15.6123 23.5757 15.6123C23.5981 15.6123 23.6391 15.6869 23.6391 15.7279C23.6577 16.0486 23.7696 16.3394 23.9597 16.5967C24.0753 16.7533 23.9896 16.9956 24.1723 17.1261C24.2245 17.5064 24.4817 17.7861 24.6682 18.103C24.6682 18.1067 24.6682 18.1105 24.6644 18.1179C24.6607 18.1403 24.6495 18.1627 24.6421 18.1888C24.6346 18.2149 24.6309 18.2335 24.6383 18.2447C24.7166 18.3305 24.821 18.3901 24.8993 18.4759C24.9664 18.5467 25.0037 18.6511 25.0671 18.7257C25.0932 18.7592 25.1641 18.7704 25.2051 18.7592C25.2461 18.7518 25.2946 18.707 25.3095 18.6698C25.3169 18.6474 25.3244 18.6213 25.3318 18.5989C25.3542 18.5206 25.3691 18.4423 25.3393 18.4013C25.2237 18.2559 25.3244 18.1105 25.302 17.9762C25.2759 17.8383 25.2163 17.7152 25.2349 17.5586C25.2535 17.4058 25.1976 17.2343 25.1342 17.0851C25.1044 17.0105 25.0671 16.9397 25.082 16.8726C25.082 16.8465 25.0932 16.8241 25.1119 16.8018C25.1454 16.7645 25.2461 16.7831 25.3132 16.7719C25.3356 16.7719 25.645 16.3916 25.6562 16.3506C25.6562 16.317 25.6562 16.2835 25.6637 16.2537C25.701 16.0374 25.8949 15.9069 25.9843 15.7205C26.0067 15.7093 26.0291 15.6906 26.0515 15.6944C26.1037 15.6981 26.1484 15.7167 26.2006 15.7279L27.8524 16.0933C27.8412 16.2387 27.8337 16.3767 27.8263 16.5147C27.9269 16.5855 28.0984 16.6004 28.0649 16.757C28.0611 16.7831 28.0537 16.8092 28.0388 16.839C28.0276 16.8577 28.0239 16.88 28.0201 16.8987C28.0052 17.0404 28.1171 17.1746 28.0947 17.3275C28.0947 17.3536 28.0873 17.3797 28.0761 17.4058C28.0388 17.4953 28.0164 17.5885 27.9978 17.6817C27.9791 17.7786 27.9642 17.8793 27.9418 17.98V17.9912L27.6958 19.0985C27.487 19.1545 27.4832 19.4267 27.2819 19.4938C27.1887 19.5273 27.0992 19.6541 27.0283 19.6392C26.8792 19.6094 26.786 19.6727 26.689 19.751C26.5958 19.8219 26.4541 19.8331 26.4206 19.9748C26.4206 19.9748 26.428 19.9748 26.428 19.9785C26.2888 20.1475 26.2056 20.2892 26.1782 20.4035C26.1037 20.7503 26.0142 21.0933 25.9545 21.4364C25.921 21.6265 25.7606 21.8316 25.8874 22.0105C26.0179 22.197 25.7718 22.4095 25.9694 22.5736C26.003 22.5997 25.9582 22.7115 25.962 22.7824C25.9843 23.2149 26.1708 23.5728 26.4728 23.8674C26.5175 23.9121 26.6107 23.9047 26.6816 23.9158C26.8867 23.7779 27.0955 23.6399 27.4012 23.4311C27.4049 23.4237 27.3341 23.2335 27.5131 23.1627C27.6324 23.1179 27.6137 22.9986 27.6324 22.9054C27.7368 22.4356 27.8374 21.9695 27.9418 21.5035C28.0723 21.414 28.1171 21.3804 28.1954 21.3618C28.2401 21.3469 28.2998 21.3394 28.3893 21.3245C28.4452 21.4699 28.5048 21.6302 28.572 21.798C28.5906 21.7868 28.613 21.7757 28.6316 21.7645C28.6353 21.7645 28.6391 21.7607 28.6428 21.757C28.6428 21.8055 28.654 21.854 28.6428 21.895C28.5608 22.1709 28.5943 22.4841 28.3222 22.6966C28.2439 22.7563 28.2588 22.9315 28.2327 23.0583C28.1991 23.2074 28.1954 23.3715 28.1283 23.4982C28.05 23.6399 27.9307 23.763 27.8076 23.8636C27.6883 23.9569 27.7219 24.0911 27.6622 24.2216C27.4049 24.3782 27.1253 24.5534 26.8382 24.7287C26.8382 24.7287 26.8307 24.7287 26.8307 24.7324L25.5966 24.4602C25.5779 24.5348 25.5295 24.628 25.5556 24.6616C25.7681 24.9114 25.7271 25.2805 25.9918 25.5229L25.4586 27.9352C25.5742 28.0396 25.7979 28.0359 25.6898 28.2633C25.8054 28.4721 25.8277 28.722 25.9657 28.9308C26.1409 29.1955 26.3833 29.4341 26.4467 29.766C26.4467 29.7697 26.4467 29.7771 26.4467 29.7809C26.607 29.7921 26.6853 29.9151 26.8009 30.0009C27.0097 30.1612 27.2409 30.2842 27.3639 30.534C27.3639 30.534 27.3639 30.534 27.3639 30.5378L27.0768 31.8316L27.0694 31.8614C27.1178 31.9695 27.1327 32.1299 27.1141 32.3387C27.1066 32.4021 27.0992 32.4692 27.088 32.54C27.088 32.5512 27.088 32.5624 27.0843 32.5773C27.1477 32.6444 27.2558 32.7525 27.3043 32.801C27.3043 32.8234 27.3043 32.8457 27.3043 32.8681C27.2968 32.939 27.2782 33.0023 27.2707 33.0583C27.2558 33.1478 27.267 33.2149 27.4012 33.2596C27.5615 33.3081 27.5764 33.4945 27.6771 33.5989C27.7815 33.7033 27.9829 33.6213 28.0574 33.7928C28.1618 34.0314 28.3408 33.7816 28.4974 33.8599C28.4974 33.8599 28.4974 33.8599 28.5011 33.8599C28.4676 34.0165 28.4079 34.1731 28.3818 34.3334C28.3706 34.3931 28.3669 34.4528 28.3669 34.5087C28.3781 34.7809 28.3855 35.0642 28.6764 35.2619C28.833 35.37 28.9858 35.4781 29.1648 35.5415C29.2617 35.7839 29.4966 35.7428 29.6831 35.7727C29.8695 35.8025 29.9254 35.933 30 36.0598C30.0224 36.0933 30 36.153 30 36.2015C30.0075 36.373 30.2051 36.4736 30.2088 36.6489C30.2088 36.6675 30.2051 36.6899 30.2013 36.7085C30.2013 36.7197 30.2013 36.7272 30.1939 36.7384C30.1864 36.757 30.2051 36.7868 30.22 36.8055C30.2349 36.8241 30.2573 36.8465 30.2722 36.8502C30.5183 36.8763 30.481 37.1783 30.742 37.279C30.8203 37.3498 31.0104 37.2753 31.1521 37.4393C31.2938 37.6034 31.5138 37.6332 31.7562 37.5512C32.2409 37.3834 32.3453 37.3424 32.7032 36.936C32.7852 36.8428 32.8188 36.7757 32.8151 36.7085C32.8113 36.6489 32.7778 36.5855 32.7107 36.5072C32.6324 36.4103 32.5131 36.3879 32.4236 36.2984C32.3154 36.1903 32.1141 36.1791 31.9687 36.1269C31.8717 36.0001 31.8046 35.8323 31.6816 35.7801C31.5511 35.7205 31.5287 35.6534 31.5436 35.5601C31.5474 35.5378 31.5511 35.5191 31.5585 35.493C31.5623 35.4707 31.5809 35.4408 31.5735 35.4222C31.5436 35.3327 31.4952 35.2469 31.4802 35.1537C31.4802 35.1314 31.4802 35.1127 31.484 35.0941C31.5175 34.9934 31.6779 34.9673 31.6816 34.8778C31.7002 34.5572 31.9687 34.49 32.1626 34.3521C32.2595 34.285 32.3565 34.3595 32.39 34.5236C32.4087 34.6355 32.4609 34.7473 32.4609 34.8592C32.4609 34.9748 32.4236 35.0866 32.3937 35.1985C32.3937 35.2097 32.3863 35.2208 32.3863 35.232C32.6361 35.5415 32.7554 35.9442 33.1133 36.1604C33.3482 36.5221 33.5757 36.8838 33.8106 37.2454C33.8367 37.2865 33.8889 37.3237 33.8889 37.3237L34.3661 37.4281C34.3885 37.3573 34.4295 37.2827 34.4221 37.238C34.4221 37.2305 34.4221 37.2231 34.4221 37.2193C34.355 37.1224 34.34 36.9807 34.1946 36.9397C34.038 36.8912 33.9523 36.7458 33.9672 36.6041C33.9821 36.4662 33.8367 36.3655 33.8702 36.2387C33.874 36.2238 33.8814 36.2052 33.8926 36.1903C33.8926 36.1865 33.8889 36.1828 33.8852 36.1791C33.8031 36.0299 33.7733 35.892 33.8031 35.7689C33.833 35.6422 33.9187 35.5266 34.0604 35.4259C34.0753 35.2432 34.3251 35.1836 34.3326 34.9934C34.3326 34.971 34.3326 34.9524 34.3289 34.9263C34.3214 34.889 34.3251 34.8592 34.3289 34.8331C34.3661 34.6802 34.5899 34.6243 34.601 34.4304C34.601 34.4192 34.601 34.408 34.6048 34.3931C34.6085 34.3372 34.616 34.2775 34.6234 34.2216C34.657 34.0165 34.7204 33.8152 34.7726 33.6138C34.7837 33.5765 34.7875 33.5393 34.7875 33.5057C34.7875 33.4199 34.7576 33.3491 34.7129 33.2633C34.6943 33.2298 34.698 33.2 34.7054 33.1701C34.7204 33.1142 34.7726 33.062 34.8359 33.0322C34.8993 33.0023 34.9627 32.9613 35 32.9427L36.044 33.1739C36.1298 33.3193 36.1745 33.4013 36.1745 33.4647C36.1745 33.543 36.1148 33.5989 35.962 33.707C35.7867 33.8375 35.6972 34.0165 35.5667 34.1731C35.563 34.1806 35.5556 34.188 35.5518 34.1918C35.6376 34.3334 35.7122 34.4602 35.7905 34.587C35.7905 34.587 35.7905 34.587 35.7905 34.5907L35.5369 35.7391L35.5295 35.7727C35.6935 35.9106 35.5667 36.1791 35.7457 36.2984C35.9135 36.4103 36.044 36.5445 36.1409 36.716C36.1596 36.7495 36.2192 36.7719 36.264 36.7794C36.3945 36.798 36.4952 36.8465 36.5623 36.9733C36.6294 37.1075 36.7226 37.2305 36.8046 37.3573C36.9799 37.1522 37.1887 37.0217 37.431 36.9695C37.4236 36.9584 37.4198 36.9509 37.4124 36.9397C37.349 36.8316 37.2968 36.7309 37.1626 36.6489C36.9165 36.4997 36.6629 36.2947 36.5996 36.0076C36.5585 35.8323 36.4914 35.6906 36.4131 35.5415C36.3796 35.4818 36.3684 35.4334 36.3833 35.3886C36.3945 35.3551 36.4169 35.3252 36.4691 35.2991C36.5958 35.2283 36.5697 35.068 36.689 35.0195C36.8345 34.9561 36.8046 34.8144 36.8568 34.7063C36.8829 34.6466 36.9538 34.6056 37.0097 34.5572C37.0843 34.4938 37.1999 34.4528 37.2297 34.3707C37.3565 34.0426 37.6771 34.1321 37.9083 34.0389C37.9903 34.0053 38.1618 34.0389 38.2215 34.1843C38.2886 34.3558 38.4527 34.4229 38.5682 34.5422C38.7025 34.6802 38.7919 34.8704 38.8777 35.0083L39.5824 35.1649C39.7465 35.0829 39.8732 35.0158 39.9814 34.9598V34.1731C39.8807 34.1582 39.7502 34.1619 39.7129 34.106C39.5861 33.9196 39.3289 33.8711 39.2692 33.6325L39.2767 33.6026L39.4183 32.9688C39.4183 32.9688 39.4221 32.9464 39.4258 32.9315C39.5377 32.4244 39.6495 31.9173 39.7614 31.414C39.5563 31.2089 39.7353 30.9889 39.7353 30.7764C39.6831 30.6906 39.616 30.6123 39.5787 30.5191C39.5339 30.411 39.5153 30.2991 39.4817 30.1836C39.2878 30.1836 39.2841 29.9785 39.1723 29.8965C38.9821 29.7622 38.8442 29.546 38.5794 29.5124C38.3594 29.4863 38.1432 29.4192 37.9307 29.3745C37.9605 29.0389 37.9717 29.0426 38.1357 28.7518C38.2028 28.6287 38.2289 28.4721 38.27 28.3305C38.1022 28.0061 38.2774 27.7041 38.3222 27.3946C38.3333 27.3237 38.3669 27.2305 38.3333 27.1821C38.2327 27.0105 38.2588 26.8129 38.1767 26.6377C38.3893 26.317 37.9866 26.3096 37.9232 26.1269C37.9008 26.0598 37.8747 25.9927 37.8747 25.9218C37.8747 25.8361 37.8524 25.7839 37.7666 25.7578C37.6734 25.7317 37.5727 25.7093 37.4981 25.6534C37.006 25.2805 37.0097 25.2805 36.6219 25.1947C36.4019 25.1463 36.1782 25.0978 35.9657 25.0493C35.9172 24.9785 35.8613 24.9188 35.8389 24.848C35.7867 24.6839 35.5854 24.6988 35.5257 24.5609C35.4586 24.408 35.4101 24.2477 35.3505 24.0948C35.3132 24.0053 35.2051 23.8823 35.2349 23.8375C35.3729 23.625 35.1156 23.4535 35.1976 23.2671C35.2871 23.0695 35.2051 22.8868 35.1641 22.7003C35.082 22.3498 35.0858 22.3498 35.1641 21.977C34.9888 21.716 34.8024 21.4475 34.6197 21.1791C34.4034 21.1493 34.4183 20.8771 34.2767 20.8211C34.0604 20.7317 34.0007 20.549 33.8889 20.3924C33.7882 20.2469 33.6987 20.0941 33.6018 19.9449C33.4974 19.7771 33.4191 19.3595 33.4564 19.188C33.5011 18.9643 33.5682 18.7443 33.5981 18.5206C33.6279 18.3081 33.4638 18.0993 33.5831 17.8793C33.6018 17.8383 33.6055 17.7786 33.5869 17.7376C33.4937 17.4915 33.3781 17.2454 33.4713 16.9733C33.3296 16.7234 33.3147 16.4289 33.2289 16.1604C33.1618 15.9516 33.1656 15.7391 32.9046 15.6534C32.83 15.631 32.7442 15.4893 32.7517 15.4073C32.7629 15.2693 32.7293 15.1649 32.651 15.068C32.5615 14.9561 32.5354 14.7995 32.349 14.7585C32.2782 14.7436 32.1775 14.5982 32.1849 14.5236C32.2036 14.3297 32.0619 14.2141 32.0097 14.0538C31.9202 13.7891 31.8568 13.5094 31.8195 13.2335C31.8046 13.1179 31.8456 13.0061 31.7711 12.883C31.7151 12.7861 31.7711 12.6481 31.6741 12.5437C31.5213 12.3759 31.5362 12.1448 31.4765 11.9397C31.428 11.7831 31.4318 11.6041 31.3572 11.4662C31.2155 11.2015 31.0403 10.9479 30.8688 10.6981C30.701 10.452 30.7084 10.1351 30.4996 9.90391C30.3654 9.7585 30.2983 9.5497 30.1641 9.40056C29.9963 9.20667 29.9329 8.95686 29.8919 8.73314C29.8434 8.47215 29.7427 8.24843 29.5563 8.11047C29.4221 8.01726 29.3363 7.90913 29.2729 7.78236C29.1872 7.62203 29.0343 7.54746 28.9224 7.42815C28.7696 7.26782 28.4489 7.20816 28.5384 6.86886C28.5459 6.84276 28.4452 6.77565 28.3818 6.75328C28.2923 6.71972 28.1879 6.72345 28.1283 6.61905C28.0947 6.56685 28.0015 6.54821 27.9568 6.49974C27.8598 6.38415 27.7852 6.25738 27.6958 6.13807C27.4161 6.13807 27.4348 5.81741 27.2297 5.70182C27.0507 5.60115 26.9575 5.3588 26.827 5.1761C26.7823 5.11271 26.7487 5.00086 26.7002 4.9934C26.5436 4.97848 26.5175 4.82934 26.4206 4.77714C26.2864 4.71376 26.1298 4.68393 25.9769 4.6802C25.7755 4.6802 25.7569 4.44157 25.5518 4.40801C25.2498 4.35954 24.8919 4.3931 24.6831 4.07617L23.4228 3.79653C23.0425 4.00906 22.6995 3.7406 22.3378 3.71077C22.2893 3.70332 22.226 3.6623 22.1924 3.68094C21.8084 3.88974 21.4579 3.65112 21.1074 3.584C20.3095 3.43486 19.5265 3.24097 18.7323 3.06946C18.516 2.91286 18.311 3.15149 18.0947 3.08437C17.8561 3.26335 17.5317 3.17759 17.2856 3.34537C17.0358 3.30436 16.8755 3.48333 16.6928 3.60264C16.6219 3.64739 16.5884 3.80772 16.5287 3.81144C16.4243 3.81517 16.3386 3.81144 16.2491 3.87483C15.9955 4.04634 15.7383 4.20294 15.4735 4.37073C15.3318 4.3409 15.1641 4.25141 15.041 4.29243C14.8956 4.3409 14.7651 4.41547 14.6234 4.33717C14.437 4.2365 14.2953 4.43411 14.1312 4.38564C13.7919 4.28497 13.4638 4.29243 13.1469 4.45649C13.1096 4.47513 13.05 4.44903 13.0052 4.45276C12.6025 4.47513 12.487 4.50123 12.2558 4.64664C11.8084 4.93374 11.3609 5.21711 10.9098 5.50421C10.6935 5.64217 10.4698 5.75775 10.2759 5.91808C10.1566 6.01502 10.0932 6.18654 9.98882 6.31331C9.92916 6.38788 9.83595 6.44008 9.75765 6.49228C9.56749 6.61532 9.3736 6.73464 9.18345 6.86141C9.14243 6.88751 9.10888 6.92106 9.07532 6.95089C9.02685 7.06648 9.06786 7.21935 8.92245 7.27155C8.86279 7.29765 8.78449 7.26409 8.69128 7.25663L8.58315 7.74508C8.44519 7.83083 8.33706 7.90168 8.22894 7.97252C8.21402 8.03963 8.20284 8.11793 8.18046 8.18877C8.15064 8.27826 8.16555 8.38266 8.07606 8.46096C7.75914 8.7406 7.59508 9.17311 7.21104 9.3931C7.17375 9.41547 7.13274 9.46021 7.12528 9.4975C7.09918 9.6541 7.02834 9.75477 6.9053 9.8629C6.81208 9.94493 6.827 10.1425 6.79344 10.3066C6.6443 10.3961 6.50634 10.5042 6.34601 10.5788C6.15958 10.6645 6.07756 10.8547 5.92468 10.9666C5.77927 11.071 5.69724 11.2126 5.5742 11.3245C5.42879 11.4587 5.24236 11.5445 5.09694 11.6377C5.0522 11.8465 4.9739 12.018 4.98136 12.1895C4.98882 12.4095 4.76137 12.4356 4.7129 12.6146C4.61596 12.9874 4.6607 13.4199 4.32513 13.707C4.26548 13.9755 4.20582 14.2514 4.14616 14.5199C4.10888 14.6877 4.0343 14.8629 4.19463 15.0083C4.14243 15.1761 4.14616 15.329 4.22819 15.5079C4.28039 15.6198 4.17972 15.7988 4.14616 15.9479C4.13498 15.9964 4.13125 16.0449 4.12006 16.0933C4.17226 16.1754 4.21328 16.2835 4.28785 16.3431C4.35869 16.3953 4.49292 16.3767 4.48546 16.5147C4.478 16.6116 4.45936 16.7085 4.4519 16.8055C4.4519 16.8278 4.47427 16.8539 4.48919 16.8689C4.62715 17.0366 4.70172 17.2082 4.59359 17.4207C4.73155 17.5698 4.69799 17.7413 4.64206 17.9091C4.86204 18.2522 5.0783 18.5915 5.29456 18.9345C5.30947 18.9531 5.33557 18.9941 5.33557 18.9941L5.20507 19.5795C5.14169 19.628 5.04102 19.6616 5.0261 19.7175C4.92916 20.0866 4.85459 20.4557 4.77256 20.8286C4.88814 21.1157 4.90679 21.4252 5.01864 21.7123C5.05593 21.8167 5.03356 21.9509 5.11932 22.0478C5.0261 22.2044 5.22372 22.3126 5.19016 22.4617C5.1827 22.5027 5.19016 22.5885 5.21626 22.5922C5.50709 22.7003 5.56674 22.9986 5.7308 23.2074C5.8613 23.3789 5.92841 23.6138 6.21551 23.625C6.2789 23.625 6.33483 23.7704 6.39821 23.845C6.44295 23.9009 6.49143 23.9606 6.55108 23.9941C6.62938 24.0426 6.77853 24.0426 6.80463 24.106C6.86428 24.244 7.02461 24.2179 7.10291 24.3446L6.81208 25.6534C6.78598 25.7801 6.73751 25.9032 6.73751 26.0262C6.73751 26.1418 6.79344 26.2537 6.80463 26.3692C6.81208 26.4438 6.7748 26.5184 6.75988 26.593C6.8792 26.8055 6.98732 27.0105 7.21477 27.1485C7.4012 27.2641 7.37137 27.5363 7.43102 27.7413C7.50187 27.98 7.49068 27.9762 7.68829 28.1366C7.90828 28.3193 8.13945 28.502 8.26622 28.7779C8.31096 28.8711 8.37435 28.9494 8.42655 29.0352C8.51231 29.1731 8.46756 29.3073 8.29978 29.4378L7.87845 31.3469V31.3618C7.91201 31.3916 7.93811 31.4252 7.95302 31.4625L7.99776 31.4774Z" fill="#391900"/>
<path d="M22.3117 40.8099C22.3714 40.7055 22.5354 40.6272 22.528 40.5042C22.8188 40.3252 23.0723 40.0791 23.4116 39.9859C23.4116 39.9859 23.4154 39.9859 23.4191 39.9859C23.5048 39.7771 23.7397 39.7622 23.8852 39.6205C23.9821 39.6429 24.079 39.6839 24.176 39.6802C24.2692 39.6802 24.3289 39.5907 24.4444 39.5795C24.7278 39.5609 24.9068 39.3111 25.1454 39.2104C25.2051 38.983 25.1976 38.7406 25.4288 38.6213C25.4362 38.4349 25.5779 38.3305 25.6674 38.1925C25.7569 38.0583 25.7457 37.8532 25.7942 37.6854C25.8725 37.4095 25.8501 37.0963 26.1148 36.88C26.2081 36.8017 26.1596 36.5519 26.2565 36.4774C26.4019 36.3692 26.4243 36.2387 26.4541 36.097C26.4877 35.9479 26.5175 35.8025 26.5511 35.6533C26.6443 35.2357 26.7487 34.8181 26.827 34.3968C26.8531 34.2738 26.9165 34.1433 26.9053 34.0202C26.8978 33.9569 26.8755 33.8935 26.8121 33.8301C26.8121 33.8264 26.8121 33.8189 26.8121 33.8152C26.8494 33.625 26.8904 33.4311 26.9239 33.241C26.9239 33.2335 26.9239 33.2298 26.9239 33.2223C26.9202 33.2037 26.9128 33.1888 26.9016 33.1739C26.7823 33.0434 26.8829 32.8308 26.7375 32.7078C26.7375 32.7041 26.7375 32.7003 26.745 32.6929C26.7636 32.6556 26.7673 32.622 26.7599 32.5885C26.7412 32.5027 26.6555 32.4281 26.6629 32.3424C26.6629 32.3275 26.6704 32.3088 26.6779 32.2902C26.7189 32.2193 26.7189 32.156 26.704 32.0963C26.6853 32.0105 26.6368 31.9285 26.6219 31.839C26.6219 31.8316 26.6219 31.8278 26.6219 31.8204C26.6219 31.8129 26.6219 31.8055 26.6219 31.798C26.6219 31.6787 26.5548 31.5594 26.5548 31.4363C26.5548 31.3953 26.5623 31.3543 26.5846 31.3133C26.5846 31.3133 26.5846 31.3058 26.5772 31.3058C26.5399 31.2611 26.5213 31.2126 26.5138 31.1604C26.4989 31.0448 26.5399 30.9218 26.5213 30.8211C26.5175 30.8025 26.5101 30.7801 26.5026 30.7615C26.4765 30.7093 26.4653 30.6608 26.4616 30.6161C26.4504 30.493 26.5026 30.3812 26.5063 30.2581C26.5063 30.2507 26.5063 30.2432 26.5063 30.2395C26.5063 30.1761 26.484 30.1052 26.4504 30.0568C26.428 30.0232 26.4206 29.9934 26.4243 29.9636C26.4243 29.9002 26.4579 29.8442 26.4616 29.7809C26.4616 29.7771 26.4616 29.7697 26.4616 29.7659C26.3982 29.4341 26.1559 29.1955 25.9806 28.9308C25.8427 28.7182 25.8203 28.4721 25.7047 28.2633C25.8166 28.0396 25.5928 28.0434 25.4735 27.9352L26.0067 25.5228C25.742 25.2805 25.783 24.9114 25.5705 24.6615C25.5444 24.628 25.5891 24.5348 25.6115 24.4602C25.6115 24.4565 25.6115 24.449 25.6152 24.4453L25.6078 24.4341C25.645 24.2887 25.5257 24.2029 25.4549 24.1097C25.4474 24.0985 25.4437 24.0874 25.4362 24.0762C25.4139 24.0389 25.3952 24.0016 25.3766 23.9643C25.2796 23.7481 25.2535 23.502 25.0858 23.323C25.22 23.1067 25.0298 22.9017 25.0485 22.6891C25.0559 22.5922 24.9105 22.4803 24.9851 22.3498C25.1342 22.0926 24.8732 21.8428 24.9888 21.5631C25.1044 21.2872 25.1305 20.974 25.1939 20.6794C25.2535 20.411 25.3132 20.1351 25.3729 19.8666C25.399 19.7436 25.4325 19.6243 25.4623 19.5012C25.7308 19.4453 25.5928 19.0687 25.8464 19.0016C25.9359 18.7816 26.0776 18.6474 26.346 18.6735C26.4243 18.6809 26.5026 18.5504 26.6443 18.6101C26.6443 18.6101 26.648 18.6176 26.6518 18.6176C26.6779 18.6548 26.7263 18.707 26.7673 18.7667C26.8717 18.9419 26.8568 18.9941 26.6779 19.1209C26.6145 19.1619 26.5511 19.2029 26.4802 19.2514C26.4355 19.4602 26.387 19.6727 26.346 19.889C26.346 19.889 26.346 19.8964 26.3535 19.9002C26.3758 19.9188 26.4206 19.9412 26.4467 19.9598C26.4765 19.8107 26.6294 19.7995 26.7226 19.7249C26.8158 19.6466 26.9128 19.5832 27.0619 19.6131C27.1365 19.6243 27.2222 19.5012 27.3154 19.4677C27.5242 19.4005 27.5242 19.1284 27.7293 19.0724L27.9717 17.9762V17.9651C27.9978 17.8681 28.009 17.7674 28.0313 17.6668C28.05 17.5661 28.0723 17.4692 28.1134 17.3759C28.1208 17.3536 28.1283 17.3349 28.1283 17.3126C28.1506 17.1597 28.0388 17.0255 28.0537 16.8838C28.0537 16.8577 28.0612 16.8353 28.0761 16.8092C28.0873 16.7831 28.0947 16.7607 28.1022 16.7384C28.1357 16.5818 27.9642 16.5668 27.8635 16.496C27.871 16.358 27.8785 16.2201 27.8896 16.0747L26.2379 15.7093C26.1857 15.6981 26.1409 15.6794 26.0887 15.6757C26.0664 15.6757 26.044 15.6906 26.0216 15.7018C25.9321 15.8882 25.7383 16.0187 25.701 16.235C25.6972 16.2648 25.6935 16.2947 25.6935 16.3282C25.6935 16.3282 25.6935 16.3282 25.6935 16.3319C25.6823 16.373 25.3729 16.7495 25.3505 16.7533C25.2796 16.7645 25.1827 16.7458 25.1491 16.7831C25.1305 16.8055 25.1193 16.8278 25.1193 16.8539C25.1119 16.9173 25.1454 16.9844 25.1752 17.0516C25.2349 17.2007 25.2946 17.3722 25.2759 17.5251C25.2573 17.6817 25.3207 17.8047 25.343 17.9427C25.3654 18.0769 25.2685 18.2149 25.3803 18.3677C25.4139 18.4088 25.3915 18.4982 25.3691 18.5803C25.3617 18.6064 25.3542 18.6287 25.3468 18.6511C25.3356 18.6884 25.2834 18.7369 25.2424 18.7406C25.1976 18.7481 25.1305 18.7406 25.1044 18.707C25.041 18.6325 25.0037 18.5318 24.9366 18.4572C24.8583 18.3715 24.7539 18.3118 24.6756 18.2261C24.6682 18.2186 24.6756 18.1962 24.6793 18.1701C24.6868 18.1478 24.6943 18.1217 24.7017 18.0993C24.7017 18.0956 24.7017 18.0918 24.7054 18.0844C24.519 17.7674 24.258 17.4878 24.2095 17.1075C24.0268 16.977 24.1126 16.7346 23.997 16.578C23.8031 16.3208 23.695 16.0337 23.6764 15.7093C23.6764 15.6683 23.6354 15.5937 23.613 15.5937C23.3557 15.5937 23.5011 15.3625 23.4191 15.2768C23.3035 15.1574 23.4191 14.9859 23.2998 14.8666C23.2178 14.7846 23.3184 14.6317 23.2066 14.5311C23.0947 14.4304 23.0574 14.285 23.0649 14.1284C23.0649 14.065 23.0052 13.968 22.9493 13.9419C22.6137 13.7704 22.5392 13.3938 22.2931 13.1291L21.9948 13.062C21.8606 12.8383 21.7151 12.6034 21.5697 12.3685C21.2789 12.2715 21.2304 11.9621 21.0515 11.7645C20.9471 11.7085 20.7905 11.7719 20.7233 11.6302C20.6711 11.5258 20.5854 11.4997 20.4847 11.4774C20.3468 11.4438 20.22 11.414 20.1007 11.2909C19.9851 11.1753 19.877 11.0448 19.7576 10.9367C19.616 10.8062 19.7763 10.5713 19.5675 10.5005C19.3736 10.4334 19.3326 10.2469 19.2468 10.1052C19.0455 9.76968 18.7547 9.47885 18.7062 9.06498C18.6092 9.04634 18.4974 9.04261 18.5123 8.89719C18.5235 8.82262 18.5421 8.75551 18.557 8.69585C18.557 8.68467 18.5645 8.66975 18.5645 8.66229C18.5645 8.65857 18.5645 8.65111 18.5645 8.64738C18.4713 8.50197 18.4042 8.39757 18.3371 8.29317C18.3296 8.17385 18.4377 8.062 18.3371 7.89421C18.2252 7.93895 18.1022 7.76371 17.9493 7.90167L17.8524 8.34164C17.651 8.40502 17.6436 8.59891 17.6025 8.74805C17.3341 8.97177 16.9799 9.06871 16.7934 9.39309C16.745 9.47885 16.6145 9.55342 16.4653 9.51241C16.3945 9.49376 16.3386 9.56088 16.3274 9.64664C16.3162 9.73612 16.2528 9.74731 16.167 9.75476C15.9769 9.76968 15.7979 9.90018 15.604 9.78086C15.3952 9.97475 15.179 9.82933 14.9664 9.79205C14.6197 9.72121 14.2767 9.63918 13.9374 9.56461C13.818 9.43784 13.8106 9.21785 13.5272 9.16565C13.475 9.21412 13.3893 9.29615 13.2625 9.41546L13.1805 9.78086C13.0201 9.88526 12.8747 9.98221 12.733 10.0754C12.6025 10.0754 12.487 9.96729 12.3341 10.0754L12.17 10.8174C12.0507 10.892 11.9463 10.9293 11.8867 11.0038C11.704 11.235 11.5324 11.4736 11.1894 11.455C11.1521 11.455 11.0962 11.5035 11.085 11.5407C11.0664 11.5892 11.0515 11.6414 11.0403 11.6936C11.0291 11.7421 11.0216 11.7906 11.0216 11.8353C11.0216 11.8353 11.0216 11.8353 11.0216 11.839C11.0142 11.9882 10.8315 11.9956 10.8091 12.1112C10.742 12.3797 10.6898 12.6556 10.6301 12.924C10.742 13.1291 10.7271 13.323 10.6786 13.5169C10.6301 13.707 10.5518 13.8897 10.522 14.0799C10.481 14.3297 10.4288 14.5758 10.3729 14.8181C10.3169 15.0568 10.261 15.2954 10.2088 15.5303C10.3169 15.6086 10.4549 15.6571 10.4586 15.713C10.4586 15.7503 10.4586 15.7876 10.4512 15.8249C10.4474 15.8547 10.4437 15.8845 10.44 15.9143C10.4288 16.015 10.4288 16.112 10.5257 16.1977V16.2126L10.4101 16.716L10.6339 16.7645C10.7755 16.675 10.921 16.5743 11.0701 16.4885C11.1745 16.4252 11.2826 16.373 11.3945 16.317C11.3945 16.317 11.4019 16.3133 11.4057 16.3133C11.484 16.3655 11.5585 16.3692 11.6331 16.3543C11.7114 16.3357 11.7897 16.2984 11.8717 16.2872C11.9277 16.276 11.9873 16.2723 12.047 16.2947C12.308 16.3841 12.5802 16.4401 12.8561 16.4736C13.0649 16.4997 13.1917 16.6414 13.3594 16.7309C13.5235 16.8204 13.4862 16.9136 13.4601 17.0292C13.4489 17.0777 13.4303 17.1187 13.4116 17.1671C13.4079 17.1671 13.4042 17.1671 13.4004 17.1671C13.352 17.1746 13.3072 17.2044 13.2625 17.1932C12.8934 17.1149 12.5242 17.0292 12.1551 16.9546C11.9873 16.9211 11.8233 16.8204 11.648 16.8875C11.6145 16.8987 11.5809 16.9099 11.5474 16.9211C11.428 16.9583 11.305 16.9807 11.182 17.0105C11.0216 17.0516 10.865 17.1038 10.7308 17.2193C10.6749 17.2678 10.5817 17.279 10.5854 17.3759C10.5257 17.5288 10.5406 17.663 10.6488 17.7898C10.4847 18.0247 10.7755 18.2633 10.6488 18.4982C10.7979 18.7257 10.6301 19.0202 10.7905 19.2514C10.7569 19.3931 10.7345 19.5236 10.824 19.6727C10.8688 19.7548 10.8054 19.9151 10.7681 20.0307C10.7196 20.1873 10.9247 20.2842 10.8389 20.4445C10.7905 20.534 10.7979 20.6347 10.8725 20.7205C11.0365 20.9106 11.0291 21.1642 11.0887 21.3916C11.1223 21.5221 11.182 21.6489 11.2006 21.798C11.223 21.9546 11.3796 22.0926 11.4691 22.2454C11.5362 22.3685 11.4691 22.54 11.5996 22.6481C11.689 22.719 11.8456 22.801 11.8456 22.8718C11.8456 23.021 11.868 23.0769 12.0134 23.1403C12.0805 23.1664 12.0694 23.3528 12.1178 23.4498C12.1999 23.6026 12.3043 23.7481 12.4012 23.8972L12.6436 24.2812C12.7368 24.4266 12.83 24.5758 12.9269 24.7249C13.0089 24.8517 13.091 24.9785 13.1693 25.109C13.2625 25.2544 13.3557 25.4035 13.4527 25.5527C13.5347 25.6794 13.5943 25.8323 13.7025 25.9293C13.8255 26.0374 13.9672 26.1082 13.9336 26.3058C14.094 26.3804 14.1984 26.5035 14.2878 26.6563C14.4295 26.895 14.5861 27.1261 14.7315 27.3573C14.8658 27.5698 15.0261 27.7712 15.1305 27.9949C15.2498 28.2522 15.522 28.3677 15.645 28.5989C15.7979 28.886 16.1111 29.0314 16.2528 29.326C16.2752 29.3782 16.3908 29.3782 16.4318 29.4304C16.4914 29.5161 16.5511 29.5683 16.6592 29.6019C16.7151 29.6168 16.7338 29.7399 16.7934 29.7697C16.8792 29.8144 16.9873 29.8181 17.0843 29.8405L17.3043 29.889C17.4273 29.9151 17.5541 29.93 17.6697 29.9747C17.8151 30.0344 17.9008 29.9226 18.0164 29.9002C18.1059 29.8815 18.2289 29.9747 18.3072 29.9412C18.4228 29.8927 18.5421 29.889 18.6465 29.8517C19.0268 29.7175 19.4556 29.6951 19.7726 29.3968C20.1715 29.3819 20.4176 29.0575 20.7494 28.9046C20.9694 28.8003 21.2118 28.7742 21.4094 28.6138C21.607 28.4572 21.8345 28.3379 22.0433 28.2037C22.2521 28.0695 22.4571 27.9129 22.6846 27.801C22.7256 27.7824 22.7591 27.7563 22.789 27.7264C22.8785 27.6407 22.9381 27.5363 23.0276 27.458C23.0276 27.458 23.0313 27.4542 23.0351 27.4505C23.1469 27.3536 23.2849 27.279 23.4154 27.2119C23.4489 27.1932 23.5198 27.2119 23.557 27.2417C23.5906 27.2678 23.6055 27.3275 23.6018 27.3722C23.5981 27.4468 23.5831 27.5214 23.5533 27.5922C23.5421 27.6146 23.5235 27.6332 23.4974 27.6481C23.4787 27.663 23.4601 27.6742 23.4452 27.6929C23.2886 27.8644 23.1655 28.062 23.0015 28.2298C22.9717 28.2596 22.9269 28.3081 22.9307 28.3454C22.953 28.5728 22.6436 28.6287 22.6659 28.8413C22.6771 28.9606 22.6137 29.0426 22.5503 29.1172C22.5354 29.1321 22.5242 29.147 22.5093 29.1619C22.4609 29.2178 22.4161 29.2701 22.4049 29.3409C22.3863 29.4528 22.3341 29.5236 22.2707 29.5758C22.2073 29.6317 22.1327 29.669 22.0619 29.7212C22.047 29.7324 22.0283 29.7473 22.0134 29.7622C21.9948 29.7809 21.9836 29.7995 21.9836 29.8144C21.9948 30.0158 21.7972 30.0903 21.7338 30.2395C21.7226 30.2656 21.7077 30.2879 21.689 30.3103C21.6406 30.3737 21.5735 30.4222 21.525 30.4856C21.4914 30.534 21.4691 30.59 21.4802 30.6645C21.4877 30.6869 21.4802 30.7205 21.4653 30.7354C21.4653 30.7354 21.4579 30.7391 21.4579 30.7428C21.3684 30.8286 21.2491 30.8696 21.1559 30.9554C21.126 30.9852 21.0962 31.0187 21.0738 31.0598C21.0552 31.097 21.0254 31.1306 20.9918 31.1642C20.9023 31.2536 20.7718 31.3245 20.6562 31.3767C20.5332 31.4289 20.3729 31.4848 20.2535 31.4774C20.0783 31.4662 19.9441 31.6601 19.7576 31.5445C19.7166 31.5146 19.6234 31.5594 19.5563 31.578C19.3028 31.6489 19.0529 31.7346 18.7845 31.634C18.6391 31.578 18.5384 31.7794 18.3706 31.7048C18.214 31.6377 18.0313 31.6228 17.8561 31.5855L17.4198 31.4885C17.3826 31.675 17.2819 31.8651 17.4534 32.0366C17.4273 32.2529 17.2744 32.4729 17.3714 32.6817C17.4795 32.924 17.3453 33.1142 17.3192 33.3267C17.2968 33.5243 17.2371 33.7182 17.1961 33.9158C17.1849 33.9606 17.1924 34.0202 17.2148 34.0538C17.3453 34.2253 17.2222 34.3856 17.2073 34.5497C17.1961 34.5982 17.1663 34.6504 17.1738 34.6951C17.1999 34.8517 17.1999 35.0419 17.2856 35.1574C17.4124 35.3327 17.2185 35.4967 17.3304 35.6459C17.4497 35.8062 17.39 35.9032 17.2371 36.0001C17.1887 36.0262 17.1477 36.1604 17.17 36.1828C17.2893 36.2984 17.2036 36.4699 17.2931 36.5855C17.4348 36.7756 17.5093 37.0143 17.7293 37.1597C17.9008 37.2753 18.0164 37.4617 18.0574 37.678C18.0574 37.6817 18.0574 37.6891 18.0612 37.6929C18.1245 37.7227 18.214 37.7041 18.2737 37.7413C18.2923 37.7563 18.311 37.7749 18.3184 37.8047C18.3259 37.8271 18.3371 37.8457 18.3482 37.8607C18.4377 37.98 18.6353 37.9278 18.7397 38.0396C18.7584 38.0583 18.7733 38.0844 18.7845 38.1142C18.7845 38.1142 18.7845 38.1142 18.7845 38.1217C18.8031 38.1776 18.9523 38.2074 19.0455 38.2223C19.2953 38.2596 19.4183 38.5355 19.6756 38.5467C19.6756 38.5467 19.6831 38.5542 19.6868 38.5542C19.7017 38.5654 19.7129 38.5877 19.7166 38.6064C19.7166 38.6287 19.7054 38.6548 19.7017 38.6772C19.821 38.7033 19.9441 38.7108 20.0112 38.8524C20.0373 38.8972 20.1715 38.9494 20.1902 38.9308C20.4959 38.6325 20.5817 39.1023 20.7979 39.1023C20.8799 39.229 20.962 39.3558 21.0701 39.5273C21.0291 39.7063 20.9806 39.9263 20.9359 40.1425C20.9359 40.1425 20.9359 40.1425 20.9359 40.1463C20.906 40.2842 20.8389 40.4222 20.9657 40.5639C20.9918 40.5937 20.9806 40.6571 20.9657 40.7205C20.962 40.7391 20.9545 40.7615 20.9508 40.7764C20.9508 40.7764 20.9508 40.7801 20.9508 40.7838C20.9359 40.8547 20.921 40.9218 20.9023 40.9926H22.3788C22.3788 40.9926 22.349 40.9628 22.3453 40.9479C22.3154 40.892 22.3229 40.8435 22.3453 40.8025L22.3117 40.8099ZM15.1491 23.2447C15.1081 23.2298 15.0671 23.2223 15.0261 23.2111C14.9515 23.1888 14.8732 23.1701 14.7987 23.1515C14.5973 23.1067 14.396 23.0695 14.1984 23.0284C14.0343 22.7674 13.8665 22.5102 13.6801 22.2156C13.6987 22.1261 13.7248 22.0255 13.7509 21.9211C13.777 21.8167 13.7994 21.7085 13.8106 21.5967C13.833 21.3879 13.7025 21.1828 13.7919 20.9554C13.8292 20.8659 13.8516 20.7652 13.8702 20.6683C13.8889 20.5676 13.9038 20.4706 13.9262 20.37C13.9746 20.1463 14.0119 19.9263 14.0716 19.7026C14.1089 19.5721 14.0604 19.4751 14.0157 19.3558C13.9784 19.2514 14.0306 19.1172 14.0418 19.0053C13.9075 18.8972 13.7509 18.9121 13.6092 18.8636C13.4787 18.8189 13.4638 18.584 13.2625 18.6586C13.2438 18.6698 13.2103 18.6809 13.2028 18.6996C13.1469 18.9457 13.0947 19.1918 13.0425 19.4304C12.8859 19.6243 12.6286 19.5609 12.4385 19.6765C12.3751 19.71 12.1961 19.6765 12.1588 19.6131C12.0656 19.4714 11.9463 19.4229 11.8009 19.3782C11.7226 19.3558 11.6443 19.2514 11.6145 19.1694C11.5585 19.0165 11.525 18.8525 11.5026 18.6921C11.5026 18.6847 11.5026 18.6772 11.5026 18.666C11.5026 18.6399 11.5026 18.6101 11.4989 18.5915C11.4914 18.5654 11.4728 18.5504 11.4169 18.5616C11.3908 18.5654 11.3609 18.6362 11.3497 18.6772C11.3199 18.763 11.2714 18.7928 11.182 18.7816C11.0664 18.763 11.0365 18.7294 11.0626 18.5654C11.0887 18.405 11.1335 18.2596 10.8949 18.241C10.8725 18.241 10.8464 18.1589 10.8464 18.1142C10.8464 18.0695 10.8799 18.0284 10.9135 17.9576L11.3796 18.0583C11.4579 18.0098 11.4952 17.9688 11.5026 17.9129C11.5063 17.8569 11.4765 17.7824 11.4131 17.663C11.4318 17.6556 11.4541 17.6407 11.4728 17.6295C11.4952 17.6183 11.5175 17.6071 11.5324 17.6108C11.648 17.6369 11.786 17.6183 11.8531 17.7563C11.9202 17.8942 12.0656 17.8793 12.1812 17.8979C12.2409 17.9054 12.3117 17.8383 12.3975 17.7973C12.748 17.8756 13.1171 17.9613 13.4862 18.0359C13.6428 18.0695 13.7696 18.1105 13.8441 18.2671C13.8553 18.2857 13.8889 18.2969 13.9336 18.3081C13.9746 18.3118 14.0194 18.3155 14.0529 18.323L14.2319 17.5139C14.4743 17.4654 14.478 17.4654 14.5078 17.6668C14.5153 17.7041 14.5227 17.7376 14.5339 17.7712C14.5675 17.8905 14.6085 18.0061 14.5675 18.144C14.5675 18.1478 14.5675 18.1515 14.5675 18.1552C14.5377 18.241 14.5078 18.3267 14.4892 18.4125C14.4594 18.5579 14.4594 18.707 14.5488 18.8636C14.5861 18.927 14.5153 19.0426 14.4966 19.1358C14.4966 19.1433 14.4966 19.147 14.4929 19.1545C14.4929 19.1768 14.4855 19.2029 14.478 19.2253C14.4594 19.2962 14.4333 19.367 14.4221 19.4378C14.4072 19.5348 14.4146 19.628 14.5041 19.7212C14.5116 19.7287 14.5116 19.7398 14.5116 19.7548C14.5116 19.7659 14.5116 19.7734 14.5116 19.7846C14.5116 19.7846 14.5116 19.7883 14.5116 19.792C14.4817 19.93 14.4594 20.068 14.4333 20.2096C14.4072 20.3476 14.3736 20.4818 14.3214 20.6086C14.217 20.8584 14.4034 21.0747 14.34 21.3133V21.3208C14.299 21.4513 14.2692 21.5892 14.2394 21.7272C14.2095 21.8651 14.1834 22.0068 14.1536 22.1522C14.2468 22.2865 14.3475 22.4281 14.4743 22.6034C14.877 22.6929 15.3207 22.7898 15.7644 22.8868C15.783 22.8905 15.7979 22.9203 15.8166 22.939C15.8352 22.9949 15.8352 23.0583 15.8166 23.103C15.7979 23.1515 15.7681 23.1813 15.7233 23.1739C15.522 23.1366 15.3691 23.3006 15.1566 23.2298L15.1491 23.2447ZM20.0634 23.543C20.0336 23.6921 20 23.8375 19.9664 23.9867L19.8844 24.3558C19.7353 24.4788 19.5675 24.5497 19.4556 24.7398C19.3699 24.8927 19.1238 24.9561 18.9672 25.0754C18.8069 25.1947 18.6242 25.2283 18.4415 25.2917C18.2774 25.3476 18.1469 25.5378 17.9903 25.5527C17.9903 25.5527 17.9903 25.5527 17.9866 25.5527C17.9866 25.5527 17.9866 25.5527 17.9829 25.5527C17.9456 25.5527 17.912 25.5639 17.8785 25.5713C17.7778 25.5937 17.6771 25.631 17.5764 25.6533C17.5317 25.6645 17.4832 25.672 17.4348 25.672C17.4198 25.672 17.4049 25.672 17.39 25.6794C17.3527 25.6906 17.3154 25.7093 17.2819 25.713C17.2632 25.7167 17.2483 25.7205 17.2334 25.713C16.909 25.6533 16.5958 25.5564 16.2752 25.5117C16.0999 25.4893 16.0813 25.3103 15.9284 25.2618C15.7942 25.2171 15.7084 25.0791 15.7159 24.9114C15.563 24.8778 15.5518 24.7324 15.4847 24.6317C15.4623 24.5982 15.5071 24.4863 15.5518 24.4453C15.6227 24.3819 15.7196 24.3111 15.8091 24.3148C15.9545 24.3148 16.0999 24.3968 16.2267 24.2626C16.2267 24.2626 16.2304 24.2626 16.2342 24.2626C16.2528 24.2701 16.2677 24.2738 16.2864 24.2775C16.4131 24.2887 16.5138 24.1545 16.6368 24.1806C16.7748 24.2104 16.868 24.0538 16.9985 24.0874C17.0172 24.0874 17.0358 24.0985 17.0544 24.1097C17.1775 23.9867 17.3266 24.0501 17.4683 24.0314C17.6473 24.0053 17.8449 23.9979 18.009 23.886C18.0873 23.8301 18.2215 23.7406 18.2625 23.7667C18.2625 23.7667 18.2625 23.7667 18.2662 23.7667C18.2923 23.7853 18.3184 23.7928 18.3408 23.8003C18.5123 23.8413 18.6614 23.6623 18.8292 23.7257C18.9821 23.584 19.217 23.6809 19.3624 23.5355C19.3736 23.5393 19.3885 23.5393 19.3997 23.543C19.4109 23.543 19.4258 23.5504 19.437 23.5504C19.5973 23.5616 19.6943 23.4125 19.8322 23.364C19.8583 23.3566 19.8956 23.3566 19.9292 23.364C19.9664 23.3715 20.0037 23.3864 20.0373 23.4013C20.0597 23.4125 20.0708 23.4908 20.0597 23.5355L20.0634 23.543ZM20.9135 17.3498L19.7092 17.0851C19.616 17.1448 19.5414 17.1783 19.4929 17.2305C19.4594 17.2678 19.4183 17.3349 19.4072 17.3759C19.4072 17.3909 19.4072 17.402 19.4072 17.4058C19.5116 17.5437 19.5078 17.6742 19.4743 17.801C19.4519 17.8942 19.4146 17.9874 19.396 18.0769C19.3885 18.1067 19.3848 18.1366 19.3848 18.1664C19.2207 18.2783 19.0753 18.3752 18.9336 18.4684C18.6316 18.4013 18.3371 18.3379 18.0425 18.2708C18.0052 18.2074 17.9605 18.144 17.9195 18.0806C17.7219 17.7935 17.6846 17.7935 17.472 18.1328L17.1365 18.0583C17.0507 17.9203 17.1588 17.8085 17.1588 17.6891C17.0619 17.5325 16.8121 17.5064 16.8009 17.2753C16.9761 17.1932 17.1365 17.32 17.3229 17.3312C17.4534 17.238 17.5951 17.141 17.7517 17.0292C17.7069 16.9994 17.6585 16.9658 17.6063 16.9322C17.5653 16.9061 17.5354 16.8577 17.5168 16.8092C17.5019 16.7607 17.5019 16.7123 17.528 16.6936C17.5802 16.6601 17.6585 16.6601 17.7256 16.6489C17.7405 16.6451 17.7703 16.6675 17.7815 16.6824C17.9269 16.9248 18.1171 16.9583 18.3408 16.7943C18.5384 16.8316 18.7025 16.7011 18.8926 16.6973C18.9597 16.6973 19.0455 16.6228 19.094 16.6451C19.3177 16.7495 19.5078 16.5407 19.7353 16.6116C19.7763 16.6228 19.8136 16.634 19.8546 16.6451C19.9664 16.675 20.0746 16.7048 20.1864 16.7309C20.399 16.7794 20.6152 16.8167 20.8277 16.8651C20.9359 17.0441 20.962 17.2007 20.906 17.3387C20.906 17.3387 20.906 17.3424 20.906 17.3461L20.9135 17.3498ZM21.0328 15.5154C21.0328 15.5154 21.0291 15.5154 21.0254 15.5154C20.9247 15.493 20.8315 15.4669 20.7383 15.452C20.4884 15.4184 20.2461 15.2768 19.9925 15.3625C19.9553 15.3737 19.9217 15.3923 19.8844 15.4147C19.8844 15.4147 19.8807 15.4147 19.877 15.4147C19.6197 15.2469 19.3512 15.3998 19.094 15.4073C19.0082 15.4073 18.9224 15.4222 18.8367 15.4371C18.6503 15.4706 18.4638 15.5266 18.2811 15.575C18.0723 15.631 17.8635 15.6832 17.6846 15.8211C17.5056 15.9591 17.3043 16.0709 17.1104 16.194C17.1104 16.194 17.1104 16.194 17.1066 16.194C17.0507 16.1753 17.0022 16.1753 16.9538 16.1828C16.8158 16.2201 16.7189 16.3543 16.5809 16.3879C16.5809 16.3879 16.5772 16.3879 16.5735 16.3879C16.5324 16.3991 16.4802 16.3618 16.3908 16.3319H16.3833C16.3908 16.2574 16.3908 16.2313 16.3945 16.2089C16.4206 16.0859 16.4467 15.9628 16.4802 15.8286C16.7748 15.7428 16.8904 15.4408 17.1327 15.2693C17.1999 15.2208 17.2707 15.1873 17.3453 15.1574C17.4944 15.0941 17.651 15.053 17.8039 15.0008C17.8263 14.9934 17.8486 14.9859 17.871 14.9747C17.9978 14.9188 18.1581 14.9486 18.2849 14.9002C18.3744 14.8666 18.4601 14.8368 18.5496 14.8107C18.8106 14.7398 19.0716 14.7212 19.3475 14.8181C19.3848 14.8331 19.4221 14.8293 19.4631 14.8181C19.519 14.8032 19.5787 14.7771 19.6383 14.7585C19.7017 14.7398 19.7651 14.7324 19.8397 14.7659C20.0224 14.848 20.2312 14.8592 20.4288 14.9039C20.6003 14.9412 20.7755 14.9785 20.9471 15.0195C21.0216 15.1612 21.182 15.2842 21.044 15.5079L21.0328 15.5154Z" fill="#FFCFBA"/>
<path d="M22.6361 27.8194C22.4161 27.9313 22.2073 28.0879 21.9948 28.2221C21.7822 28.3564 21.5585 28.4757 21.3609 28.6323C21.1633 28.7926 20.9172 28.8262 20.701 28.9231C20.3691 29.076 20.1268 29.4004 19.7241 29.4153C19.4109 29.7136 18.9784 29.7322 18.5981 29.8702C18.4899 29.9112 18.3706 29.9112 18.2588 29.9596C18.1842 29.9932 18.0611 29.9 17.9679 29.9186C17.8523 29.9373 17.7666 30.0529 17.6212 29.9932C17.5056 29.9485 17.3788 29.9373 17.2558 29.9074C17.2558 30.0007 17.1663 30.0976 17.2483 30.1908C17.3639 30.325 17.2893 30.5152 17.3937 30.6643C17.4422 30.7352 17.3527 30.8955 17.3266 31.0186L17.2371 31.4324V31.4585L17.3564 31.4846L17.3863 31.4921L17.8225 31.589C17.994 31.6263 18.1767 31.6412 18.3371 31.7083C18.5048 31.7829 18.6055 31.5816 18.7509 31.6375C19.0194 31.7382 19.2692 31.6524 19.5227 31.5816C19.5861 31.5629 19.6793 31.5182 19.7241 31.548C19.9105 31.6599 20.0447 31.466 20.22 31.4809C20.3393 31.4884 20.4996 31.4324 20.6227 31.3802C20.7383 31.328 20.8688 31.2572 20.9582 31.1677C20.9881 31.1379 21.0104 31.108 21.0291 31.0745C21.0552 31.026 21.085 30.9925 21.1186 30.9589C21.2118 30.8731 21.3311 30.8359 21.4206 30.7464C21.4355 30.7315 21.4392 30.6979 21.4355 30.6755C21.4243 30.5935 21.4504 30.5376 21.4914 30.4854C21.5399 30.4257 21.6107 30.3735 21.6555 30.3101C21.6704 30.2915 21.6816 30.2728 21.6928 30.2505C21.7561 30.1013 21.9538 30.0268 21.9426 29.8254C21.9426 29.8068 21.9612 29.7844 21.9836 29.762C21.9985 29.7471 22.0171 29.7322 22.0321 29.721C22.1029 29.6688 22.1775 29.6278 22.2409 29.5756C22.3005 29.5234 22.349 29.4563 22.3639 29.3519C22.3751 29.2773 22.4236 29.2214 22.4758 29.1655C22.4907 29.1505 22.5019 29.1356 22.5168 29.1207C22.5802 29.0499 22.6361 28.9716 22.6249 28.856C22.6025 28.6435 22.912 28.5875 22.8896 28.3601C22.8896 28.3265 22.9269 28.2781 22.9605 28.2445C23.1245 28.0767 23.2476 27.8791 23.4079 27.7039C23.4079 27.7039 23.4116 27.7039 23.4154 27.7001C23.4303 27.6815 23.4489 27.6703 23.4676 27.6554C23.4862 27.6405 23.5048 27.6256 23.5123 27.6069C23.5421 27.5398 23.557 27.4615 23.5608 27.3869C23.5608 27.3422 23.5459 27.2825 23.516 27.2564C23.4862 27.2303 23.4116 27.208 23.3743 27.2266C23.2438 27.2937 23.1059 27.3683 22.994 27.4652C22.9008 27.5435 22.8449 27.6517 22.7554 27.7337C22.7218 27.7635 22.6846 27.7933 22.6398 27.8157L22.6361 27.8194Z" fill="#CF582B"/>
<path d="M20.9321 40.7278C20.947 40.6682 20.9545 40.6048 20.9321 40.575C20.8054 40.437 20.8725 40.2953 20.9023 40.1536C20.9023 40.1536 20.9023 40.1536 20.9023 40.1499C20.9508 39.9336 20.9992 39.7137 21.0365 39.5347C20.9284 39.3632 20.8464 39.2364 20.7643 39.1096C20.5481 39.1096 20.4661 38.6361 20.1566 38.9381C20.138 38.9568 20 38.9083 19.9776 38.8598C19.9105 38.7181 19.7875 38.7107 19.6682 38.6846H19.6607C19.6607 38.7554 19.616 38.8225 19.6197 38.8934C19.6197 38.9195 19.6309 38.9456 19.6532 38.9717C19.6719 38.994 19.6868 39.0164 19.6943 39.0388C19.739 39.1618 19.6682 39.3072 19.6868 39.4377C19.6943 39.4899 19.7166 39.5384 19.7651 39.5794C19.7688 39.5794 19.7688 39.5869 19.7763 39.5906C19.7427 39.7398 19.6905 39.8852 19.6868 40.0343C19.6831 40.1723 19.7763 40.3289 19.7353 40.4445C19.6682 40.6309 19.6831 40.8136 19.698 40.9963H20.865C20.8799 40.9254 20.8986 40.8583 20.9135 40.7875C20.9135 40.7875 20.9135 40.7838 20.9135 40.78C20.9172 40.7614 20.921 40.7427 20.9284 40.7241L20.9321 40.7278Z" fill="#CF582B"/>
<path d="M30.2946 39.4563C30.2759 39.4265 30.2535 39.3967 30.2274 39.378C30.1417 39.3221 30.0634 39.2625 29.9963 39.1916C29.9329 39.1245 29.877 39.0462 29.8397 38.9567C29.7576 38.7628 29.5377 38.7181 29.4444 38.5428C29.3028 38.2781 29.0157 38.17 28.8218 37.9649C28.6689 37.8046 28.4489 37.8456 28.2588 37.7934C27.9456 37.7076 27.6174 37.648 27.3005 37.5771C27.211 37.6368 27.0843 37.6741 27.0507 37.7487C26.9985 37.8717 26.9127 37.9351 26.8233 38.0246C26.7599 38.0842 26.8009 38.2371 26.7412 38.3042C26.6592 38.39 26.5473 38.4384 26.525 38.5839C26.5063 38.6957 26.5362 38.8598 26.3907 38.912C26.1894 38.9903 26.3124 39.2364 26.1372 39.3408C25.9433 39.4563 26.0104 39.6987 25.9321 39.8777C25.9023 39.9411 25.865 39.9933 25.8538 40.0156C25.6898 40.0604 25.5816 39.9299 25.4474 40.0194C25.3952 40.0566 25.302 40.0902 25.2461 40.0678C24.8471 39.9373 24.5004 40.1536 24.135 40.2319C23.9709 40.2692 23.8889 40.4631 23.9187 40.6532C23.9187 40.6681 23.9374 40.6793 23.9523 40.6942C23.9635 40.7054 23.9746 40.7091 23.9896 40.7166C24.0007 40.7241 24.0157 40.7315 24.0268 40.7315C24.0716 40.7427 24.1238 40.7315 24.1648 40.7129C24.3139 40.6346 24.4333 40.4854 24.6309 40.5451C24.7875 40.3848 24.9553 40.4892 25.123 40.5153C25.3132 40.5451 25.4922 40.3437 25.6898 40.4854C25.7979 40.422 25.9098 40.3624 26.0142 40.299C26.1857 40.1946 26.3535 40.0827 26.5026 39.9858C26.607 39.818 26.5287 39.5757 26.6928 39.4974C26.909 39.393 26.7599 39.0835 27.0097 39.0276C27.0843 38.8672 27.1961 38.7442 27.3639 38.6733L28.6503 38.9604C28.7547 39.0499 28.818 39.1394 28.9038 39.1655C29.094 39.2252 29.3214 39.2177 29.4855 39.3147C29.6383 39.4079 29.8024 39.5123 29.918 39.6763C29.9627 39.7397 30.0969 39.7509 30.1939 39.7658C30.2312 39.7733 30.2945 39.7434 30.3169 39.7099C30.343 39.6726 30.3579 39.6092 30.343 39.5682C30.3281 39.5309 30.3132 39.4899 30.2908 39.4563H30.2946Z" fill="#B03900"/>
<path d="M23.4191 39.9822C23.4191 39.9822 23.4154 39.9822 23.4116 39.9822C23.0723 40.0792 22.8188 40.3215 22.528 40.5005C22.5354 40.6236 22.3676 40.7019 22.3117 40.8063C22.2893 40.8473 22.2819 40.8957 22.3117 40.9517C22.3192 40.9666 22.3341 40.9815 22.3453 40.9964H23.1954C23.1991 40.974 23.2066 40.9517 23.2103 40.933C23.2811 40.6161 23.352 40.2954 23.4191 39.9785V39.9822Z" fill="#CF582B"/>
<path d="M17.6846 37.1636C17.4683 37.0182 17.3975 36.7796 17.2483 36.5894C17.1588 36.4738 17.2446 36.306 17.1253 36.1867C17.1066 36.1643 17.1477 36.0338 17.1924 36.004C17.3453 35.9108 17.4049 35.8101 17.2856 35.6498C17.17 35.5007 17.3714 35.3329 17.2409 35.1614C17.1551 35.0458 17.1588 34.8556 17.129 34.699C17.1216 34.658 17.1514 34.6021 17.1626 34.5536H17.1514C17.0619 34.5126 16.9985 34.5573 16.9836 34.6356C16.9202 34.9041 16.8643 35.18 16.8046 35.4485C16.5548 35.5939 16.607 35.881 16.4989 36.086C16.4691 36.1382 16.4616 36.1904 16.4653 36.2352C16.4728 36.3321 16.5287 36.4216 16.5511 36.5111C16.5585 36.5521 16.5585 36.5969 16.5436 36.6416C16.5436 36.6416 16.5436 36.6491 16.5436 36.6528C16.6219 36.7684 16.6667 36.9026 16.8233 36.9734C16.9426 37.0294 17.006 37.2009 17.1104 37.3351L17.528 37.4283C17.6175 37.6632 17.8374 37.6446 18.0239 37.6931C18.0239 37.6856 18.0201 37.6781 18.0201 37.6744C17.9791 37.4582 17.871 37.2755 17.6958 37.1599L17.6846 37.1636Z" fill="#CE5528"/>
<path d="M30.44 39.8963H30.4362C30.4512 39.9187 30.4661 39.9523 30.4773 39.956C30.5145 39.956 30.5518 39.9411 30.5891 39.9299C30.5742 39.9075 30.563 39.8852 30.5481 39.8628C30.5145 39.874 30.4773 39.8852 30.4437 39.8926L30.44 39.8963Z" fill="#742400"/>
<path d="M26.8494 24.7326C27.1365 24.5536 27.4161 24.3821 27.6734 24.2255C27.7368 24.095 27.6995 23.9645 27.8188 23.8676C27.9418 23.7669 28.0649 23.6439 28.1395 23.5022C28.2066 23.3717 28.2103 23.2076 28.2439 23.0622C28.27 22.9354 28.2588 22.7602 28.3333 22.7005C28.6055 22.488 28.5682 22.1748 28.654 21.8989C28.6689 21.8579 28.654 21.8094 28.654 21.7609C28.6503 21.7609 28.6465 21.7647 28.6428 21.7684C28.6242 21.7796 28.6018 21.7908 28.5869 21.802C28.5235 21.6379 28.4601 21.4739 28.4042 21.3284C28.311 21.3434 28.255 21.3508 28.2103 21.3657C28.1395 21.3881 28.091 21.4179 27.9679 21.5037C27.8635 21.9698 27.7666 22.4395 27.6585 22.9056C27.6324 22.9988 27.6547 23.1144 27.5392 23.1629C27.3602 23.23 27.431 23.4276 27.4273 23.4313C27.1178 23.6401 26.909 23.7781 26.7002 23.9198C26.7002 23.9198 26.7002 23.9198 26.6965 23.9198C26.6294 23.9049 26.5362 23.9123 26.4877 23.8713C26.182 23.573 25.9993 23.2151 25.9769 22.7863C25.9769 22.7155 26.0179 22.6036 25.9843 22.5775C25.7867 22.4134 26.0328 22.2046 25.9023 22.0145C25.7755 21.8355 25.9359 21.6305 25.9694 21.4403C26.0291 21.0935 26.1186 20.7505 26.1931 20.4075C26.218 20.2931 26.3013 20.1515 26.443 19.9824C26.443 19.9824 26.4392 19.9824 26.4355 19.9787C26.4019 19.9563 26.3572 19.934 26.3423 19.9153C26.3386 19.9116 26.3348 19.9079 26.3348 19.9041C26.3758 19.6879 26.4206 19.4753 26.4691 19.2665C26.5399 19.2181 26.607 19.1808 26.6667 19.136C26.8456 19.0093 26.8606 18.9571 26.7562 18.7818C26.7151 18.7222 26.6667 18.6662 26.6406 18.6327C26.4989 18.573 26.4243 18.6998 26.346 18.6961C26.0813 18.67 25.9396 18.8042 25.8464 19.0242C25.5966 19.0988 25.7345 19.4679 25.4623 19.5238C25.4362 19.6469 25.4027 19.7662 25.3729 19.8892C25.3132 20.1577 25.2535 20.4336 25.1939 20.702C25.1305 20.9966 25.1007 21.3098 24.9888 21.5857C24.8732 21.8616 25.138 22.1114 24.9851 22.3724C24.9068 22.5029 25.0559 22.6148 25.0485 22.7117C25.0298 22.928 25.2163 23.1293 25.0858 23.3456C25.2535 23.5208 25.2759 23.7669 25.3691 23.9794C25.3878 24.0167 25.4064 24.054 25.4288 24.0913C25.4362 24.1062 25.4474 24.1211 25.4549 24.136C25.5257 24.2255 25.6413 24.3113 25.6078 24.4604L25.6152 24.4679L26.8494 24.7401V24.7326Z" fill="#FFCC00"/>
<path d="M10.3803 16.7385H10.3691H10.3766C10.2722 16.9771 10.4661 17.1673 10.4773 17.3836C10.4773 17.3836 10.5183 17.3947 10.5406 17.3985C10.5406 17.3015 10.6339 17.2903 10.6861 17.2419C10.824 17.1226 10.9843 17.0666 11.1484 17.0256C11.2677 16.9958 11.3945 16.9734 11.5138 16.9361C11.5474 16.9249 11.5809 16.9138 11.6145 16.9026C11.7897 16.8355 11.9538 16.9361 12.1216 16.9697C12.4907 17.048 12.8598 17.1337 13.2289 17.2083C13.2737 17.2195 13.3184 17.1897 13.3669 17.1822C13.3855 17.1375 13.4042 17.0927 13.4154 17.048C13.4415 16.9287 13.4788 16.8392 13.3147 16.7497C13.1469 16.6639 13.0239 16.5185 12.8113 16.4924C12.5354 16.4589 12.2595 16.4067 12.0022 16.3135C11.9463 16.2911 11.8941 16.2911 11.8419 16.3023C11.7599 16.3172 11.6816 16.3507 11.6033 16.3694C11.525 16.388 11.4467 16.388 11.3647 16.3358C11.2528 16.3918 11.1447 16.444 11.0403 16.5073C10.8911 16.5968 10.7457 16.6938 10.604 16.7833C10.604 16.7833 10.5966 16.787 10.5966 16.7907L10.3803 16.7422V16.7385Z" fill="#4D2C14"/>
<path d="M14.0716 18.3266V18.3304C14.0865 18.3266 14.1126 18.3304 14.1238 18.3416C14.1238 18.3416 14.1238 18.3341 14.1238 18.3304C14.1089 18.3229 14.0865 18.3155 14.0753 18.3229L14.0716 18.3266Z" fill="#4D2C14"/>
<path d="M15.7159 23.1811C15.7606 23.1886 15.7905 23.1587 15.8091 23.114C15.8277 23.0655 15.8277 23.0021 15.8091 22.9499C15.7905 22.9313 15.7755 22.9015 15.7569 22.8977C15.3132 22.8008 14.8732 22.7039 14.4668 22.6144C14.3438 22.4391 14.2431 22.2974 14.1462 22.1632C14.1797 22.0178 14.2058 21.8761 14.2319 21.7382C14.2617 21.6002 14.2916 21.4622 14.3326 21.3317V21.3243C14.3997 21.0819 14.2095 20.8694 14.3139 20.6159C14.3661 20.4928 14.3997 20.3586 14.4258 20.2206C14.4519 20.0827 14.4743 19.941 14.5041 19.803C14.5041 19.803 14.5041 19.7993 14.5041 19.7956C14.5041 19.7881 14.5041 19.7769 14.5041 19.7657C14.5041 19.7508 14.5041 19.7396 14.4966 19.7322C14.4072 19.639 14.3997 19.542 14.4146 19.4488C14.4258 19.378 14.4519 19.3071 14.4705 19.2363C14.478 19.2139 14.4817 19.1878 14.4855 19.1654C14.4855 19.1617 14.4855 19.1543 14.4892 19.1505C14.5078 19.0536 14.5787 18.938 14.5414 18.8783C14.4519 18.7217 14.4519 18.5726 14.4817 18.4272C14.5004 18.3377 14.5302 18.2519 14.56 18.1662C14.56 18.1625 14.56 18.1587 14.56 18.155C14.601 18.017 14.56 17.8977 14.5265 17.7821C14.5153 17.7486 14.5078 17.7113 14.5004 17.6778C14.4705 17.4801 14.4668 17.4764 14.2245 17.5249C14.1685 17.7784 14.1126 18.0394 14.1051 18.3414C14.1089 18.3414 14.1126 18.3414 14.1163 18.3489C14.1312 18.3675 14.1387 18.3899 14.1312 18.3936C14.1424 18.4123 14.1536 18.4309 14.1611 18.4533C14.1611 18.4533 14.1089 18.4943 14.1051 18.4906C14.0753 18.4645 14.0492 18.4384 14.0343 18.4048C14.0306 18.3936 14.0343 18.375 14.038 18.3601C13.997 18.3452 13.956 18.3302 13.9224 18.3228C13.8777 18.3116 13.8441 18.3004 13.833 18.2818C13.7584 18.1252 13.6316 18.0879 13.475 18.0506C13.1059 17.9723 12.7368 17.8866 12.3863 17.812C12.3005 17.853 12.2297 17.9201 12.17 17.9127C12.0544 17.894 11.909 17.9126 11.8419 17.771C11.7748 17.633 11.6331 17.6479 11.5213 17.6256C11.5026 17.6218 11.484 17.633 11.4616 17.6442C11.443 17.6554 11.4206 17.6703 11.4019 17.6778C11.4653 17.7971 11.4952 17.8716 11.4877 17.9276C11.484 17.9835 11.443 18.0208 11.3647 18.073L10.8986 17.9723C10.865 18.0394 10.8315 18.0842 10.8315 18.1289C10.8315 18.1736 10.8613 18.2519 10.8799 18.2557C11.1223 18.2743 11.0738 18.4197 11.0477 18.5801C11.0179 18.7478 11.0477 18.7777 11.167 18.7963C11.2565 18.8075 11.305 18.7777 11.3348 18.6919C11.3497 18.6509 11.3721 18.5801 11.4019 18.5763C11.4579 18.5651 11.4765 18.5801 11.4802 18.6062C11.484 18.6285 11.4802 18.6546 11.484 18.6807C11.484 18.6882 11.484 18.6956 11.484 18.7031C11.5138 18.8634 11.5399 19.0275 11.5958 19.1804C11.6257 19.2624 11.7077 19.3631 11.7823 19.3892C11.9351 19.4339 12.0507 19.4786 12.1402 19.6241C12.1812 19.6837 12.3602 19.7247 12.4198 19.6874C12.61 19.5719 12.871 19.6352 13.0239 19.4414C13.0761 19.2027 13.132 18.9566 13.1842 18.7106C13.1879 18.6919 13.2252 18.6807 13.2438 18.6695C13.4452 18.595 13.4601 18.8299 13.5906 18.8746C13.7286 18.9194 13.8889 18.9082 14.0231 19.0163C14.0082 19.1319 13.956 19.2661 13.997 19.3668C14.0418 19.4861 14.0902 19.583 14.0529 19.7135C13.997 19.9298 13.956 20.1572 13.9075 20.381C13.8852 20.4816 13.8702 20.5823 13.8516 20.683C13.833 20.7836 13.8106 20.8806 13.7733 20.9701C13.6838 21.1975 13.8143 21.3989 13.7919 21.6077C13.777 21.7195 13.7547 21.8276 13.7286 21.9358C13.7025 22.0402 13.6764 22.1371 13.6577 22.2303C13.8441 22.5249 14.0082 22.7784 14.176 23.0431C14.3736 23.0879 14.5749 23.1252 14.7763 23.1699C14.8546 23.1886 14.9292 23.2072 15.0037 23.2296C15.0447 23.2408 15.0858 23.2482 15.1268 23.2594C15.3393 23.3302 15.4959 23.1662 15.6935 23.2035L15.7159 23.1811Z" fill="#4D2C14"/>
<path d="M20.8315 16.8728C20.6189 16.8243 20.4027 16.7833 20.1902 16.7348C20.0783 16.7087 19.9665 16.6826 19.8583 16.6491C19.8173 16.6379 19.7763 16.6304 19.739 16.6193C19.5116 16.5447 19.3214 16.7572 19.0977 16.6528C19.0492 16.6304 18.9635 16.705 18.8964 16.705C18.7062 16.705 18.5421 16.8392 18.3445 16.802C18.1171 16.9586 17.9307 16.9325 17.7852 16.6901C17.7741 16.6715 17.748 16.6528 17.7293 16.6565C17.6585 16.664 17.5839 16.6677 17.5317 16.7013C17.5056 16.7199 17.5056 16.7647 17.5205 16.8131C17.5354 16.8616 17.569 16.9101 17.61 16.9362C17.6622 16.9697 17.7107 17.0033 17.7554 17.0331C17.5951 17.145 17.4534 17.2457 17.3229 17.3389C17.1365 17.324 16.9799 17.2046 16.8009 17.2829C16.8121 17.5178 17.0619 17.5402 17.1588 17.6931C17.1588 17.8161 17.0507 17.928 17.1365 18.0659L17.472 18.1405C17.6808 17.8012 17.7219 17.7975 17.9195 18.0883C17.9605 18.1517 18.0052 18.2114 18.0425 18.2785C18.3371 18.3419 18.6316 18.409 18.9336 18.4761C19.0753 18.3829 19.2207 18.2859 19.3848 18.1741C19.3848 18.1442 19.3885 18.1144 19.396 18.0846C19.4146 17.9951 19.4519 17.9019 19.4743 17.8087C19.5041 17.6819 19.5078 17.5551 19.4034 17.4172C19.3997 17.4097 19.3997 17.3985 19.4034 17.3836C19.4146 17.3389 19.4556 17.2755 19.4892 17.2382C19.5377 17.186 19.6122 17.1524 19.7055 17.0928L20.9098 17.3575C20.9098 17.3575 20.9098 17.3538 20.9098 17.3501C20.962 17.2084 20.9359 17.0518 20.8277 16.8765L20.8315 16.8728Z" fill="#4D2C14"/>
<path d="M15.7122 24.9075C15.8837 24.9448 16.0701 24.9597 16.2304 25.0305C16.4355 25.1163 16.607 25.0119 16.7972 24.997C16.9389 24.9821 17.0507 24.8329 17.211 24.9261C17.3453 25.0044 17.4385 24.8292 17.5503 24.8553C17.6995 24.8888 17.7964 24.8068 17.8822 24.7285C17.9866 24.6278 18.1283 24.7099 18.2215 24.6428C18.3632 24.5346 18.5496 24.6055 18.6987 24.4824C18.8181 24.3855 19.0157 24.378 19.1536 24.296C19.2841 24.2177 19.4146 24.1916 19.56 24.1655C19.7017 24.1394 19.7838 23.9567 19.9553 23.9828C19.9888 23.8337 20.0261 23.6882 20.0522 23.5391C20.0634 23.4944 20.0522 23.4198 20.0298 23.4049C20 23.39 19.9664 23.3788 19.9292 23.3713C19.8956 23.3639 19.862 23.3601 19.8322 23.3713C19.6943 23.4198 19.5973 23.5689 19.437 23.5577C19.4258 23.5577 19.4109 23.554 19.3997 23.5503C19.3885 23.5503 19.3773 23.5503 19.3624 23.5428C19.217 23.692 18.9821 23.595 18.8292 23.733C18.6615 23.6696 18.5123 23.8523 18.3408 23.8076C18.3147 23.8001 18.2886 23.7889 18.2625 23.774C18.2215 23.7479 18.091 23.8374 18.009 23.8933C17.8449 24.0052 17.6473 24.0126 17.4683 24.0387C17.3304 24.0574 17.1775 23.994 17.0544 24.117C17.0358 24.1058 17.0172 24.0984 17.0022 24.0947C16.8717 24.0611 16.7785 24.2177 16.6406 24.1879C16.5175 24.1618 16.4169 24.296 16.2901 24.2848C16.2752 24.2848 16.2565 24.2774 16.2379 24.2699C16.2379 24.2699 16.2342 24.2699 16.2304 24.2699C16.1037 24.4041 15.9582 24.3221 15.8128 24.3221C15.7271 24.3221 15.6264 24.3892 15.5556 24.4526C15.5108 24.4899 15.4661 24.6017 15.4884 24.639C15.5518 24.7397 15.5667 24.8851 15.7196 24.9149V24.9112L15.7122 24.9075Z" fill="white"/>
<path d="M20.4139 14.9113C20.2163 14.8665 20.0075 14.8553 19.8248 14.7733C19.7502 14.7397 19.6868 14.7472 19.6234 14.7658C19.5638 14.7845 19.5041 14.8143 19.4482 14.8255C19.4109 14.833 19.3736 14.8367 19.3326 14.8255C19.0567 14.7286 18.7919 14.7472 18.5347 14.818C18.4489 14.8404 18.3632 14.8702 18.2774 14.9038C18.1506 14.956 17.9903 14.9262 17.8635 14.9784C17.8374 14.9896 17.8151 14.997 17.789 15.0045C17.6361 15.0604 17.4795 15.0977 17.3304 15.1611C17.2595 15.1909 17.1924 15.2245 17.1253 15.2692C16.8829 15.437 16.7673 15.7427 16.4728 15.8285C16.443 15.9664 16.4169 16.0895 16.387 16.2088C16.3833 16.2349 16.3796 16.2573 16.3758 16.3318H16.3833C16.4728 16.3654 16.525 16.399 16.566 16.3878C16.704 16.3579 16.8046 16.22 16.9389 16.1827C16.9836 16.1715 17.0358 16.1715 17.0955 16.1902C17.2893 16.0671 17.487 15.9553 17.6697 15.8173C17.8523 15.6793 18.0574 15.6271 18.2662 15.5712C18.4489 15.5227 18.6353 15.4668 18.8218 15.4333C18.9113 15.4183 18.997 15.4034 19.0865 15.3997C19.3438 15.3922 19.6122 15.2431 19.8695 15.4072C19.9068 15.3848 19.9403 15.3661 19.9776 15.355C20.2312 15.2655 20.481 15.4072 20.7308 15.4444C20.824 15.4594 20.9135 15.4855 21.0142 15.5078C21.0142 15.5078 21.0179 15.5078 21.0216 15.5078C21.1633 15.2804 20.9993 15.1611 20.9247 15.0194C20.7532 14.9821 20.5779 14.9448 20.4064 14.9038L20.4139 14.9113Z" fill="#4D2C14"/>
<path d="M18.9597 25.0753C19.1201 24.956 19.3587 24.8926 19.4482 24.7398C19.56 24.5459 19.7278 24.4751 19.877 24.3557C19.9031 24.2327 19.9292 24.1097 19.959 23.9903C19.7875 23.9642 19.7054 24.1469 19.5638 24.173C19.4183 24.1991 19.2879 24.2252 19.1574 24.3035C19.0194 24.3856 18.8218 24.393 18.7025 24.49C18.5533 24.613 18.3706 24.5422 18.2252 24.6503C18.1357 24.7211 17.994 24.6354 17.8859 24.736C17.8039 24.8143 17.7069 24.8964 17.5541 24.8628C17.4422 24.8367 17.349 25.012 17.2148 24.9337C17.0582 24.8442 16.9426 24.9896 16.8009 25.0045C16.6107 25.0231 16.443 25.1238 16.2342 25.0381C16.0738 24.9709 15.8949 24.956 15.7233 24.9187C15.7233 24.9187 15.7196 24.9187 15.7159 24.9187C15.7084 25.0865 15.7942 25.2282 15.9284 25.273C16.0813 25.3214 16.0962 25.5004 16.2752 25.5228C16.5958 25.5675 16.9128 25.6645 17.2334 25.7241C17.2483 25.7241 17.267 25.7241 17.2819 25.7241C17.3154 25.7167 17.3527 25.698 17.39 25.6906C17.4049 25.6868 17.4198 25.6831 17.4348 25.6831C17.4832 25.6831 17.528 25.6756 17.5764 25.6645C17.6771 25.6421 17.7741 25.6048 17.8785 25.5824C17.912 25.575 17.9456 25.5675 17.9829 25.5638C17.9829 25.5638 17.9829 25.5638 17.9866 25.5638C18.1395 25.5489 18.27 25.3587 18.434 25.3065C18.613 25.2431 18.7994 25.2096 18.9597 25.0903V25.0753Z" fill="#732603"/>
<path d="M14.1201 18.3453C14.1201 18.3453 14.0828 18.3304 14.0679 18.3341C14.0679 18.3341 14.0641 18.3341 14.0604 18.3341C14.0567 18.3341 14.0529 18.3453 14.0529 18.3527C14.0455 18.3677 14.0418 18.3863 14.0492 18.3975C14.0641 18.431 14.0902 18.4609 14.1201 18.4832C14.1275 18.487 14.176 18.446 14.176 18.446C14.1648 18.4273 14.1536 18.4087 14.1462 18.3863C14.1387 18.3714 14.135 18.3565 14.1238 18.3453H14.1201Z" fill="#F9D2BE"/>
</g>
<defs>
<clipPath id="clip0_13299_128951">
<rect width="40" height="40" rx="4" fill="white"/>
</clipPath>
</defs>
</svg>
