<?xml version="1.0" encoding="UTF-8"?>
<svg width="48px" height="48px" viewBox="0 0 48 48" version="1.1" xmlns="http://www.w3.org/2000/svg" xmlns:xlink="http://www.w3.org/1999/xlink">
    <g>
      <circle fill="#00B900" cx="24" cy="24" r="24" />
      <g id="TYPE_A_19_">
        <g>
          <path
            fill="#FFFFFF"
            d="M40,22.6c0-7.1-7.2-13-16-13s-16,5.8-16,13c0,6.4,5.7,11.8,13.4,12.8c0.5,0.1,1.2,0.3,1.4,0.8
					c0.2,0.4,0.1,1,0.1,1.4c0,0-0.2,1.1-0.2,1.4c-0.1,0.4-0.3,1.6,1.4,0.9c1.7-0.7,9.2-5.4,12.5-9.3l0,0C38.9,28,40,25.4,40,22.6"
          />
          <g>
            <path
              fill="#00B900"
              d="M20.8,19.1h-1.1c-0.2,0-0.3,0.1-0.3,0.3v7c0,0.2,0.1,0.3,0.3,0.3h1.1c0.2,0,0.3-0.1,0.3-0.3v-7
						C21.1,19.2,20.9,19.1,20.8,19.1"
            />
            <path
              fill="#00B900"
              d="M28.5,19.1h-1.1c-0.2,0-0.3,0.1-0.3,0.3v4.1l-3.2-4.3l0,0l0,0l0,0l0,0l0,0l0,0l0,0l0,0l0,0l0,0l0,0l0,0
						l0,0l0,0l0,0l0,0l0,0l0,0l0,0h-1.1c-0.2,0-0.3,0.1-0.3,0.3v7c0,0.2,0.1,0.3,0.3,0.3h1.1c0.2,0,0.3-0.1,0.3-0.3v-4.1l3.2,4.3
						c0,0,0,0.1,0.1,0.1l0,0l0,0l0,0l0,0l0,0l0,0l0,0l0,0h0.1h1.1c0.2,0,0.3-0.1,0.3-0.3v-7C28.8,19.2,28.6,19.1,28.5,19.1"
            />
            <path
              fill="#00B900"
              d="M18.1,24.9h-3v-5.5c0-0.2-0.1-0.3-0.3-0.3h-1.1c-0.2,0-0.3,0.1-0.3,0.3v7l0,0c0,0.1,0,0.2,0.1,0.2l0,0l0,0
						c0.1,0.1,0.1,0.1,0.2,0.1l0,0h4.5c0.2,0,0.3-0.1,0.3-0.3v-1.1C18.4,25.1,18.2,24.9,18.1,24.9"
            />
            <path
              fill="#00B900"
              d="M34.6,20.8c0.2,0,0.3-0.1,0.3-0.3v-1.1c0-0.2-0.1-0.3-0.3-0.3h-4.5l0,0c-0.1,0-0.2,0-0.2,0.1l0,0l0,0
						c-0.1,0.1-0.1,0.1-0.1,0.2l0,0v7l0,0c0,0.1,0,0.2,0.1,0.2l0,0l0,0c0.1,0.1,0.1,0.1,0.2,0.1l0,0h4.5c0.2,0,0.3-0.1,0.3-0.3v-1.1
						c0-0.2-0.1-0.3-0.3-0.3h-3v-1.2h3c0.2,0,0.3-0.1,0.3-0.3v-1.1c0-0.2-0.1-0.3-0.3-0.3h-3v-1.2h3V20.8z"
            />
          </g>
        </g>
      </g>
    </g>
</svg>