<svg width="32" height="32" viewBox="0 0 32 32" fill="none" xmlns="http://www.w3.org/2000/svg">
<path fill-rule="evenodd" clip-rule="evenodd" d="M27.9997 20.0177C27.9997 20.7477 27.4077 21.339 26.6783 21.339H25.3563V16.023L26.679 16.0237C27.4083 16.0237 27.9997 16.615 27.9997 17.345V20.0177ZM6.66634 21.339H5.34501C4.61501 21.339 4.02301 20.7477 4.02301 20.0177V17.3443C4.02301 16.615 4.61501 16.023 5.34501 16.023H6.66634V21.339ZM27.9657 13.549C27.3943 7.45366 22.253 2.66699 16.0117 2.66699C9.76967 2.66699 4.62834 7.45366 4.05701 13.5483C2.47501 14.087 1.33301 15.583 1.33301 17.3443V20.0177C1.33301 22.233 3.12901 24.0297 5.34501 24.0297H8.68967C9.05767 24.0297 9.35634 23.7303 9.35634 23.363V13.9997C9.35634 13.631 9.05767 13.333 8.68967 13.333H6.79834C7.45434 8.82966 11.3297 5.35699 16.0117 5.35699C20.693 5.35699 24.569 8.83033 25.2243 13.333H23.333C22.9643 13.333 22.6663 13.631 22.6663 13.9997V22.6843C22.6663 24.8837 20.883 26.667 18.6837 26.667H18.6783V26.0177C18.6783 25.649 18.379 25.351 18.0117 25.351H15.3303C14.225 25.351 13.3303 26.2463 13.3303 27.351V28.6837C13.3303 29.0523 13.6283 29.3503 13.997 29.3503H16.0037V29.357H18.6837C21.9023 29.357 24.5963 27.0657 25.2203 24.0297H26.6783C28.8937 24.0297 30.6897 22.233 30.6897 20.0177V17.345C30.6897 15.5837 29.547 14.087 27.9657 13.549Z" fill="#E87722"/>
</svg>
