<?xml version="1.0" encoding="UTF-8"?>
<svg width="48px" height="48px" viewBox="0 0 48 48" version="1.1" xmlns="http://www.w3.org/2000/svg" xmlns:xlink="http://www.w3.org/1999/xlink">
  <g>
      <path
        fill="#FF0000"
        d="M43.1,14.3c-0.5-1.7-1.8-3.1-3.5-3.6C36.5,9.9,24,9.9,24,9.9s-12.5,0-15.6,0.8
			c-1.7,0.5-3.1,1.8-3.5,3.6C4,17.5,4,24,4,24s0,6.6,0.8,9.7c0.5,1.7,1.8,3.1,3.5,3.6c3.1,0.8,15.6,0.8,15.6,0.8s12.5,0,15.6-0.8
			c1.7-0.5,3.1-1.8,3.5-3.6c1-3.1,1-9.7,1-9.7S44,17.5,43.1,14.3z"
      />
      <polygon fill="#FFFFFF" points="19.9,30 30.3,24 19.9,18.1" />
    </g>
</svg>