<svg width="24" height="24" viewBox="0 0 24 24" fill="none" xmlns="http://www.w3.org/2000/svg">
<path d="M11.9986 9.05496C9.82359 9.05496 8.05359 10.825 8.05359 13C8.05359 15.175 9.82359 16.945 11.9986 16.945C14.1736 16.945 15.9436 15.175 15.9436 13C15.9436 10.825 14.1736 9.05496 11.9986 9.05496ZM11.9986 14.965C10.9136 14.965 10.0286 14.08 10.0286 12.995C10.0286 11.91 10.9136 11.025 11.9986 11.025C13.0836 11.025 13.9686 11.905 13.9686 12.995C13.9686 14.085 13.0836 14.965 11.9986 14.965ZM20.5586 6.57996H16.8286L16.2436 4.91996C16.0586 4.27996 15.4686 3.83496 14.8036 3.83496H9.34359C8.67359 3.83496 8.08859 4.27496 7.90359 4.91996L7.31859 6.57996H3.55859C2.72859 6.57996 2.05859 7.24996 2.05859 8.07996V18.38C2.05859 19.21 2.72859 19.88 3.55859 19.88H20.5586C21.3886 19.88 22.0586 19.21 22.0586 18.38V8.07996C22.0586 7.24996 21.3836 6.57996 20.5586 6.57996ZM20.0586 17.885H4.05859V8.58496H8.75359L9.72359 5.83996H14.4286L15.2986 8.58496H20.0586V17.885ZM17.2786 10.23C17.5336 9.78496 18.0986 9.63496 18.5436 9.88996C18.9886 10.145 19.1386 10.71 18.8836 11.155C18.6286 11.6 18.0636 11.75 17.6186 11.495C17.1736 11.24 17.0236 10.675 17.2786 10.23Z" fill="#636566"/>
</svg>
