<svg width="24" height="24" viewBox="0 0 24 24" fill="none" xmlns="http://www.w3.org/2000/svg">
<path d="M19.5 21H4.5C3.67 21 3 20.33 3 19.5V4.5C3 3.67 3.67 3 4.5 3H19.5C20.33 3 21 3.67 21 4.5V19.5C21 20.33 20.325 21 19.5 21ZM4.995 19H18.995V5H4.995V19V19Z" fill="#636566"/>
<path d="M11.9961 12C10.3411 12 8.99609 10.655 8.99609 9C8.99609 7.345 10.3411 6 11.9961 6C13.6511 6 14.9961 7.345 14.9961 9C14.9961 10.655 13.6511 12 11.9961 12ZM11.9961 8C11.4461 8 10.9961 8.45 10.9961 9C10.9961 9.55 11.4461 10 11.9961 10C12.5461 10 12.9961 9.55 12.9961 9C12.9961 8.45 12.5511 8 11.9961 8Z" fill="#636566"/>
<path d="M16.9957 16.9999C16.7757 16.9999 16.5557 16.9298 16.3707 16.7798C11.5807 12.9248 7.86565 16.5498 7.71065 16.7048C7.32065 17.0948 6.69065 17.0998 6.29565 16.7098C5.90565 16.3248 5.90065 15.6948 6.28565 15.2998C8.03065 13.5198 12.6457 11.2148 17.6257 15.2198C18.0557 15.5648 18.1257 16.1949 17.7807 16.6249C17.5807 16.8749 17.2907 16.9999 16.9957 16.9999Z" fill="#636566"/>
<path d="M17.4961 18H6.49609C6.22109 18 5.99609 17.775 5.99609 17.5V16H17.9961V17.5C17.9961 17.775 17.7761 18 17.4961 18Z" fill="#636566"/>
</svg>
