<svg width="40" height="40" viewBox="0 0 40 40" fill="none" xmlns="http://www.w3.org/2000/svg">
<g clip-path="url(#clip0_13299_128621)">
<path d="M4.44817 39.8367V40.616C4.44817 40.7353 4.41089 40.8658 4.35496 41.0038H32.0433C32.0246 40.9777 32.0022 40.9553 31.9799 40.9329C31.8941 40.8621 31.8046 40.7912 31.8158 40.6458C31.8195 40.6011 31.7338 40.534 31.6779 40.4967C31.5884 40.4333 31.4467 40.4109 31.4094 40.3326C31.3758 40.2543 31.3423 40.176 31.2938 40.0977C31.2192 39.9747 31.0254 40.0455 31.0067 39.9486C30.9657 39.7472 30.7718 39.6615 30.7084 39.5049C30.6078 39.2588 30.4847 39.0686 30.2125 39.0015C30.0969 38.9717 30.1529 38.8337 30.1007 38.7778C29.9441 38.5988 29.7688 38.4422 29.6048 38.2707C29.5116 38.1738 29.3661 38.1029 29.4034 37.9277C29.3139 37.8606 29.2356 37.7524 29.135 37.7301C29.0306 37.704 28.9523 37.648 28.9187 37.5772C28.7211 37.1372 28.311 36.8762 28.0089 36.5295C27.9418 36.4512 27.8486 36.4549 27.7703 36.4214C27.7144 36.3953 27.7107 36.261 27.6622 36.1939C27.61 36.1231 27.5391 36.0522 27.4571 36.0149C27.2558 35.9255 27.0507 35.8509 26.8792 35.6943C26.7151 35.5414 26.4914 35.478 26.3348 35.2953C26.1409 35.0753 25.8315 35.0269 25.5817 34.8815C25.5071 34.8367 25.4362 34.7808 25.3579 34.7435C25.2274 34.6801 25.3579 34.434 25.1417 34.4452C24.9963 34.4489 24.9553 34.3147 24.8695 34.2439C24.7614 34.1544 24.6682 34.0463 24.5675 33.9493V33.7331H24.2841V33.9456L23.5123 34.7174C23.3221 34.7286 23.1133 34.7435 22.9083 34.7547C22.774 34.956 22.5652 34.8554 22.39 34.8777C22.2744 35.0642 22.0134 34.9486 21.909 35.0679C21.7711 35.2245 21.5772 35.0828 21.4653 35.2096C21.3311 35.3624 21.1633 35.2916 21.0067 35.3028C20.8427 35.3102 20.6786 35.3028 20.5667 35.3028C20.44 35.3662 20.3654 35.4407 20.2834 35.4407C19.9515 35.4557 19.6197 35.4445 19.2841 35.4482C19.1611 35.4519 19.0716 35.3997 18.9672 35.3513C18.833 35.2916 18.6428 35.2916 18.4974 35.3326C18.0835 35.4519 18.0872 35.4631 17.528 35.3252C17.3975 35.2916 17.252 35.314 17.1104 35.3065C16.95 35.2953 16.7487 35.3401 16.6368 35.258C16.5026 35.1611 16.3796 35.176 16.2453 35.1648C16.1186 34.9672 15.9098 34.997 15.7383 35.0306C15.5444 35.0679 15.4549 34.8926 15.2983 34.8777C15.1454 34.8628 14.9925 34.9113 14.8359 34.7845C14.7315 34.6988 14.5302 34.736 14.3475 34.7174C14.3475 34.7137 14.3475 34.7062 14.3475 34.7025C14.34 34.6615 14.3438 34.6018 14.3326 34.5608C14.3289 34.5496 14.3214 34.5384 14.3139 34.5347C14.0865 34.3893 13.8553 34.2439 13.5384 34.3222C13.3482 34.0164 12.9754 33.9829 12.7069 33.7778C12.6398 33.7256 12.5093 33.7293 12.472 33.6697C12.3527 33.4721 12.1104 33.4758 11.9687 33.3229C11.7785 33.1216 11.5921 32.9314 11.3311 32.8046C11.2192 32.7487 11.0925 32.6555 11.044 32.5138C11.0291 32.4691 11.0216 32.4206 11.0216 32.3684C10.9247 32.3087 10.8949 32.1633 10.7494 32.1671C10.5891 32.1745 10.5518 32.3647 10.4325 32.402C10.1864 32.4765 9.95153 32.7897 9.66443 32.4542C9.6346 32.4206 9.5302 32.4504 9.46309 32.4504C9.478 32.5287 9.41834 32.5996 9.36614 32.5847C9.16853 32.5287 9.04549 32.6741 8.89262 32.7338H8.60925V32.9501L8.56077 32.9985L8.25503 33.3043C8.02759 33.1999 7.89336 33.446 7.68456 33.4609C7.59508 33.4683 7.52424 33.6249 7.43102 33.6958C7.36391 33.748 7.24086 33.7442 7.19612 33.8039C7.07681 33.9568 6.90529 34.0127 6.74869 34.0985C6.65175 34.1507 6.54362 34.1879 6.45787 34.2513C6.38702 34.3073 6.33482 34.393 6.29381 34.4452H5.8352C5.69724 34.5832 5.56674 34.7137 5.41387 34.8665C5.3393 34.8665 5.24608 34.8852 5.1566 34.8665C4.80611 34.792 4.59359 35.1238 4.27666 35.1574C4.24683 35.1611 4.21327 35.2208 4.20209 35.2618C4.12752 35.5302 3.94109 35.6719 3.68382 35.7465C3.65772 35.7539 3.64653 35.8211 3.63162 35.8621C3.63162 35.9814 3.65399 36.1007 3.62789 36.2126C3.57942 36.4139 3.69873 36.5556 3.7733 36.7159C3.86652 36.921 3.91499 37.1596 3.91499 37.4318C3.96346 37.4616 4.0343 37.4803 4.05295 37.525C4.07905 37.5772 4.0604 37.6518 4.0604 37.7152V37.9426C4.10142 37.9762 4.15362 38.0246 4.20582 38.0694C4.25802 38.1141 4.31394 38.1551 4.3475 38.1812C4.3475 38.4236 4.34004 38.6324 4.35123 38.8412C4.35496 38.8971 4.3997 38.9605 4.44072 39.009C4.54139 39.1283 4.48546 39.2103 4.39597 39.2998C4.36987 39.3259 4.36242 39.3744 4.3475 39.4154C4.50037 39.434 4.5824 39.5459 4.62714 39.6689C4.65697 39.7547 4.61969 39.8516 4.48919 39.8404L4.44817 39.8367Z" fill="#E87722"/>
<path d="M11.2938 32.7638C11.5548 32.8906 11.745 33.0844 11.9314 33.2821C12.0768 33.4349 12.3154 33.4312 12.4348 33.6288C12.472 33.6885 12.6025 33.6847 12.6697 33.7369C12.9381 33.9383 13.3072 33.9718 13.5011 34.2813C13.8106 34.203 14.0455 34.3484 14.2767 34.4938C14.2879 34.5013 14.2953 34.5162 14.299 34.5349C14.3102 34.5759 14.3065 34.6355 14.314 34.6765C14.4967 34.6989 14.698 34.6579 14.8024 34.7436C14.959 34.8704 15.1081 34.8219 15.2647 34.8369C15.4213 34.8518 15.5108 35.027 15.7047 34.9897C15.8762 34.9562 16.085 34.9263 16.2118 35.124C16.346 35.1351 16.4691 35.1202 16.6033 35.2172C16.7151 35.2992 16.9165 35.2582 17.0768 35.2656C17.2148 35.2731 17.3602 35.2507 17.4944 35.2843C18.0537 35.426 18.0462 35.4148 18.4638 35.2917C18.6093 35.247 18.8031 35.247 18.9336 35.3104C19.0418 35.3589 19.1313 35.4073 19.2506 35.4073C19.5824 35.3999 19.9143 35.4111 20.2498 35.3999C20.3319 35.3961 20.4102 35.3253 20.5332 35.2619C20.6413 35.2619 20.8091 35.2731 20.9732 35.2619C21.126 35.2507 21.2976 35.3216 21.4318 35.1687C21.5436 35.0419 21.7375 35.1836 21.8755 35.027C21.9799 34.9077 22.2371 35.0233 22.3565 34.8369C22.5317 34.8108 22.7405 34.9114 22.8747 34.7138C23.0798 34.6989 23.2886 34.6877 23.4788 34.6765L24.2506 33.9047V33.6922L24.2357 33.6773C24.2207 33.64 24.2096 33.5841 24.1909 33.5692C24.1014 33.5505 23.997 33.517 23.9225 33.5505C23.7584 33.6176 23.613 33.722 23.4266 33.8302C23.1842 33.8302 22.8971 33.8078 22.6137 33.8376C22.528 33.8488 22.4683 33.8041 22.4161 33.763C22.39 33.7444 22.3639 33.722 22.3378 33.7071C22.3117 33.6922 22.2782 33.681 22.2446 33.6847C22.1253 33.6922 22.0022 33.7034 21.8941 33.6736C21.8755 33.6698 21.8606 33.6586 21.8456 33.6512C21.7934 33.6251 21.7487 33.5841 21.6928 33.5505C21.6853 33.5468 21.6779 33.5393 21.6667 33.5356C21.3647 33.4237 21.3721 33.4088 21.0813 33.4014C21.0477 33.3902 21.0216 33.3715 20.9955 33.3529C20.8688 33.2671 20.7905 33.1105 20.6637 33.0248C20.6115 32.9912 20.5518 32.9689 20.4773 32.9689C20.4661 32.9689 20.4549 32.9614 20.4474 32.9502C20.4363 32.9428 20.4213 32.9278 20.4176 32.9167C20.3244 32.6892 20.2647 32.4357 20.0597 32.2865C19.8583 32.1411 19.8471 31.8801 19.6607 31.7347C19.5116 31.6191 19.4929 31.4252 19.396 31.2761C19.2767 31.0897 19.2245 30.8697 19.0641 30.6982C18.9486 30.5751 18.9038 30.3887 18.8255 30.2321C18.6801 29.9338 18.4228 29.6579 18.0612 29.4044C18.0462 29.3932 18.0164 29.3857 18.009 29.3745C17.9791 29.3596 17.5988 29.0837 18.0015 29.3633C17.9978 29.1284 17.7591 29.0464 17.6771 28.86C17.5876 28.6624 17.487 28.4648 17.3937 28.2671C17.3602 28.1963 17.3304 28.1627 17.2595 28.1329C17.2334 28.1217 17.2036 28.1143 17.1626 28.1031C17.1626 28.1031 17.1626 28.1031 17.1626 28.0994C17.1626 28.0994 17.1588 28.0994 17.1551 28.0994C17.0731 28.0248 17.1141 27.9241 17.1141 27.8346C17.1104 27.719 17.0917 27.6258 17.0134 27.5177C16.9165 27.3835 16.9314 27.2157 17.0805 27.0852C17.1775 26.9994 17.2521 26.9696 17.3192 27.0032C17.3415 27.0106 17.3639 27.0293 17.3863 27.0516C17.4198 27.0926 17.4609 27.1262 17.5056 27.1598C17.5242 27.1747 17.5429 27.1896 17.5615 27.2082C17.6249 27.2642 17.6808 27.3313 17.6958 27.4208C17.7256 27.5997 17.9157 27.6519 17.9829 27.8011C18.009 27.8607 18.0127 27.939 18.05 27.9838C18.2849 28.2671 18.572 28.4909 18.7733 28.8264C18.8628 28.9756 18.9821 29.1061 19.1126 29.2291C19.1201 29.2366 19.1275 29.244 19.135 29.2478C19.2618 29.3633 19.3923 29.4752 19.519 29.5908C19.5414 29.6094 19.5675 29.6281 19.5973 29.643C19.6309 29.6616 19.6644 29.6765 19.698 29.6952C19.7055 29.6989 19.7129 29.7026 19.7204 29.7101C19.739 29.7213 19.7577 29.7287 19.7726 29.7399C19.7987 29.7586 19.821 29.7809 19.8285 29.807C19.8471 29.8779 19.8695 29.9189 19.9031 29.9487C19.9366 29.9711 19.9776 29.986 20.0373 30.0009C20.0373 30.0009 20.041 30.0047 20.0448 30.0084C20.0448 30.0084 20.0448 30.0084 20.0485 30.0084C20.1156 30.0233 20.1342 30.2097 20.2088 30.2806C20.2163 30.288 20.2312 30.2955 20.2386 30.3029C20.3468 30.3887 20.4773 30.4483 20.5854 30.5304C20.5854 30.5304 20.5929 30.5304 20.5929 30.5378C20.6898 30.6087 20.7718 30.7168 20.865 30.7839C20.8949 30.8026 20.9247 30.8212 20.9583 30.8287C20.9844 30.8361 21.0067 30.8436 21.0216 30.8548C21.1298 30.907 21.0925 31.0151 21.1484 31.0785C21.1708 31.1008 21.1969 31.1158 21.223 31.1269C21.2528 31.1381 21.2826 31.1493 21.3162 31.1642C21.3348 31.1717 21.3535 31.1791 21.3721 31.1903C21.3833 31.1941 21.3945 31.1978 21.402 31.2052C21.4355 31.2239 21.4653 31.25 21.4914 31.2873C21.5362 31.3581 21.5958 31.4401 21.6629 31.4886C21.6853 31.5035 21.7077 31.5147 21.7301 31.5222C21.8643 31.5595 21.965 31.6452 22.0843 31.7011C22.2632 31.7832 22.4422 31.8727 22.6771 31.9845C23.1022 31.9845 23.6055 31.9994 24.1014 31.9771C24.3662 31.9659 24.6719 32.1113 24.8993 31.8428H25.4586C25.5332 31.7683 25.5929 31.6825 25.6712 31.6378C25.824 31.5483 26.0515 31.5073 26.085 31.3246C26.1149 31.1568 26.3013 31.0785 26.2677 30.8958C26.264 30.8883 26.3423 30.8622 26.3833 30.8473C26.3833 30.7765 26.3535 30.687 26.387 30.6385C26.4653 30.5266 26.6257 30.4446 26.6518 30.3253C26.6779 30.2023 26.7711 30.1389 26.8084 30.0345C26.8531 29.9114 26.8829 29.7735 26.9538 29.6691C27.129 29.4118 27.2521 29.1284 27.3676 28.8413C27.4459 28.6512 27.7032 28.5803 27.6808 28.3343C27.8151 28.2112 27.912 28.0658 27.994 27.898C28.0723 27.7377 28.2439 27.6184 28.3855 27.4953C28.4489 27.4431 28.5645 27.4431 28.6204 27.3872C28.6764 27.3313 28.6913 27.2306 28.7286 27.1523C28.7323 27.1448 28.7733 27.1523 28.7957 27.1523C28.8367 27.1374 28.9113 27.1225 28.9113 27.1038C28.9187 26.8876 28.9821 26.7049 29.1648 26.5706C29.1946 26.5483 29.2058 26.4961 29.2245 26.4551C29.3662 26.1605 29.5116 25.8659 29.6495 25.5677C29.7166 25.4297 29.8434 25.3104 29.7949 25.1314C29.7353 24.9152 29.8546 24.7362 29.9404 24.5572C30.0112 24.4155 30.1156 24.2962 30.0783 24.121C30.0522 23.9942 30.1603 23.9159 30.1939 23.819C30.2536 23.6325 30.4474 23.4797 30.3617 23.2522C30.5779 23.0994 30.5071 22.8719 30.4996 22.6743C30.4959 22.5363 30.6264 22.473 30.6376 22.3797C30.6637 22.1784 30.8688 22.0367 30.7979 21.8018C30.7606 21.6713 30.7905 21.5222 30.7905 21.3991C30.7345 21.3357 30.66 21.2873 30.6525 21.2276C30.6339 21.0897 30.6264 20.9442 30.6525 20.8063C30.6861 20.6422 30.4996 20.5938 30.4996 20.4409C30.4959 20.2619 30.5854 20.0568 30.4363 19.9077C30.2722 19.7436 30.4325 19.5423 30.3393 19.382C30.3244 19.3522 30.2685 19.3447 30.2275 19.3298C30.0187 19.3969 29.9254 19.602 29.7502 19.7325C29.7465 19.7325 29.7427 19.7325 29.7353 19.7325C29.5116 19.7735 29.2841 19.7996 29.1163 19.5759C29.0008 19.4155 29.1648 19.2067 29.0119 19.0464C28.8553 19.2142 28.6987 19.382 28.5272 19.5759C28.5347 19.6691 28.4899 19.807 28.613 19.9263C28.6652 19.9748 28.654 20.0979 28.6615 20.1873C28.6689 20.3029 28.6279 20.4446 28.6801 20.5341C28.7323 20.631 28.7808 20.7317 28.833 20.8287C28.8889 20.9293 28.9784 21.0114 28.9486 21.1381C28.9075 21.3134 29.0306 21.4327 29.0865 21.5781C29.1499 21.7422 29.2953 21.8727 29.2431 22.0889C29.2058 22.2418 29.2021 22.4208 29.3773 22.5252C29.4407 22.775 29.2841 22.9651 29.1723 23.1478C29.0641 23.3268 28.8926 23.4648 28.7808 23.5841C28.777 23.5841 28.7733 23.5841 28.7696 23.5841C28.6204 23.6064 28.4899 23.5729 28.3706 23.5915C28.3072 23.6027 28.2476 23.6325 28.1917 23.6997C28.1842 23.7108 28.1656 23.7183 28.1469 23.722C28.1022 23.7407 28.0313 23.7369 27.9791 23.7369H27.1477C27.047 23.6139 26.8904 23.5468 26.9463 23.3715C26.965 23.3529 26.9799 23.3231 26.9985 23.3231C26.9985 23.3231 27.006 23.3231 27.0097 23.3231C27.0097 23.3231 27.0097 23.3231 27.0134 23.3231C27.2707 23.3156 27.5317 23.3156 27.7927 23.3082C27.8374 23.3082 27.8934 23.3082 27.9456 23.3082C27.9456 23.3082 27.9493 23.3082 27.953 23.3082C27.9717 23.3082 27.9866 23.3044 28.0015 23.3007C28.0201 23.2932 28.0351 23.2858 28.0425 23.2746C28.0761 23.2187 28.1208 23.1926 28.1656 23.1814C28.2476 23.1516 28.3445 23.1739 28.434 23.1553C28.475 23.1441 28.516 23.1255 28.5496 23.0882C28.6428 22.9838 28.8442 22.98 28.9336 22.8272C28.9374 22.4841 28.9411 22.4841 28.7994 22.1784C28.7248 22.0143 28.6503 21.8652 28.6354 21.6713C28.6242 21.5371 28.4788 21.4103 28.4005 21.2761C28.3781 21.2388 28.3706 21.1866 28.3781 21.1456C28.4228 20.8398 28.132 20.5938 28.2327 20.2768C27.9418 20.1202 28.1879 19.7996 28.009 19.5796C27.8598 19.4006 27.9642 19.1284 27.953 18.8973C27.9456 18.6363 27.953 18.3753 27.953 18.1105C28.05 18.036 28.1208 17.9502 28.0947 17.816C28.0612 17.637 28.2215 17.5811 28.311 17.4804C28.3184 17.473 28.3296 17.4692 28.3445 17.4655C28.3781 17.4543 28.4415 17.4543 28.4601 17.4767C28.5011 17.5214 28.5421 17.596 28.5347 17.6519C28.5198 17.7601 28.3669 17.8085 28.3967 17.9502C28.4154 18.0434 28.3967 18.1255 28.3184 18.2038C28.2774 18.2448 28.2662 18.3268 28.2625 18.3902C28.255 18.5319 28.2625 18.6736 28.2625 18.8339C28.3222 18.8861 28.393 18.9457 28.4638 19.0091C28.5198 18.9196 28.5757 18.8115 28.6465 18.722C28.7211 18.6325 28.8143 18.558 28.9001 18.4759C28.9038 18.4759 28.9075 18.4759 28.9113 18.4759C28.9113 18.4759 28.9113 18.4759 28.915 18.4722C28.9448 18.4797 28.9709 18.4797 28.9933 18.4722C29.1462 18.4387 29.2058 18.2448 29.355 18.1888C29.3773 18.1777 29.4034 18.1739 29.4295 18.1702C29.5638 18.1553 29.698 18.036 29.8248 17.9539C29.8695 17.9278 29.9105 17.9092 29.9553 17.8943C29.9888 17.8831 30.0187 17.8794 30.0485 17.8794C30.0485 17.8794 30.0485 17.8794 30.0522 17.8794C30.1305 17.8794 30.2051 17.9055 30.2759 17.9838C30.3505 18.0695 30.4437 18.0211 30.5257 18.0322C30.5257 17.8943 30.7271 17.8384 30.6712 17.678C30.7606 17.6035 30.8278 17.5214 30.8128 17.3872C30.8017 17.2492 30.8128 17.1076 30.8128 16.9696V16.8988H30.0336C29.8695 16.895 29.7166 16.8801 29.5899 17.033C29.5526 17.0777 29.4109 17.0404 29.2767 17.0404C29.1984 17.1225 29.1052 17.2194 29.0082 17.3201H28.736C28.736 17.3201 28.736 17.3201 28.736 17.3164H28.7323C28.6615 17.1747 28.5943 17.0367 28.5272 16.9099C28.5272 16.8801 28.5198 16.8503 28.5272 16.8354C28.6652 16.6079 29.1052 16.3357 29.3736 16.332C29.519 16.332 29.6495 16.3246 29.739 16.1866H30.302C30.4586 16.1866 30.6264 16.2351 30.8054 16.3283C30.8054 16.3283 30.8091 16.3283 30.8128 16.3283C30.8128 16.1381 30.8166 15.9517 30.8128 15.7653C30.8091 15.7243 30.7979 15.6646 30.7681 15.646C30.5668 15.5229 30.783 15.2097 30.5295 15.1128C30.4922 14.9711 30.6488 14.9152 30.6637 14.8182C30.6935 14.6355 30.6712 14.4454 30.6712 14.3149C30.6078 14.1918 30.5332 14.1135 30.5332 14.0352C30.522 13.7108 30.5295 13.3827 30.5295 13.0509C30.3505 13.0733 30.2983 13.2709 30.1678 13.3268H29.8807C29.7875 13.2336 29.7017 13.1478 29.5861 13.0322C29.5078 13.1441 29.4295 13.256 29.3773 13.3343H28.4638C28.4191 13.241 28.3669 13.1553 28.3222 13.0621C28.2476 12.9092 28.1954 12.7526 28.2625 12.5662C28.1805 12.473 28.1096 12.3872 28.0537 12.3238C27.9568 12.3387 27.8971 12.3313 27.871 12.3574C27.733 12.4841 27.5802 12.6072 27.472 12.7601C27.3676 12.9092 27.1849 12.8794 27.0694 13.0024C26.965 13.118 26.7338 12.9539 26.6406 13.1553C26.525 13.1627 26.4057 13.2 26.2976 13.1777C25.9806 13.1068 25.742 13.3604 25.44 13.3529C25.2163 13.5356 24.9665 13.4834 24.7166 13.4275C24.6756 13.42 24.6458 13.3641 24.6085 13.3268H22.8188C22.8188 13.3268 22.8188 13.3231 22.8188 13.3193H22.8151C22.8263 13.118 22.7815 12.9241 22.8561 12.8085C22.9717 12.6184 23.0164 12.3686 23.2476 12.2716V12.0442C23.2476 12.0181 23.2364 11.9957 23.2289 11.9771C23.1917 11.9099 23.1208 11.8689 23.0798 11.9099C22.9083 12.0852 22.6995 12.0404 22.4534 12.0479C22.3863 12.1337 22.3005 12.2455 22.2334 12.3313H21.9053C21.7151 12.514 21.443 12.6557 21.085 12.7601C20.9396 12.9055 20.7606 12.9167 20.5742 12.9017C20.4325 12.8906 20.3207 12.9316 20.1939 13.0211C20.0298 13.1366 19.8509 12.9912 19.698 12.9017C19.6533 12.9167 19.6048 12.9241 19.575 12.9502C19.4706 13.0434 19.3736 13.1478 19.2729 13.2485C19.3214 13.5058 19.0082 13.5468 18.9709 13.7668C18.9374 13.9644 18.777 14.0539 18.5571 14.0464C18.4601 14.0464 18.3632 14.1508 18.2588 14.1769C18.1693 14.1993 18.0649 14.1993 17.9754 14.1769C17.7703 14.1247 17.6585 14.3261 17.472 14.3447C17.4012 14.3522 17.2819 14.4677 17.2819 14.5349C17.2819 14.7287 17.0843 14.8369 17.1216 15.0457C17.1551 15.2209 17.1663 15.4185 16.9873 15.5527C16.9836 15.7429 16.9761 15.9293 16.9724 16.1158C16.7599 16.2164 16.8978 16.4551 16.7785 16.6042C16.5697 16.8652 16.5175 17.1784 16.5697 17.4991C16.4541 17.6818 16.3087 17.775 16.0999 17.7414C15.9583 17.6668 15.8613 17.555 15.783 17.4357C15.7084 17.3238 15.6488 17.2045 15.5854 17.0889C15.5817 17.0777 15.5742 17.0703 15.5705 17.0591C15.5257 16.9808 15.4847 16.9025 15.4474 16.8242C15.4064 16.7459 15.3729 16.6639 15.343 16.5818C15.2759 16.4103 15.1753 16.2724 15.041 16.1419C15.0224 16.1232 15.0075 16.0971 15 16.071C14.9814 16.0188 14.9776 15.9592 14.9515 15.907C14.9366 15.8846 14.918 15.8622 14.8882 15.8473C14.8882 15.8473 14.8882 15.8473 14.8882 15.8398C14.8695 15.7578 14.8397 15.687 14.8024 15.6236C14.7278 15.508 14.616 15.4372 14.4258 15.4558C14.3885 15.4595 14.3251 15.4297 14.3102 15.3999C14.2021 15.1985 13.9747 15.1612 13.8031 15.068C13.6428 14.9823 13.4713 14.8033 13.2401 14.8928C13.1283 14.6579 12.8635 14.7996 12.6883 14.6654C12.5429 14.5535 12.3154 14.546 12.1178 14.7064C11.9873 14.8145 11.7748 14.8182 11.6443 14.9226C11.4243 15.0979 11.2379 15.3178 11.0366 15.5192C10.9806 15.6422 11.0813 15.7988 10.9396 15.907C10.8986 15.9405 10.8688 16.0337 10.8837 16.0897C10.9359 16.2947 10.8128 16.4401 10.7383 16.6005C10.7383 17.3797 10.783 17.8309 10.8762 17.9539V18.6475C10.9508 18.7966 11.1335 18.8525 11.1633 19.0278C11.1633 19.0278 11.1633 19.0203 11.1633 19.0166C11.2528 18.9942 11.2826 19.0762 11.3348 19.1173C11.484 19.2328 11.4616 19.4566 11.6331 19.5609C11.7748 19.6467 11.7189 19.8704 11.8755 19.9524C11.8456 20.1799 12.0955 20.2321 12.1626 20.3999C12.226 20.5602 12.2893 20.7317 12.39 20.8697C12.4981 21.0225 12.651 21.1419 12.7852 21.2724C12.953 21.4401 13.1171 21.6042 13.2998 21.7869V22.473C13.3967 22.5513 13.4303 22.6482 13.4415 22.7526C13.4527 22.8533 13.4415 22.9614 13.4415 23.0658V23.778C13.3744 23.9234 13.1842 23.9756 13.1581 24.1545C13.1581 24.2254 13.1842 24.3484 13.1581 24.3596C12.9232 24.4603 13.1059 24.725 12.9642 24.848C12.8076 24.9823 12.9046 25.1538 12.8785 25.3067C12.8524 25.4372 12.6958 25.508 12.7293 25.6721C12.7554 25.8063 12.733 25.9517 12.733 26.0747L12.4571 26.3507V26.9435C12.3639 27.0106 12.2521 27.0926 12.1626 27.156C12.1626 27.2977 12.1439 27.3947 12.1626 27.4841C12.2073 27.6855 12.0955 27.8309 12.0172 27.9912C11.9389 28.1478 11.8158 28.297 11.8717 28.4946C11.6965 28.599 11.7226 28.7705 11.7338 28.9308C11.7412 29.039 11.6592 29.0949 11.6331 29.1732C11.566 29.3783 11.3982 29.5498 11.4355 29.8033C11.4541 29.9152 11.3311 30.0419 11.3087 30.1687C11.264 30.4073 11.0738 30.6161 11.1596 30.8883C11.1633 30.9032 11.1447 30.9368 11.1298 30.9442C10.9098 31.0412 11.1149 31.3096 10.9322 31.429C10.7942 31.5184 10.9583 31.7123 10.8315 31.8055C10.7159 31.8913 10.7345 32.0032 10.7345 32.1187C10.88 32.115 10.9098 32.2604 11.0067 32.3201C11.0067 32.3238 11.0067 32.3275 11.0067 32.335C11.0067 32.3872 11.0105 32.4357 11.0291 32.4804C11.0813 32.6146 11.2043 32.7041 11.3125 32.7563L11.2938 32.7638ZM21.1782 18.1366C21.1782 18.1366 21.1447 18.1031 21.1298 18.0882C21.1596 18.0546 21.1857 18.0173 21.2155 17.9875C21.2789 17.9204 21.3386 17.8234 21.402 17.775C21.4243 17.7563 21.4467 17.7414 21.4728 17.7414C21.6592 17.7228 21.8195 17.6668 21.9761 17.5774C22.0022 17.5624 22.0619 17.596 22.0955 17.6184C22.1327 17.6445 22.1626 17.6855 22.1924 17.7153C22.3378 17.7153 22.4795 17.7079 22.6212 17.7153C22.8225 17.7265 23.05 17.6333 23.1991 17.857C23.4005 17.8682 23.6093 17.8123 23.7845 17.9912C23.8292 18.0397 23.9635 18.0024 24.0567 18.0099C24.0753 18.0099 24.0977 18.0397 24.1052 18.0583C24.2058 18.2634 24.4631 18.2485 24.6011 18.4051C24.7092 18.5281 24.8322 18.64 24.9627 18.7705H24.9553V19.3745C24.9553 19.3745 24.9515 19.3745 24.9478 19.3783C24.8546 19.4566 24.7763 19.464 24.6943 19.3783C24.5302 19.2105 24.3624 19.0427 24.1872 18.8674C24.1126 18.9905 24.0269 19.1061 23.9747 19.2366C23.9486 19.3 23.956 19.3671 23.9038 19.4006C23.8852 19.4155 23.8628 19.4267 23.8255 19.4342C23.7248 19.4491 23.6316 19.5572 23.531 19.5647C23.2737 19.5833 23.0127 19.5721 22.748 19.5721C22.5205 19.3372 22.3751 19.0725 22.3937 18.7258C22.4012 18.5431 22.3937 18.3604 22.3937 18.159C21.9612 18.1478 21.5623 18.1404 21.1671 18.1292L21.1782 18.1366ZM25.9061 24.9897C25.9955 25.2619 26.3274 25.0121 26.4392 25.2358C26.6443 25.2545 26.8494 25.2731 27.0694 25.2917C27.17 25.3738 27.0955 25.5005 27.1178 25.6087C27.1178 25.6087 27.1178 25.6087 27.1141 25.6124C27.1141 25.6124 27.1141 25.6161 27.1141 25.6199C27.047 25.7653 26.8568 25.8212 26.8307 25.9964C26.8307 26.0673 26.8606 26.1791 26.827 26.2015C26.6294 26.3432 26.5772 26.5781 26.4355 26.7533C26.3423 26.8652 26.2342 26.8503 26.1186 26.8503C26.1298 26.8988 26.1335 26.9398 26.126 26.9771C26.1074 27.0964 26.0067 27.1821 25.8986 27.2753C25.6115 27.2753 25.302 27.2381 25 27.2865C24.7017 27.335 24.4892 27.0815 24.1984 27.1337C24.1014 27.0404 24.0008 26.9435 23.8964 26.8466H23.6242C23.4191 26.69 23.3072 26.4364 23.0239 26.3842C22.9754 26.3768 22.9605 26.2313 22.9195 26.153C22.8486 26.0188 22.7032 26.0039 22.5802 25.9517C22.5727 25.7727 22.4422 25.6721 22.3304 25.5602C22.2334 25.4633 22.2632 25.2992 22.1327 25.2134C22.0656 25.1687 21.9612 25.1165 21.9799 24.9972C21.9612 24.9562 21.9538 24.8891 21.9277 24.8816C21.8158 24.8518 21.7151 24.8219 21.6331 24.7287C21.5585 24.6392 21.5287 24.5796 21.566 24.5088C21.5772 24.4827 21.5958 24.4566 21.6219 24.4305C21.6853 24.3708 21.7226 24.2701 21.8345 24.2776C21.8419 24.2552 21.8494 24.2328 21.8568 24.2105C21.8643 24.1844 21.8755 24.1657 21.8829 24.1657C21.9911 24.1545 22.1141 24.1359 22.211 24.1732C22.2893 24.203 22.3751 24.2478 22.4422 24.2925C22.61 24.4006 22.7927 24.4752 22.9679 24.5647C23.2625 24.7176 23.2662 24.7101 23.4713 24.7101C23.6764 24.7101 23.9001 24.7362 24.1052 24.7026C24.2953 24.6691 24.3885 24.8331 24.5414 24.8518C24.6943 24.8742 24.8658 24.7921 25 24.945C25.0336 24.986 25.1231 24.9897 25.1902 24.9897C25.4251 24.9935 25.66 24.9897 25.8986 24.9897H25.9061ZM21.1559 16.1941C21.3498 16.1419 21.5138 16.0263 21.6853 15.9331C21.7748 15.8846 21.8568 15.8883 21.9426 15.8659C22.047 15.8361 22.1365 15.7504 22.2409 15.7354C22.3975 15.7093 22.5578 15.7243 22.7144 15.728C22.7256 15.728 22.7368 15.728 22.7442 15.728H23.5906C23.6503 15.728 23.7137 15.7243 23.7733 15.7205C23.833 15.7205 23.8926 15.7205 23.9523 15.7317C24.0567 15.7541 24.1462 15.8324 24.2506 15.8659C24.2729 15.8734 24.2953 15.8734 24.3214 15.8771C24.3699 15.8771 24.4184 15.8771 24.4594 15.8846C24.4817 15.8883 24.5004 15.8958 24.5116 15.9107C24.5973 16.0188 24.7204 15.9853 24.8136 16.0524C25.0149 16.1978 25.2834 16.25 25.399 16.6266H25.3915C25.3915 16.6639 25.4437 16.8242 25.3468 17.0069C25.3058 17.0069 25.2498 17.0181 25.2014 17.0181C25.1529 17.0218 25.1081 17.0181 25.0858 16.9957C24.8919 16.8205 24.616 16.8838 24.4146 16.7235C24.3401 16.6601 24.2506 16.6191 24.1574 16.593C24.0604 16.5669 23.956 16.5595 23.8479 16.5669C23.8479 16.5669 23.8442 16.5669 23.8404 16.5669C23.7696 16.5744 23.6876 16.4923 23.572 16.4327H21.6555C21.566 16.4849 21.4914 16.5669 21.4169 16.5669C21.4169 16.5669 21.4169 16.5669 21.4131 16.5669C21.2603 16.5669 21.1782 16.4401 21.1298 16.3096C21.1186 16.2761 21.141 16.1978 21.1633 16.1903L21.1559 16.1941Z" fill="#FFCFBA"/>
<path d="M30.5436 13.0132H30.5406V13.0162L30.5436 13.0132Z" fill="#391900"/>
<path d="M14.8807 15.8247C14.9105 15.8396 14.9329 15.862 14.9441 15.8881C14.9702 15.9366 14.9776 16 14.9925 16.0522C15 16.0745 15.0112 16.0969 15.0298 16.1155C15.1641 16.2423 15.2647 16.384 15.3318 16.5592C15.3617 16.6413 15.399 16.7233 15.4362 16.8016C15.4735 16.8799 15.5145 16.9545 15.5556 17.029C15.563 17.0402 15.5667 17.0551 15.5742 17.0663C15.6376 17.1819 15.6972 17.305 15.7718 17.4131C15.8538 17.5324 15.9508 17.6405 16.085 17.7114C16.2938 17.7412 16.4392 17.6517 16.5548 17.469C16.5026 17.1521 16.5585 16.8389 16.7636 16.5742C16.8829 16.425 16.7412 16.1864 16.9575 16.0857C16.9612 15.8956 16.9687 15.7091 16.9724 15.5227C17.1514 15.3922 17.1365 15.1909 17.1066 15.0156C17.0693 14.8068 17.267 14.695 17.267 14.5048C17.267 14.4377 17.3863 14.3221 17.4571 14.3146C17.6398 14.296 17.7554 14.0947 17.9605 14.1469C18.05 14.1692 18.1544 14.1692 18.2438 14.1469C18.3482 14.117 18.4452 14.0164 18.5421 14.0164C18.7658 14.0238 18.9224 13.9343 18.956 13.7367C18.997 13.513 19.3065 13.472 19.258 13.2184C19.3587 13.1178 19.4556 13.0171 19.56 12.9202C19.5899 12.8941 19.6421 12.8866 19.6831 12.8717C19.8397 12.9612 20.0149 13.1066 20.179 12.991C20.3057 12.9015 20.4176 12.8605 20.5593 12.8717C20.7494 12.8866 20.9284 12.8754 21.0701 12.73C21.4243 12.6256 21.6965 12.4802 21.8904 12.3012H22.2185C22.2856 12.2155 22.3714 12.1036 22.4385 12.0179C22.6846 12.0104 22.8934 12.0551 23.0649 11.8799C23.1096 11.8352 23.1805 11.8799 23.2177 11.9545C23.2289 11.9768 23.2364 11.9992 23.2364 12.0216V12.249C23.0052 12.346 22.9605 12.5958 22.8449 12.7859C22.7703 12.9015 22.8151 13.0954 22.8039 13.2967H24.5936C24.6346 13.334 24.6644 13.39 24.7017 13.3974C24.9478 13.4533 25.1976 13.5055 25.4251 13.3228C25.7233 13.334 25.962 13.0768 26.2826 13.1476C26.3907 13.1737 26.5101 13.1364 26.6257 13.1252C26.7189 12.9276 26.9463 13.0879 27.0544 12.9724C27.1663 12.8493 27.3527 12.8791 27.4571 12.73C27.5652 12.5771 27.7181 12.4541 27.8561 12.3273C27.8859 12.3012 27.9418 12.3087 28.0388 12.2938C28.091 12.3572 28.1655 12.4429 28.2513 12.5398C28.1879 12.7263 28.2364 12.8829 28.311 13.0357C28.3557 13.1252 28.4079 13.211 28.4489 13.3005H29.3624C29.4146 13.2222 29.4929 13.1103 29.5712 12.9985C29.6905 13.1178 29.7726 13.1998 29.8658 13.293H30.1529C30.2834 13.2371 30.3356 13.0469 30.5108 13.0171C30.5257 12.9761 30.5295 12.9239 30.5593 12.9052C30.7681 12.7561 30.8166 12.5063 30.9396 12.3087C30.9359 12.2117 30.9843 12.1633 31.0813 12.167C31.1782 12.1707 31.223 12.1223 31.223 12.0253C31.1285 11.8439 31.0813 11.6748 31.0813 11.5182V8.81875C30.8165 8.72553 31.044 8.41233 30.8389 8.2781C30.7867 8.24082 30.7979 8.10659 30.7905 8.01711C30.7718 7.89033 30.66 7.83441 30.5816 7.75238C30.4512 7.61442 30.3207 7.47646 30.179 7.35342C30.0522 7.24529 30.0858 7.05514 29.9366 6.95074C29.7912 6.85007 29.7017 6.69347 29.616 6.52195C29.5153 6.32434 29.3065 6.17147 29.1275 6.0186C28.956 5.87691 28.8702 5.60845 28.5869 5.61591C28.3184 5.34746 28.0425 5.09018 27.7852 4.80681C27.6696 4.68004 27.5056 4.65767 27.3937 4.557C27.2595 4.43396 27.1029 4.35193 26.9538 4.25499C26.8233 4.16923 26.7226 4.035 26.5548 4.01263C26.4616 3.81129 26.2341 3.97907 26.1223 3.85976C25.9992 3.72553 25.8948 3.7218 25.7755 3.85976C25.7494 3.88959 25.686 3.91569 25.6562 3.90077C25.4549 3.80383 25.2312 3.74045 25.1007 3.54283C25.0708 3.49436 25.0969 3.40487 25.0969 3.33403C25.0112 3.31539 24.9068 3.37877 24.8359 3.28556C24.739 3.15133 24.5526 3.17743 24.4333 3.05812C24.3773 2.99846 24.2095 3.04693 24.094 3.04693H23.6055C23.572 3.00965 23.5421 2.96863 23.5048 2.94626C23.3557 2.85678 23.1581 2.96863 23.0425 2.8866C22.9195 2.80085 22.8151 2.75983 22.6696 2.75983C22.3415 2.76356 22.0134 2.75983 21.6816 2.75983H20.6115C20.4474 2.75983 20.2722 2.78966 20.1156 2.75238C19.9217 2.71136 19.8322 2.90152 19.6756 2.90152H18.6167C18.4676 3.0693 18.3147 3.11778 18.1245 2.97982C18.0723 2.94253 17.9903 2.89033 17.9456 2.90898C17.8262 2.95745 17.7368 3.07676 17.5764 3.04693C17.4347 3.02083 17.2968 3.03202 17.1998 3.1737C17.1812 3.1998 17.1066 3.19608 17.0656 3.18489C16.8643 3.12896 16.7226 3.26692 16.5548 3.32285C16.4057 3.37132 16.3013 3.53537 16.1148 3.47572C16.085 3.46826 16.0216 3.50182 15.9992 3.53165C15.8054 3.80383 15.4512 3.82247 15.2013 4.02382C15.1268 4.0872 14.9403 4.02382 14.8807 4.0872C14.657 4.3221 14.2953 4.37803 14.1275 4.72479V4.96714C14.0119 5.08646 13.915 5.20577 13.7136 5.18713C13.6204 5.17967 13.5198 5.27661 13.4191 5.32136C13.3781 5.34 13.3259 5.34373 13.2998 5.37355C13.1767 5.51524 13.0313 5.61591 12.8523 5.67184C12.9008 5.92538 12.6025 5.97385 12.5466 6.18638C12.5056 6.35044 12.4012 6.50704 12.3975 6.68974C12.3975 6.70465 12.349 6.73821 12.349 6.73821H12.1365V6.95819C12.0097 7.08496 11.8792 7.21919 11.7412 7.34596C11.6368 7.44291 11.6033 7.57341 11.5324 7.68153C11.4094 7.86796 11.346 8.0954 11.1484 8.23336C11.0813 8.28183 10.9769 8.3303 10.9955 8.44962C10.9955 8.52046 11.0253 8.63232 10.9918 8.65469C10.8277 8.77028 10.8016 8.96789 10.7271 9.12076C10.6525 9.27363 10.701 9.49362 10.7159 9.68004C10.7308 9.85529 10.645 9.97833 10.5779 10.1237C10.5071 10.2803 10.4362 10.4519 10.3393 10.5861C10.2349 10.7315 10.3766 10.9217 10.2051 11.0335C10.1641 11.0596 10.1491 11.1528 10.1491 11.2162C10.1417 11.3803 10.1603 11.5481 10.1417 11.7121C10.1305 11.7941 10.0634 11.8687 10.0037 11.9843C10.0037 12.2453 9.97762 12.5548 10.0149 12.8605C10.0336 13.0283 10.1864 13.1662 10.1529 13.3713C10.123 13.554 10.1454 13.7479 10.1454 13.8821C10.2088 14.0052 10.2834 14.0835 10.2834 14.1618C10.2946 14.6577 10.3132 15.161 10.2796 15.6532C10.2647 15.862 10.3505 16.0111 10.44 16.1566C10.522 16.2982 10.5108 16.5108 10.7159 16.5704C10.7904 16.4064 10.9098 16.261 10.8613 16.0596C10.8464 16.0037 10.8762 15.9105 10.9172 15.8769C11.0626 15.7688 10.9582 15.6122 11.0142 15.4891C11.2155 15.2878 11.4019 15.0678 11.6219 14.8926C11.7524 14.7882 11.9649 14.7807 12.0954 14.6763C12.2893 14.516 12.5205 14.5234 12.6659 14.6353C12.8412 14.7695 13.1059 14.6316 13.2177 14.8627C13.4489 14.7695 13.6204 14.9485 13.7808 15.038C13.9523 15.1275 14.1797 15.1648 14.2878 15.3698C14.3065 15.3997 14.3661 15.4295 14.4034 15.4258C14.5973 15.4071 14.7092 15.478 14.7837 15.601C14.821 15.6607 14.8509 15.7315 14.8695 15.8173L14.8807 15.8247Z" fill="#391900"/>
<path d="M30.2946 17.961C30.2237 17.8827 30.1491 17.8529 30.0708 17.8566C30.0708 17.8566 30.0708 17.8566 30.0671 17.8566C30.0373 17.8566 30.0037 17.8603 29.9739 17.8715C29.9366 17.8827 29.8993 17.9013 29.8583 17.9274C29.7278 18.0095 29.5936 18.1362 29.4556 18.1437C29.4556 18.1437 29.4519 18.1437 29.4482 18.1437C29.4221 18.1437 29.396 18.1511 29.3736 18.1623C29.2245 18.2257 29.1685 18.4233 29.0119 18.4457C28.9896 18.4457 28.9635 18.4457 28.9336 18.4457C28.9336 18.4457 28.9336 18.4457 28.9299 18.4494C28.8442 18.5315 28.7547 18.6023 28.6801 18.6918C28.6055 18.785 28.5496 18.8969 28.4899 18.9901C28.4899 18.9901 28.4862 18.9863 28.4825 18.9826C28.4116 18.9192 28.3408 18.8596 28.2811 18.8074C28.2811 18.647 28.2737 18.5054 28.2811 18.3637C28.2849 18.3003 28.2961 18.2183 28.3371 18.1772C28.4154 18.0989 28.434 18.0169 28.4154 17.9237C28.3855 17.782 28.5384 17.7335 28.5533 17.6254C28.5608 17.5695 28.5198 17.4949 28.4788 17.4502C28.4601 17.4278 28.4005 17.4278 28.3632 17.439C28.3557 17.439 28.3483 17.4427 28.3445 17.4502C28.255 17.5471 28.091 17.6068 28.1283 17.7857C28.1581 17.92 28.0835 18.0057 27.9866 18.0803C27.9866 18.3413 27.9754 18.6023 27.9866 18.867C27.9978 19.0982 27.8896 19.3704 28.0425 19.5531C28.2215 19.7693 27.9754 20.09 28.2662 20.2503C28.1656 20.5635 28.4564 20.8096 28.4116 21.1191C28.4042 21.1601 28.4116 21.2123 28.434 21.2496C28.5123 21.3838 28.6577 21.5068 28.6689 21.6448C28.6801 21.8387 28.7584 21.9878 28.833 22.1519C28.9747 22.4614 28.9709 22.4614 28.9672 22.8007C28.8777 22.9535 28.6726 22.9573 28.5832 23.0617C28.5459 23.1064 28.5011 23.125 28.4527 23.1325C28.3632 23.1511 28.2662 23.1325 28.1842 23.1586C28.1432 23.1735 28.1059 23.1996 28.0761 23.2481C28.0686 23.263 28.0462 23.2705 28.0201 23.2779C28.0052 23.2779 27.9903 23.2854 27.9717 23.2854C27.9717 23.2854 27.9679 23.2854 27.9642 23.2854C27.912 23.2891 27.8561 23.2854 27.8113 23.2854C27.5541 23.2928 27.2931 23.2928 27.0321 23.3003C27.0321 23.3003 27.0321 23.3003 27.0283 23.3003C27.0097 23.304 26.9948 23.3301 26.9799 23.345C26.9239 23.524 27.0768 23.5874 27.1812 23.7104H28.0127C28.0574 23.7104 28.1208 23.7104 28.1656 23.6992C28.1842 23.6955 28.2028 23.6881 28.2103 23.6769C28.2625 23.6098 28.3222 23.5837 28.3893 23.5687C28.5049 23.5464 28.6428 23.5799 28.7882 23.5613C28.792 23.5613 28.7957 23.5613 28.7994 23.5613C28.9113 23.442 29.0828 23.304 29.1909 23.125C29.3028 22.9423 29.4594 22.7522 29.396 22.5024C29.2207 22.398 29.2245 22.219 29.2618 22.0661C29.314 21.8499 29.1685 21.7194 29.1052 21.5553C29.0492 21.4099 28.9262 21.2906 28.9672 21.1153C28.997 20.9886 28.9075 20.9065 28.8516 20.8059C28.7994 20.7089 28.7509 20.6083 28.6987 20.5113C28.6465 20.4218 28.6876 20.2802 28.6801 20.1646C28.6726 20.0751 28.6838 19.952 28.6316 19.9036C28.5086 19.7843 28.5533 19.6463 28.5459 19.5531C28.7174 19.3629 28.874 19.1951 29.0306 19.0236C29.0306 19.0236 29.038 19.0162 29.0418 19.0124C29.2058 19.169 29.0343 19.3853 29.1499 19.5456C29.314 19.7656 29.5377 19.7432 29.7576 19.706C29.7614 19.706 29.7651 19.706 29.7726 19.706C29.9441 19.5792 30.041 19.3704 30.2498 19.3033C30.2535 19.3033 30.2573 19.2995 30.261 19.2995H30.2834C30.3766 19.1206 30.4251 18.9528 30.4251 18.7999C30.4251 18.7291 30.4325 18.662 30.4251 18.5911C30.4064 18.4457 30.4437 18.3301 30.563 18.2257C30.5966 18.1959 30.5667 18.0915 30.5667 18.0206C30.563 18.0206 30.5556 18.0206 30.5518 18.0206C30.4698 18.0095 30.3766 18.0579 30.302 17.9722L30.2946 17.961Z" fill="#462716"/>
<path d="M30.3169 16.1567H29.7539C29.6644 16.2947 29.5339 16.3022 29.3885 16.3022C29.1238 16.3059 28.6801 16.5781 28.5421 16.8055C28.5347 16.8204 28.5421 16.8503 28.5421 16.8801C28.6092 17.0068 28.6764 17.1448 28.7472 17.2865H29.0194C29.1126 17.1858 29.2095 17.0851 29.2878 17.0068C29.4221 17.0068 29.5638 17.0441 29.601 16.9994C29.7278 16.8465 29.8844 16.8652 30.0447 16.8652H30.8203C30.9023 16.8838 30.9396 16.8316 30.962 16.7682C31.0328 16.5781 30.8799 16.4513 30.8203 16.2984C30.6413 16.2052 30.4735 16.1567 30.3169 16.1567Z" fill="#462716"/>
<path d="M24.8658 34.2139C24.9515 34.2885 24.9925 34.4227 25.138 34.4153C25.3542 34.4041 25.2237 34.6502 25.3542 34.7136C25.4325 34.7508 25.5034 34.8068 25.5779 34.8515C25.8277 34.9969 26.1372 35.0454 26.3311 35.2654C26.4877 35.4481 26.7114 35.5152 26.8755 35.6643C27.047 35.8209 27.252 35.8955 27.4534 35.985C27.5317 36.0223 27.6063 36.0931 27.6585 36.164C27.7069 36.2311 27.7107 36.3653 27.7666 36.3914C27.8449 36.425 27.9381 36.4212 28.0052 36.4995C28.3072 36.85 28.7174 37.1036 28.915 37.5473C28.9448 37.6181 29.0268 37.674 29.1312 37.7001C29.2282 37.7225 29.3102 37.8269 29.3997 37.8978C29.3624 38.073 29.5078 38.1438 29.601 38.2408C29.7651 38.4123 29.9403 38.5689 30.0969 38.7479C30.1491 38.8075 30.0932 38.9417 30.2088 38.9716C30.481 39.0387 30.6003 39.2251 30.7047 39.4749C30.7681 39.6315 30.962 39.7136 31.003 39.9186C31.0216 40.0156 31.2155 39.9447 31.2901 40.0678C31.3386 40.1461 31.3684 40.2244 31.4057 40.3027C31.443 40.381 31.5846 40.4071 31.6741 40.4667C31.73 40.504 31.8158 40.5674 31.8121 40.6159C31.7972 40.7576 31.8866 40.8321 31.9761 40.903C32.0022 40.9253 32.0283 40.9552 32.0507 40.985H32.3863C32.3825 40.9328 32.3863 40.8843 32.4385 40.8396C32.5093 40.7799 32.6025 40.7203 32.6324 40.6382C32.6995 40.4481 32.8188 40.2915 32.8934 40.1088C33.1506 40.1162 33.2215 39.8664 33.3855 39.7508C33.3967 39.7397 33.3855 39.7024 33.3855 39.68C33.3855 39.5681 33.4116 39.4526 33.2923 39.3705C33.1954 39.3071 33.2625 39.199 33.2438 39.1133C33.0164 39.1655 32.8822 38.9567 32.6883 38.9119C32.6771 38.9082 32.6734 38.8709 32.6734 38.8485C32.6808 38.733 32.6249 38.6845 32.5093 38.6845C32.4198 38.6845 32.3378 38.6658 32.2483 38.6323C31.9761 38.5279 31.8084 38.3079 31.6033 38.1215H31.3236C31.2081 38.0059 31.1074 37.8717 30.9732 37.7784C30.8315 37.6815 30.66 37.6256 30.5034 37.5473C30.4437 37.5174 30.3766 37.4764 30.3468 37.4205C30.2573 37.2564 30.0485 37.3049 29.9478 37.1744C29.8471 37.0439 29.739 36.9209 29.6756 36.8426C29.4556 36.8314 29.3028 36.8836 29.2133 36.7233C29.1163 36.5517 28.8926 36.5704 28.7696 36.425C28.6316 36.2646 28.4638 36.1267 28.3221 35.9701C28.1842 35.8135 27.9344 35.8247 27.8225 35.6233C27.8001 35.5786 27.692 35.5898 27.6435 35.5525C27.4459 35.4033 27.2036 35.3288 27.0358 35.1237C26.827 34.8702 26.5734 34.6502 26.3348 34.4153C26.3199 34.4041 26.2864 34.4153 26.264 34.4153C26.167 34.419 26.1223 34.3705 26.1223 34.2736H26.0515C25.8427 34.3071 25.7122 34.0238 25.4847 34.1282C25.4773 34.1319 25.4549 34.0983 25.4288 34.076C25.4288 34.076 25.4288 34.076 25.4288 34.0722C25.4213 34.0163 25.4176 33.9529 25.4101 33.8895H25.4176C25.4139 33.8448 25.4064 33.7926 25.399 33.7367C25.3356 33.7255 25.2647 33.7292 25.2088 33.7031C24.8695 33.5391 24.8732 33.5391 24.56 33.7031H24.5749V33.9231C24.6756 34.02 24.7688 34.1282 24.877 34.2177L24.8658 34.2139Z" fill="#AE3E03"/>
<path d="M2.9754 35.2615C3.06861 35.2764 3.16928 35.2652 3.1581 35.4069C3.19911 35.4256 3.25131 35.4293 3.27368 35.4591C3.29978 35.489 3.29605 35.5412 3.29978 35.5859C3.31843 35.7425 3.41164 35.8245 3.58315 35.832C3.6018 35.791 3.60925 35.7239 3.63535 35.7164C3.89262 35.6418 4.07905 35.5001 4.15362 35.2317C4.16481 35.1907 4.19837 35.1273 4.22819 35.1273C4.54139 35.0937 4.75392 34.7619 5.10813 34.8365C5.19389 34.8514 5.29083 34.8365 5.36541 34.8365C5.51455 34.6873 5.64878 34.5531 5.78673 34.4151H6.24535C6.28636 34.3629 6.33483 34.2772 6.4094 34.2213C6.49516 34.1579 6.60329 34.1206 6.70023 34.0684C6.85683 33.9826 7.02834 33.9267 7.14766 33.7738C7.19613 33.7142 7.31544 33.7179 7.38256 33.6657C7.47577 33.5949 7.54661 33.4383 7.6361 33.4308C7.8449 33.4159 7.97913 33.1698 8.20657 33.2742C8.31097 33.1698 8.41164 33.0691 8.51231 32.9685C8.52722 32.9498 8.56078 32.92 8.56078 32.92V32.7075C8.56078 32.7075 8.56078 32.7075 8.56078 32.7037C8.33334 32.6515 8.16183 32.8081 8.01268 32.9125C7.63983 33.1698 7.28189 33.4345 6.79717 33.4196C6.74497 33.4196 6.69277 33.5016 6.62566 33.5576C6.33483 33.5576 6.02909 33.5464 5.71962 33.5613C5.64132 33.565 5.56302 33.6359 5.4437 33.6993C5.19016 33.6993 4.88442 33.6881 4.57495 33.7067C4.47428 33.7142 4.38479 33.8186 4.28039 33.8372C4.14617 33.8633 4.00448 33.8447 3.86652 33.8447C3.87771 33.9342 3.82551 33.9603 3.75467 33.9864C3.60925 34.0423 3.4713 34.1057 3.32961 34.1653C3.31097 34.3667 3.09471 34.4562 3.04251 34.6128C2.98658 34.7768 2.96421 34.952 2.871 35.1124C2.82998 35.1795 2.89337 35.2503 2.96794 35.2615H2.9754Z" fill="#AE3E03"/>
<path d="M3.86652 33.8411C3.86652 33.8411 3.87397 33.8411 3.8777 33.8411C3.8777 33.8411 3.8777 33.8411 3.8777 33.8374H3.86652V33.8411Z" fill="#AE3E03"/>
<path d="M8.85907 32.7V32.4166C8.6018 32.3793 8.54214 32.4427 8.5757 32.6962C8.5757 32.6962 8.5757 32.6962 8.5757 32.7H8.85907Z" fill="#AE3E03"/>
<path d="M26.1186 34.2734C26.1148 34.3704 26.1633 34.4151 26.2603 34.4151C26.264 34.3182 26.2155 34.2734 26.1186 34.2734Z" fill="#E87A29"/>
<path d="M26.1186 26.8539C25.9098 26.7383 25.6786 26.6638 25.5108 26.4699C25.3169 26.2536 25.1268 26.0262 24.8359 25.9255C24.8359 25.9255 24.8359 25.9218 24.8359 25.918C24.8285 25.918 24.8359 25.8733 24.8359 25.8509C24.821 25.8099 24.7987 25.7428 24.7912 25.7428C24.4109 25.7838 24.1201 25.5526 23.7957 25.4221C23.6726 25.3737 23.5832 25.2767 23.4303 25.2767C23.3333 25.2767 23.2401 25.1574 23.1395 25.15C22.994 25.1425 22.9418 24.9412 22.7778 25.0008C22.6883 24.874 22.5653 24.8368 22.4198 24.8591C22.4348 24.9412 22.3863 24.9896 22.3229 24.9971C22.2185 25.012 22.1104 24.9971 22.006 24.9971C22.0022 24.9971 21.9948 24.9971 21.9911 24.9971C21.9724 25.1164 22.0768 25.1686 22.1439 25.2133C22.2782 25.2991 22.2446 25.4632 22.3415 25.5601C22.4571 25.672 22.5839 25.7726 22.5914 25.9516C22.7144 26.0038 22.8598 26.0187 22.9307 26.1529C22.9717 26.2312 22.9903 26.3767 23.0351 26.3841C23.3222 26.4363 23.4303 26.6936 23.6354 26.8465H23.9075C24.0119 26.9434 24.1126 27.0403 24.2095 27.1336C24.4966 27.0814 24.7092 27.3349 25.0112 27.2864C25.3057 27.238 25.6189 27.2752 25.9098 27.2752C26.0142 27.182 26.1148 27.1 26.1372 26.9844C26.1447 26.9471 26.1409 26.9024 26.1298 26.8576C26.1298 26.8576 26.1298 26.8539 26.1298 26.8502L26.1186 26.8539Z" fill="#AD3C08"/>
<path d="M21.223 17.9837C21.1931 18.0173 21.167 18.0508 21.1372 18.0844C21.1521 18.103 21.167 18.1329 21.1857 18.1329C21.5809 18.144 21.9799 18.1552 22.4124 18.1627C22.4124 18.3603 22.4236 18.5467 22.4124 18.7294C22.39 19.0724 22.5391 19.3372 22.7666 19.5758C23.0276 19.5758 23.2886 19.587 23.5496 19.5683C23.6503 19.5609 23.7397 19.4528 23.8441 19.4378C23.8777 19.4341 23.9001 19.4229 23.915 19.4117C23.9672 19.3745 23.9597 19.3073 23.9858 19.2477C24.038 19.1172 24.1238 19.0016 24.1984 18.8786C24.1984 18.8786 24.2021 18.8711 24.2058 18.8711C24.3811 19.0501 24.5451 19.2141 24.7129 19.3819C24.7912 19.4602 24.8695 19.4565 24.959 19.3856C24.959 19.3856 24.9627 19.3856 24.9664 19.3819V18.7816H24.9739C24.8434 18.6474 24.7204 18.5355 24.6122 18.4125C24.4743 18.2559 24.217 18.2708 24.1163 18.0657C24.1089 18.0471 24.0865 18.0173 24.0679 18.0173C23.9746 18.0098 23.8404 18.0471 23.7957 17.9986C23.6204 17.8197 23.4116 17.8756 23.2103 17.8644C23.0611 17.6407 22.8337 17.7339 22.6324 17.7227C22.4907 17.7153 22.349 17.7227 22.2036 17.7227C22.1737 17.6929 22.1439 17.6519 22.1066 17.6258C22.0731 17.6034 22.0134 17.5698 21.9873 17.5848C21.8307 17.6742 21.6704 17.7302 21.484 17.7488C21.4616 17.7488 21.4355 17.7637 21.4131 17.7824C21.3497 17.8308 21.2938 17.9241 21.2342 17.9874L21.223 17.9837Z" fill="#462716"/>
<path d="M25.0112 24.9487C24.877 24.7959 24.7054 24.8779 24.5526 24.8555C24.3997 24.8369 24.3065 24.6728 24.1163 24.7064C23.9113 24.7399 23.695 24.7138 23.4825 24.7138C23.27 24.7138 23.2737 24.7213 22.9791 24.5684C22.8039 24.4789 22.6212 24.4044 22.4534 24.2962C22.3863 24.2515 22.3005 24.2068 22.2222 24.1769C22.1253 24.1396 22.0022 24.1583 21.8941 24.1695C21.8829 24.1695 21.8755 24.1918 21.868 24.2142C21.8606 24.2366 21.8531 24.2627 21.8456 24.2813C21.8456 24.2813 21.8494 24.2813 21.8531 24.2813C21.9948 24.2701 22.0358 24.4267 22.1887 24.4454C22.2707 24.4528 22.3378 24.505 22.3788 24.5796C22.4236 24.6542 22.4422 24.7511 22.4236 24.8518C22.5727 24.8294 22.692 24.863 22.7815 24.9935C22.9456 24.9301 22.9978 25.1314 23.1432 25.1426C23.2439 25.1501 23.3371 25.2694 23.434 25.2694C23.5869 25.2694 23.6801 25.3663 23.7994 25.4148C24.1201 25.5453 24.4109 25.7765 24.7949 25.7355C24.8061 25.7355 24.8285 25.81 24.8434 25.851H24.8509C25.0037 25.8697 25.1752 25.7914 25.3095 25.9443C25.3468 25.9853 25.4362 25.989 25.4996 25.989H26.8456C26.8717 25.8138 27.0544 25.7578 27.1253 25.6161C27.1253 25.6161 27.1253 25.6161 27.129 25.6124C27.1066 25.5043 27.1812 25.3775 27.0805 25.2955C26.8606 25.2768 26.6555 25.2582 26.4504 25.2396C26.3386 25.0158 26.0067 25.2657 25.9172 24.9935C25.6823 24.9935 25.4474 24.9972 25.2088 24.9935C25.1417 24.9935 25.0522 24.9897 25.0186 24.9487H25.0112Z" fill="white"/>
<path d="M13.4266 23.0467C13.4266 22.946 13.4377 22.8454 13.4266 22.7447C13.4154 22.644 13.3818 22.5471 13.2849 22.4651V21.779C13.1022 21.5963 12.9381 21.4322 12.7703 21.2645C12.6361 21.134 12.4832 21.0146 12.3751 20.8618C12.2744 20.7238 12.2111 20.5523 12.1477 20.392C12.0806 20.2242 11.8307 20.172 11.8606 19.9446C11.704 19.8625 11.7599 19.6388 11.6182 19.5531C11.4467 19.4487 11.4691 19.2249 11.3199 19.1094C11.2677 19.0683 11.2379 18.9863 11.1484 19.0087C11.1484 19.0087 11.1484 19.0161 11.1484 19.0199C11.1745 19.1988 11.0627 19.4076 11.2006 19.5493C11.3572 19.7208 11.2416 19.9073 11.2938 20.0788C11.305 20.1161 11.3796 20.1422 11.387 20.1794C11.443 20.4665 11.8084 20.6082 11.7375 20.955C11.8196 21.0855 11.9202 21.2085 11.9799 21.3465C12.0395 21.4844 11.9501 21.6746 12.1328 21.7753C12.0731 21.958 12.3416 22.0214 12.2856 22.2041C12.4161 22.2824 12.3938 22.4539 12.4832 22.5434C12.6287 22.685 12.5392 22.8528 12.5765 23.002C12.6026 23.1026 12.6883 23.1921 12.707 23.2965C12.7256 23.4121 12.7331 23.5091 12.8151 23.6097C12.8747 23.6843 12.8225 23.8446 12.8785 23.9304C12.9344 24.0161 12.9978 24.1392 13.1395 24.1355H13.1432C13.1693 23.9528 13.3594 23.9006 13.4266 23.7551V23.043V23.0467Z" fill="#391900"/>
<path d="M22.2483 15.7353C22.1439 15.7502 22.0544 15.836 21.95 15.8658C21.8643 15.8882 21.7822 15.8844 21.6928 15.9329C21.5212 16.0261 21.3572 16.1417 21.1633 16.1939C21.1409 16.1976 21.1186 16.2797 21.1297 16.3132C21.1819 16.4437 21.2602 16.5668 21.4094 16.5705C21.4094 16.5705 21.4094 16.5705 21.4131 16.5705C21.4877 16.5705 21.5623 16.4885 21.6517 16.4363H23.5757C23.6875 16.4959 23.7696 16.578 23.8441 16.5705C23.9523 16.563 24.0567 16.5705 24.1536 16.5966C24.2506 16.6227 24.34 16.6637 24.4183 16.7271C24.6197 16.8874 24.8956 16.824 25.0895 16.9993C25.1118 17.0217 25.1529 17.0217 25.1976 17.0217C25.2461 17.0217 25.302 17.0105 25.343 17.0105C25.44 16.8278 25.3878 16.6674 25.3878 16.6302H25.3952C25.2796 16.2536 25.0112 16.2014 24.8098 16.056C24.7166 15.9888 24.5936 16.0224 24.5078 15.9143C24.4966 15.8994 24.478 15.8956 24.4556 15.8882C24.4183 15.8807 24.3661 15.8807 24.3177 15.8807C24.2916 15.8807 24.2692 15.877 24.2468 15.8695C24.1424 15.836 24.0529 15.7577 23.9485 15.7353C23.8889 15.7241 23.8292 15.7241 23.7696 15.7241C23.7099 15.7241 23.654 15.7316 23.5943 15.7316H22.7405C22.7405 15.7316 22.7181 15.7316 22.7107 15.7316C22.5541 15.7316 22.3937 15.7204 22.2446 15.739L22.2483 15.7353Z" fill="#462716"/>
<path d="M24.8285 25.8472C24.8285 25.8695 24.821 25.9143 24.8285 25.9143C25.1193 26.015 25.3132 26.2424 25.5034 26.4587C25.6749 26.6488 25.9023 26.7234 26.1111 26.8427C26.2267 26.8427 26.3385 26.8576 26.428 26.7458C26.5697 26.5705 26.6219 26.3356 26.8195 26.1939C26.8531 26.1716 26.8233 26.0597 26.8233 25.9889H25.4773C25.4101 25.9889 25.3207 25.9851 25.2871 25.9441C25.1529 25.7912 24.9814 25.8733 24.8285 25.8509V25.8472Z" fill="#5E1501"/>
<path d="M21.6368 24.7248C21.7189 24.8217 21.8233 24.8478 21.9314 24.8777C21.9575 24.8851 21.9687 24.9522 21.9836 24.9933C21.9873 24.9933 21.9911 24.9933 21.9948 24.9933C22.0992 24.9933 22.2073 25.0082 22.3117 24.9933C22.3751 24.9858 22.4236 24.9373 22.4087 24.8553C22.4087 24.8553 22.4087 24.8553 22.4087 24.8516C22.4273 24.7509 22.4087 24.654 22.3639 24.5794C22.3229 24.5085 22.2558 24.4563 22.1775 24.4489C22.0246 24.434 21.9799 24.2662 21.8382 24.2886V24.2811C21.8382 24.2811 21.8345 24.2811 21.8307 24.2811C21.7189 24.2699 21.6779 24.3743 21.6182 24.434C21.5884 24.4601 21.5735 24.4862 21.5623 24.5123C21.5324 24.5794 21.5623 24.6428 21.6331 24.7248H21.6368Z" fill="#5E1501"/>
<path d="M26.2826 30.8918L26.3311 30.8657C26.305 30.8769 26.2826 30.8844 26.2826 30.8881V30.8918Z" fill="#E87A29"/>
<path d="M18.0201 29.3745C18.0201 29.3745 18.0127 29.3708 18.009 29.367C17.6063 29.0874 17.9829 29.367 18.0164 29.3782H18.0239C18.0239 29.3782 18.0239 29.3745 18.0239 29.3708L18.0201 29.3745Z" fill="#E87A29"/>
<path d="M25.4213 34.0684C25.4437 34.0908 25.4661 34.1169 25.4735 34.1169C25.6823 34.02 25.8091 34.2474 25.9918 34.2623L25.4064 33.8857H25.399C25.4064 33.9454 25.4101 34.0088 25.4176 34.0647L25.4213 34.0684Z" fill="#E87A29"/>
<path d="M24.5451 33.6918C24.6048 33.6619 24.6495 33.6358 24.6905 33.6172L24.258 33.6918H24.5414H24.5451Z" fill="#E87A29"/>
<path d="M21.4914 31.2758C21.4691 31.2385 21.4355 31.2124 21.402 31.1938C21.3908 31.1863 21.3796 31.1826 21.3721 31.1788C21.3535 31.1714 21.3348 31.1602 21.3162 31.1527C21.2826 31.1416 21.2528 31.1304 21.223 31.1155C21.1932 31.1043 21.1671 31.0894 21.1484 31.067C21.0925 31.0036 21.1298 30.8955 21.0216 30.8433C21.0067 30.8358 20.9881 30.8284 20.9694 30.8246C20.9322 30.8172 20.8986 30.7985 20.865 30.7724C20.7718 30.7053 20.6898 30.6009 20.5929 30.5263C20.5929 30.5263 20.5854 30.5263 20.5854 30.5189C20.4698 30.4406 20.343 30.3772 20.2349 30.2877C20.2237 30.2803 20.2125 30.2728 20.2051 30.2653C20.1305 30.1945 20.1119 30.0081 20.0448 29.9932C20.0448 29.9932 20.0448 29.9932 20.041 29.9932C19.9776 29.9782 19.9329 29.9633 19.8993 29.9372C19.8658 29.9074 19.8434 29.8664 19.8248 29.7955C19.8173 29.7694 19.7949 29.7471 19.7688 29.7284C19.7539 29.7172 19.7353 29.7061 19.7166 29.6986C19.7092 29.6949 19.7017 29.6911 19.6943 29.6837C19.6607 29.6688 19.6272 29.6501 19.5936 29.6315C19.5638 29.6166 19.5377 29.5979 19.5153 29.5793C19.3923 29.4637 19.258 29.3556 19.1313 29.2363C19.1238 29.2288 19.1163 29.2251 19.1089 29.2176C18.9784 29.0946 18.8591 28.9641 18.7696 28.8149C18.572 28.4831 18.2849 28.2594 18.0463 27.9723C18.009 27.9275 18.0052 27.8492 17.9791 27.7896C17.912 27.6404 17.7219 27.5882 17.692 27.4093C17.6771 27.3161 17.6212 27.2527 17.5578 27.1967C17.5392 27.1818 17.5205 27.1632 17.5019 27.1483C17.4609 27.1147 17.4199 27.0774 17.3826 27.0401C17.3602 27.014 17.3378 26.9991 17.3155 26.9917C17.2483 26.9656 17.1775 27.0029 17.088 27.0812C16.9389 27.2154 16.924 27.3794 17.0209 27.5137C17.0992 27.6181 17.1178 27.7113 17.1216 27.8306C17.1216 27.9201 17.0843 28.017 17.1589 28.0916C17.1589 28.0916 17.1589 28.0916 17.1589 28.0953C17.1961 28.1065 17.2297 28.1177 17.2558 28.1251C17.3378 28.155 17.3639 28.1885 17.4012 28.2668C17.4944 28.4644 17.5951 28.6583 17.6846 28.8597C17.7666 29.0461 18.0052 29.1281 18.009 29.363C18.0276 29.3742 18.0425 29.3891 18.0649 29.404C18.4266 29.6576 18.6801 29.9298 18.8292 30.2318C18.9075 30.3884 18.9523 30.5748 19.0679 30.6979C19.2282 30.8694 19.2804 31.0894 19.3997 31.2758C19.4967 31.4249 19.5153 31.6188 19.6644 31.7344C19.8509 31.8798 19.8658 32.1408 20.0634 32.2862C20.2685 32.4354 20.3319 32.6889 20.4213 32.9163C20.4213 32.9238 20.4325 32.935 20.44 32.9424C20.4512 32.9536 20.4586 32.9611 20.4698 32.9611C20.5444 32.9611 20.604 32.9835 20.6562 33.017C20.7867 33.0991 20.865 33.2556 20.9881 33.3451C21.0142 33.3638 21.044 33.3824 21.0738 33.3936C21.3647 33.4011 21.3572 33.416 21.6592 33.5278C21.6704 33.5278 21.6779 33.5353 21.6853 33.5427C21.745 33.5726 21.7897 33.6136 21.8382 33.6434C21.8531 33.6546 21.8718 33.6621 21.8867 33.6658C21.9948 33.6956 22.1178 33.6844 22.2372 33.677C22.2744 33.677 22.3043 33.6844 22.3304 33.6993C22.3565 33.7143 22.3826 33.7366 22.4087 33.7553C22.4609 33.7963 22.5205 33.8373 22.6063 33.8298C22.8859 33.8 23.173 33.8224 23.4191 33.8224C23.6055 33.7143 23.7509 33.6099 23.915 33.5427C23.9896 33.5092 24.094 33.5427 24.1835 33.5614C24.1835 33.5614 24.1835 33.5614 24.1872 33.5614C24.2431 32.2452 24.698 31.9618 24.698 31.9618C24.5078 32.029 24.2879 31.9544 24.094 31.9618C23.5981 31.9842 23.0947 31.9693 22.6697 31.9693C22.4348 31.8574 22.2558 31.768 22.0768 31.6859C21.9575 31.63 21.8568 31.548 21.7226 31.507C21.6965 31.4995 21.6704 31.4846 21.6443 31.4659C21.5772 31.4175 21.5175 31.3354 21.4728 31.2646L21.4914 31.2758Z" fill="#E87A29"/>
</g>
<defs>
<clipPath id="clip0_13299_128621">
<rect width="40" height="40" rx="4" fill="white"/>
</clipPath>
</defs>
</svg>
