<svg width="32" height="32" viewBox="0 0 32 32" fill="none" xmlns="http://www.w3.org/2000/svg">
<path fill-rule="evenodd" clip-rule="evenodd" d="M14.0003 20.667C10.3243 20.667 7.33366 17.6763 7.33366 14.0003C7.33366 10.3243 10.3243 7.33366 14.0003 7.33366C17.6763 7.33366 20.667 10.3243 20.667 14.0003C20.667 17.6763 17.6763 20.667 14.0003 20.667ZM14.0003 4.66699C8.85366 4.66699 4.66699 8.85366 4.66699 14.0003C4.66699 19.147 8.85366 23.3337 14.0003 23.3337C19.147 23.3337 23.3337 19.147 23.3337 14.0003C23.3337 8.85366 19.147 4.66699 14.0003 4.66699ZM27.805 25.9196L22.943 21.0576L22.4717 21.5289C21.691 22.3096 21.691 23.5756 22.4717 24.3569L25.9197 27.8049C26.1797 28.0656 26.6017 28.0656 26.8623 27.8049L27.805 26.8623C28.0657 26.6016 28.0657 26.1803 27.805 25.9196Z" fill="#E87722"/>
</svg>
