<?xml version="1.0" encoding="UTF-8"?>
<svg xmlns="http://www.w3.org/2000/svg" xmlns:xlink="http://www.w3.org/1999/xlink" width="62px" height="24px" viewBox="0 0 61 24" version="1.1">
<defs>
<clipPath id="clip1">
  <path d="M 0 0 L 61 0 L 61 23.644531 L 0 23.644531 Z M 0 0 "/>
</clipPath>
</defs>
<g id="surface1">
<g clip-path="url(#clip1)" clip-rule="nonzero">
<rect x="0" y="0" width="61" height="24" style="fill:rgb(10.196078%,21.568627%,38.823529%);fill-opacity:1;stroke:none;"/>
</g>
<path style=" stroke:none;fill-rule:nonzero;fill:rgb(100%,99.607843%,99.607843%);fill-opacity:1;" d="M 45.550781 13.605469 C 45.550781 13.9375 45.550781 14.421875 45.550781 14.753906 C 46.222656 14.753906 46.894531 14.753906 47.566406 14.753906 C 47.566406 15.042969 47.566406 15.324219 47.566406 15.613281 C 46.898438 15.613281 46.226562 15.613281 45.554688 15.613281 C 45.554688 16.015625 45.554688 16.253906 45.554688 16.65625 C 46.300781 16.65625 47.050781 16.65625 47.804688 16.65625 C 47.804688 16.960938 47.804688 17.257812 47.804688 17.558594 C 46.722656 17.558594 45.644531 17.558594 44.5625 17.558594 C 44.5625 15.941406 44.5625 14.328125 44.5625 12.710938 C 45.609375 12.710938 46.648438 12.710938 47.695312 12.710938 C 47.695312 13.007812 47.695312 13.300781 47.695312 13.605469 C 46.984375 13.605469 46.269531 13.605469 45.550781 13.605469 Z M 45.550781 13.605469 "/>
<path style=" stroke:none;fill-rule:nonzero;fill:rgb(100%,99.607843%,99.607843%);fill-opacity:1;" d="M 33.980469 17.558594 C 33.960938 17.558594 33.945312 17.558594 33.925781 17.558594 C 33.621094 17.558594 33.3125 17.554688 33.007812 17.558594 C 32.964844 17.558594 32.945312 17.546875 32.929688 17.5 C 32.8125 17.167969 32.695312 16.832031 32.582031 16.5 C 32.566406 16.460938 32.550781 16.445312 32.511719 16.445312 C 31.953125 16.445312 31.394531 16.445312 30.835938 16.445312 C 30.792969 16.445312 30.777344 16.460938 30.761719 16.5 C 30.644531 16.832031 30.523438 17.164062 30.40625 17.496094 C 30.398438 17.515625 30.390625 17.53125 30.382812 17.554688 C 30.0625 17.554688 29.742188 17.554688 29.414062 17.554688 C 29.464844 17.421875 29.515625 17.289062 29.566406 17.160156 C 30.125 15.695312 30.6875 14.230469 31.25 12.765625 C 31.265625 12.71875 31.289062 12.703125 31.332031 12.707031 C 31.582031 12.707031 31.828125 12.707031 32.074219 12.707031 C 32.109375 12.707031 32.128906 12.714844 32.144531 12.753906 C 32.75 14.335938 33.359375 15.921875 33.964844 17.503906 C 33.972656 17.519531 33.976562 17.535156 33.980469 17.558594 Z M 31.679688 13.941406 C 31.675781 13.941406 31.671875 13.941406 31.667969 13.941406 C 31.46875 14.503906 31.269531 15.0625 31.070312 15.628906 C 31.472656 15.628906 31.867188 15.628906 32.269531 15.628906 C 32.070312 15.0625 31.875 14.503906 31.679688 13.941406 Z M 31.679688 13.941406 "/>
<path style=" stroke:none;fill-rule:nonzero;fill:rgb(100%,99.607843%,99.607843%);fill-opacity:1;" d="M 26.269531 12.710938 C 26.285156 12.707031 26.296875 12.707031 26.308594 12.707031 C 26.953125 12.707031 27.601562 12.699219 28.246094 12.714844 C 28.648438 12.722656 29.015625 12.84375 29.328125 13.109375 C 29.570312 13.320312 29.707031 13.585938 29.753906 13.902344 C 29.796875 14.195312 29.785156 14.484375 29.683594 14.761719 C 29.546875 15.144531 29.269531 15.382812 28.90625 15.535156 C 28.667969 15.632812 28.417969 15.671875 28.164062 15.675781 C 27.855469 15.675781 27.546875 15.675781 27.238281 15.675781 C 27.222656 15.675781 27.207031 15.675781 27.1875 15.675781 C 27.1875 16.25 27.1875 16.984375 27.1875 17.558594 C 26.878906 17.558594 26.578125 17.558594 26.269531 17.558594 C 26.269531 15.996094 26.269531 14.273438 26.269531 12.710938 Z M 27.183594 14.828125 C 27.199219 14.828125 27.203125 14.832031 27.210938 14.832031 C 27.515625 14.832031 27.820312 14.835938 28.125 14.828125 C 28.226562 14.824219 28.332031 14.804688 28.429688 14.777344 C 28.617188 14.722656 28.753906 14.609375 28.800781 14.410156 C 28.835938 14.269531 28.835938 14.132812 28.800781 13.992188 C 28.765625 13.84375 28.679688 13.738281 28.542969 13.675781 C 28.433594 13.621094 28.316406 13.585938 28.195312 13.585938 C 27.867188 13.578125 27.539062 13.578125 27.210938 13.578125 C 27.203125 13.578125 27.195312 13.578125 27.1875 13.582031 C 27.183594 13.996094 27.183594 14.410156 27.183594 14.828125 Z M 27.183594 14.828125 "/>
<path style=" stroke:none;fill-rule:nonzero;fill:rgb(100%,99.607843%,99.607843%);fill-opacity:1;" d="M 36.070312 17.558594 C 35.761719 17.558594 35.460938 17.558594 35.152344 17.558594 C 35.152344 17.535156 35.152344 17.511719 35.152344 17.492188 C 35.152344 16.851562 35.152344 16.210938 35.152344 15.570312 C 35.152344 15.535156 35.140625 15.496094 35.121094 15.464844 C 34.574219 14.570312 34.023438 13.671875 33.472656 12.773438 C 33.460938 12.753906 33.449219 12.734375 33.4375 12.707031 C 33.460938 12.707031 33.476562 12.707031 33.492188 12.707031 C 33.804688 12.707031 34.117188 12.707031 34.429688 12.703125 C 34.46875 12.703125 34.492188 12.71875 34.511719 12.753906 C 34.867188 13.363281 35.226562 13.972656 35.585938 14.582031 C 35.59375 14.597656 35.605469 14.613281 35.617188 14.636719 C 35.632812 14.613281 35.644531 14.597656 35.65625 14.578125 C 36.015625 13.972656 36.375 13.367188 36.734375 12.761719 C 36.757812 12.71875 36.785156 12.703125 36.832031 12.707031 C 37.128906 12.707031 37.429688 12.707031 37.730469 12.707031 C 37.75 12.707031 37.769531 12.707031 37.796875 12.707031 C 37.78125 12.734375 37.769531 12.753906 37.757812 12.773438 C 37.207031 13.667969 36.65625 14.566406 36.105469 15.460938 C 36.085938 15.496094 36.074219 15.539062 36.070312 15.578125 C 36.070312 16.214844 36.070312 16.855469 36.070312 17.492188 C 36.070312 17.511719 36.070312 17.535156 36.070312 17.558594 Z M 36.070312 17.558594 "/>
<path style=" stroke:none;fill-rule:nonzero;fill:rgb(100%,99.607843%,99.607843%);fill-opacity:1;" d="M 57.070312 13.605469 C 56.65625 13.605469 56.003906 13.605469 55.585938 13.605469 C 55.585938 14.925781 55.585938 16.238281 55.585938 17.558594 C 55.277344 17.558594 54.976562 17.558594 54.667969 17.558594 C 54.667969 16.242188 54.667969 14.929688 54.667969 13.609375 C 54.253906 13.609375 53.601562 13.609375 53.1875 13.609375 C 53.1875 13.308594 53.1875 13.011719 53.1875 12.710938 C 54.320312 12.710938 55.9375 12.710938 57.070312 12.710938 C 57.070312 13.007812 57.070312 13.300781 57.070312 13.605469 Z M 57.070312 13.605469 "/>
<path style=" stroke:none;fill-rule:nonzero;fill:rgb(100%,99.607843%,99.607843%);fill-opacity:1;" d="M 42.648438 12.710938 L 42.648438 12.703125 L 42.152344 12.703125 L 40.917969 16.125 L 39.617188 12.710938 L 38.414062 12.710938 L 38.414062 17.558594 L 39.332031 17.558594 L 39.332031 14.140625 L 40.457031 17.183594 L 41.304688 17.183594 L 42.4375 14.324219 L 42.4375 17.558594 L 43.351562 17.558594 L 43.351562 12.710938 Z M 42.648438 12.710938 "/>
<path style=" stroke:none;fill-rule:nonzero;fill:rgb(100%,99.607843%,99.607843%);fill-opacity:1;" d="M 51.71875 12.710938 L 51.71875 16.167969 L 49.621094 12.710938 L 48.78125 12.710938 L 48.78125 17.558594 L 49.621094 17.558594 L 49.621094 14.277344 L 51.71875 17.558594 L 52.558594 17.558594 L 52.558594 12.710938 Z M 51.71875 12.710938 "/>
<path style=" stroke:none;fill-rule:nonzero;fill:rgb(100%,99.607843%,99.607843%);fill-opacity:1;" d="M 55.609375 8.628906 C 56.09375 9.402344 56.578125 10.167969 57.070312 10.949219 C 57.039062 10.949219 57.019531 10.949219 57 10.949219 C 56.640625 10.949219 56.285156 10.949219 55.925781 10.949219 C 55.882812 10.949219 55.859375 10.9375 55.835938 10.898438 C 55.421875 10.199219 55.007812 9.503906 54.597656 8.808594 C 54.574219 8.765625 54.546875 8.75 54.496094 8.75 C 54.3125 8.753906 54.128906 8.753906 53.941406 8.753906 C 53.941406 9.484375 53.941406 10.214844 53.941406 10.945312 C 53.582031 10.945312 53.230469 10.945312 52.878906 10.945312 C 52.878906 9.078125 52.878906 7.210938 52.878906 5.339844 C 52.894531 5.335938 52.910156 5.335938 52.921875 5.335938 C 53.671875 5.335938 54.417969 5.328125 55.164062 5.34375 C 55.59375 5.351562 55.996094 5.464844 56.351562 5.730469 C 56.699219 5.996094 56.871094 6.359375 56.914062 6.796875 C 56.941406 7.121094 56.917969 7.4375 56.78125 7.738281 C 56.597656 8.140625 56.285156 8.390625 55.886719 8.539062 C 55.800781 8.574219 55.707031 8.597656 55.609375 8.628906 Z M 53.941406 7.753906 C 53.964844 7.757812 53.984375 7.757812 54.003906 7.757812 C 54.328125 7.757812 54.652344 7.757812 54.976562 7.757812 C 55.066406 7.757812 55.15625 7.75 55.246094 7.734375 C 55.632812 7.679688 55.839844 7.425781 55.820312 7.023438 C 55.808594 6.769531 55.714844 6.566406 55.472656 6.46875 C 55.367188 6.425781 55.25 6.394531 55.136719 6.390625 C 54.746094 6.378906 54.359375 6.378906 53.972656 6.378906 C 53.960938 6.378906 53.953125 6.382812 53.941406 6.382812 C 53.941406 6.839844 53.941406 7.292969 53.941406 7.753906 Z M 53.941406 7.753906 "/>
<path style=" stroke:none;fill-rule:nonzero;fill:rgb(100%,99.607843%,99.607843%);fill-opacity:1;" d="M 35.816406 10.945312 C 35.460938 10.945312 35.113281 10.945312 34.757812 10.945312 C 34.757812 10.128906 34.757812 9.480469 34.757812 8.660156 C 33.933594 8.660156 33.28125 8.660156 32.464844 8.660156 C 32.464844 9.476562 32.464844 10.125 32.464844 10.945312 C 32.109375 10.945312 31.757812 10.945312 31.402344 10.945312 C 31.402344 9.078125 31.402344 7.210938 31.402344 5.339844 C 31.753906 5.339844 32.105469 5.339844 32.460938 5.339844 C 32.460938 6.039062 32.460938 6.902344 32.460938 7.605469 C 33.28125 7.605469 33.933594 7.605469 34.753906 7.605469 C 34.753906 6.90625 34.753906 6.042969 34.753906 5.339844 C 35.113281 5.339844 35.460938 5.339844 35.816406 5.339844 C 35.816406 7.207031 35.816406 9.074219 35.816406 10.945312 Z M 35.816406 10.945312 "/>
<path style=" stroke:none;fill-rule:nonzero;fill:rgb(100%,99.607843%,99.607843%);fill-opacity:1;" d="M 41.929688 10.949219 C 41.632812 10.949219 41.34375 10.949219 41.050781 10.949219 C 40.964844 10.949219 40.875 10.945312 40.789062 10.949219 C 40.746094 10.953125 40.726562 10.9375 40.710938 10.894531 C 40.578125 10.507812 40.4375 10.121094 40.308594 9.734375 C 40.289062 9.679688 40.265625 9.664062 40.210938 9.664062 C 39.566406 9.664062 38.925781 9.664062 38.28125 9.664062 C 38.230469 9.664062 38.210938 9.675781 38.191406 9.726562 C 38.054688 10.109375 37.917969 10.492188 37.777344 10.875 C 37.769531 10.898438 37.761719 10.921875 37.75 10.945312 C 37.378906 10.945312 37.007812 10.945312 36.628906 10.945312 C 36.636719 10.921875 36.644531 10.898438 36.652344 10.875 C 37.355469 9.046875 38.058594 7.222656 38.761719 5.398438 C 38.777344 5.351562 38.796875 5.332031 38.847656 5.332031 C 39.136719 5.335938 39.425781 5.335938 39.714844 5.332031 C 39.757812 5.332031 39.78125 5.347656 39.796875 5.390625 C 40.5 7.222656 41.207031 9.054688 41.910156 10.886719 C 41.917969 10.90625 41.921875 10.921875 41.929688 10.949219 Z M 38.546875 8.714844 C 39.015625 8.714844 39.476562 8.714844 39.941406 8.714844 C 39.710938 8.058594 39.484375 7.410156 39.25 6.746094 C 39.011719 7.414062 38.78125 8.0625 38.546875 8.714844 Z M 38.546875 8.714844 "/>
<path style=" stroke:none;fill-rule:nonzero;fill:rgb(100%,99.607843%,99.607843%);fill-opacity:1;" d="M 27.871094 6.378906 C 27.382812 6.378906 26.75 6.378906 26.269531 6.378906 C 26.269531 6.03125 26.269531 5.6875 26.269531 5.339844 C 27.585938 5.339844 29.222656 5.339844 30.539062 5.339844 C 30.539062 5.683594 30.539062 6.023438 30.539062 6.371094 C 30.0625 6.371094 29.421875 6.371094 28.9375 6.371094 C 28.9375 7.902344 28.9375 9.421875 28.9375 10.945312 C 28.578125 10.945312 28.226562 10.945312 27.871094 10.945312 C 27.871094 9.425781 27.871094 7.90625 27.871094 6.378906 Z M 27.871094 6.378906 "/>
<path style=" stroke:none;fill-rule:nonzero;fill:rgb(100%,99.607843%,99.607843%);fill-opacity:1;" d="M 42.582031 5.339844 C 42.933594 5.339844 43.28125 5.339844 43.636719 5.339844 C 43.636719 7.207031 43.636719 9.074219 43.636719 10.945312 C 43.285156 10.945312 42.9375 10.945312 42.582031 10.945312 C 42.582031 9.078125 42.582031 7.210938 42.582031 5.339844 Z M 42.582031 5.339844 "/>
<path style=" stroke:none;fill-rule:nonzero;fill:rgb(100%,99.607843%,99.607843%);fill-opacity:1;" d="M 51.996094 10.863281 L 51.171875 10.035156 C 51.273438 9.910156 51.363281 9.773438 51.445312 9.625 C 51.675781 9.191406 51.789062 8.699219 51.789062 8.148438 C 51.789062 7.605469 51.679688 7.121094 51.460938 6.695312 C 51.242188 6.265625 50.925781 5.933594 50.507812 5.695312 C 50.089844 5.453125 49.621094 5.335938 49.101562 5.335938 C 48.304688 5.335938 47.660156 5.589844 47.15625 6.097656 C 46.652344 6.609375 46.402344 7.3125 46.402344 8.210938 C 46.402344 8.6875 46.511719 9.140625 46.726562 9.566406 C 46.941406 9.992188 47.257812 10.328125 47.675781 10.574219 C 48.09375 10.820312 48.566406 10.945312 49.097656 10.945312 C 49.585938 10.945312 50.042969 10.832031 50.464844 10.609375 C 50.476562 10.601562 50.488281 10.59375 50.5 10.589844 L 51.386719 11.476562 Z M 49.097656 10.070312 C 48.722656 10.070312 48.402344 9.988281 48.117188 9.820312 C 47.84375 9.660156 47.644531 9.449219 47.503906 9.171875 C 47.351562 8.867188 47.273438 8.550781 47.273438 8.210938 C 47.273438 7.546875 47.4375 7.054688 47.777344 6.714844 C 48.117188 6.371094 48.535156 6.210938 49.101562 6.210938 C 49.46875 6.210938 49.789062 6.289062 50.074219 6.453125 C 50.34375 6.609375 50.546875 6.816406 50.6875 7.09375 C 50.84375 7.398438 50.917969 7.746094 50.917969 8.148438 C 50.917969 8.558594 50.839844 8.90625 50.675781 9.214844 C 50.636719 9.285156 50.597656 9.351562 50.550781 9.414062 L 49.707031 8.566406 L 49.097656 9.179688 L 49.847656 9.933594 C 49.613281 10.023438 49.363281 10.070312 49.097656 10.070312 Z M 49.097656 10.070312 "/>
<path style=" stroke:none;fill-rule:nonzero;fill:rgb(100%,100%,100%);fill-opacity:1;" d="M 8.195312 3.40625 C 8.441406 3.390625 8.6875 3.375 8.9375 3.394531 C 11.136719 3.394531 13.335938 3.394531 15.535156 3.394531 C 16.523438 3.398438 17.546875 3.613281 18.367188 4.199219 C 19.054688 4.6875 19.542969 5.425781 19.796875 6.226562 C 19.953125 6.71875 20.039062 7.234375 20.054688 7.746094 C 20.050781 9.945312 20.054688 12.144531 20.050781 14.339844 C 21.640625 15.886719 23.234375 17.429688 24.824219 18.972656 C 24.875 19.027344 24.949219 19.09375 24.925781 19.179688 C 24.890625 19.253906 24.792969 19.257812 24.71875 19.269531 C 19.457031 19.265625 14.199219 19.269531 8.9375 19.265625 C 8.011719 19.273438 7.066406 19.132812 6.238281 18.699219 C 5.753906 18.449219 5.324219 18.09375 4.996094 17.660156 C 4.441406 16.9375 4.164062 16.03125 4.105469 15.128906 C 4.082031 14.90625 4.09375 14.683594 4.097656 14.460938 C 4.097656 12 4.097656 9.539062 4.097656 7.082031 C 4.113281 6.328125 4.328125 5.558594 4.792969 4.957031 C 5.257812 4.347656 5.941406 3.941406 6.65625 3.703125 C 7.152344 3.539062 7.675781 3.445312 8.195312 3.40625 Z M 7.269531 5.445312 C 6.921875 5.558594 6.601562 5.78125 6.402344 6.097656 C 6.195312 6.417969 6.101562 6.804688 6.113281 7.183594 C 6.113281 8.253906 6.113281 9.324219 6.113281 10.394531 C 7.039062 10.394531 7.964844 10.394531 8.890625 10.394531 C 8.890625 9.882812 8.890625 9.371094 8.890625 8.863281 C 8.886719 8.609375 9 8.351562 9.207031 8.203125 C 9.414062 8.050781 9.679688 8.011719 9.933594 8.015625 C 10.355469 8.015625 10.777344 8.015625 11.199219 8.015625 C 11.199219 7.121094 11.199219 6.226562 11.199219 5.335938 C 10.242188 5.332031 9.28125 5.335938 8.324219 5.332031 C 7.96875 5.296875 7.609375 5.335938 7.269531 5.445312 Z M 13.070312 5.332031 C 13.066406 6.226562 13.070312 7.121094 13.070312 8.015625 C 13.515625 8.015625 13.964844 8.015625 14.410156 8.015625 C 14.652344 8.015625 14.902344 8.070312 15.09375 8.226562 C 15.28125 8.375 15.378906 8.621094 15.378906 8.859375 C 15.375 9.371094 15.371094 9.882812 15.375 10.394531 C 16.300781 10.394531 17.230469 10.394531 18.15625 10.394531 C 18.15625 9.308594 18.15625 8.21875 18.15625 7.132812 C 18.164062 6.871094 18.121094 6.609375 18.03125 6.367188 C 17.90625 6.023438 17.648438 5.734375 17.324219 5.570312 C 16.902344 5.347656 16.414062 5.289062 15.945312 5.332031 C 14.988281 5.332031 14.027344 5.335938 13.070312 5.332031 Z M 6.113281 12.257812 C 6.113281 13.386719 6.113281 14.519531 6.113281 15.648438 C 6.121094 15.917969 6.171875 16.1875 6.300781 16.425781 C 6.453125 16.71875 6.714844 16.941406 7.007812 17.078125 C 7.433594 17.28125 7.910156 17.339844 8.375 17.320312 C 9.316406 17.320312 10.257812 17.320312 11.199219 17.320312 C 11.199219 16.425781 11.199219 15.53125 11.199219 14.636719 C 10.75 14.636719 10.304688 14.636719 9.855469 14.636719 C 9.617188 14.636719 9.367188 14.582031 9.175781 14.429688 C 8.988281 14.277344 8.890625 14.03125 8.890625 13.792969 C 8.890625 13.28125 8.890625 12.769531 8.890625 12.257812 C 7.964844 12.257812 7.039062 12.257812 6.113281 12.257812 Z M 15.371094 12.367188 C 15.371094 12.851562 15.371094 13.332031 15.371094 13.816406 C 15.378906 14.019531 15.328125 14.238281 15.183594 14.390625 C 15.027344 14.558594 14.792969 14.632812 14.566406 14.628906 C 14.050781 14.628906 13.535156 14.632812 13.015625 14.628906 C 13.003906 14.746094 13.015625 14.859375 13.011719 14.976562 C 13.011719 15.746094 13.011719 16.511719 13.007812 17.28125 C 13.230469 17.289062 13.449219 17.28125 13.667969 17.285156 C 15.863281 17.28125 18.0625 17.289062 20.257812 17.28125 C 19.3125 16.324219 18.363281 15.375 17.417969 14.421875 C 16.734375 13.738281 16.0625 13.042969 15.371094 12.367188 Z M 15.371094 12.367188 "/>
<path style=" stroke:none;fill-rule:nonzero;fill:rgb(32.941176%,65.098039%,60.392157%);fill-opacity:1;" d="M 15.371094 12.367188 C 16.0625 13.042969 16.730469 13.738281 17.417969 14.421875 C 18.363281 15.375 19.3125 16.324219 20.257812 17.28125 C 18.058594 17.289062 15.863281 17.28125 13.667969 17.285156 C 13.445312 17.28125 13.226562 17.289062 13.007812 17.28125 C 13.011719 16.511719 13.007812 15.746094 13.007812 14.976562 C 13.011719 14.859375 13.003906 14.742188 13.015625 14.628906 C 13.53125 14.632812 14.046875 14.628906 14.566406 14.628906 C 14.789062 14.632812 15.027344 14.558594 15.183594 14.394531 C 15.324219 14.238281 15.378906 14.019531 15.371094 13.816406 C 15.371094 13.332031 15.367188 12.851562 15.371094 12.367188 Z M 15.371094 12.367188 "/>
</g>
</svg>
